STARTFONT 2.1
COMMENT
COMMENT Converted from OpenType font "notosans_regular.ttf" by "otf2bdf 3.0".
COMMENT
FONT -FreeType-Noto Sans-Medium-R-Normal--66-480-100-100-P-326-ISO10646-1
SIZE 48 100 100
FONTBOUNDINGBOX 228 116 -41 -26
STARTPROPERTIES 19
FOUNDRY "FreeType"
FAMILY_NAME "Noto Sans"
WEIGHT_NAME "Medium"
SLANT "R"
SETWIDTH_NAME "Normal"
ADD_STYLE_NAME ""
PIXEL_SIZE 66
POINT_SIZE 480
RESOLUTION_X 100
RESOLUTION_Y 100
SPACING "P"
AVERAGE_WIDTH 326
CHARSET_REGISTRY "ISO10646"
CHARSET_ENCODING "1"
FONT_ASCENT 71
FONT_DESCENT 19
COPYRIGHT "Copyright 2015-2021 Google LLC. All Rights Reserved."
_OTF_FONTFILE "notosans_regular.ttf"
_OTF_PSNAME "NotoSans-Regular"
ENDPROPERTIES
CHARS 3053
STARTCHAR 0000
ENCODING 0
SWIDTH 0 0
DWIDTH 0 0
BBX 0 0 0 0
BITMAP
ENDCHAR
STARTCHAR 000D
ENCODING 13
SWIDTH 255 0
DWIDTH 17 0
BBX 0 0 0 0
BITMAP
ENDCHAR
STARTCHAR 0020
ENCODING 32
SWIDTH 255 0
DWIDTH 17 0
BBX 0 0 0 0
BITMAP
ENDCHAR
STARTCHAR 0021
ENCODING 33
SWIDTH 255 0
DWIDTH 17 0
BBX 8 49 5 -1
BITMAP
FF
FE
7E
7E
7E
7E
7E
7E
7E
7E
7E
7E
7E
7E
7E
7E
7E
7E
7E
7E
7E
7E
7C
3C
3C
3C
3C
3C
3C
3C
3C
3C
3C
3C
3C
00
00
00
00
00
3C
FE
FF
FF
FF
FF
FF
7E
3C
ENDCHAR
STARTCHAR 0022
ENCODING 34
SWIDTH 405 0
DWIDTH 27 0
BBX 19 18 4 30
BITMAP
FE07E0
FE07E0
7E07E0
7C07E0
7C07E0
7C07C0
7C07C0
7C07C0
7C07C0
7C07C0
7C07C0
7C07C0
7C07C0
7C03C0
7C03C0
3C03C0
3803C0
3803C0
ENDCHAR
STARTCHAR 0023
ENCODING 35
SWIDTH 645 0
DWIDTH 43 0
BBX 39 48 2 0
BITMAP
0003E007C0
0003E00780
0003E00780
0003E00F80
0003E00F80
0003C00F80
0007C00F00
0007C00F00
0007C01F00
0007C01F00
0007801F00
000F801E00
000F801E00
000F803E00
000F803E00
3FFFFFFFFE
3FFFFFFFFE
3FFFFFFFFE
3FFFFFFFFE
001F007C00
001E007C00
001E007C00
003E007800
003E00F800
003E00F800
003C00F800
003C00F800
007C00F000
007C01F000
007C01F000
FFFFFFFFF8
FFFFFFFFF8
FFFFFFFFF8
FFFFFFFFF8
00F803E000
00F803E000
00F003E000
01F003C000
01F007C000
01F007C000
01F007C000
01E007C000
01E0078000
03E00F8000
03E00F8000
03E00F8000
03E00F8000
03C00F0000
ENDCHAR
STARTCHAR 0024
ENCODING 36
SWIDTH 570 0
DWIDTH 38 0
BBX 30 55 4 -4
BITMAP
00078000
00078000
00078000
00078000
00078000
00078000
001FF800
01FFFFC0
07FFFFF0
1FFFFFF8
3FFFFFF0
3FF79FF0
7F0780E0
7E078000
FC078000
FC078000
FC078000
FC078000
FC078000
FC078000
7E078000
7F078000
7FE78000
3FFF8000
1FFF8000
0FFFF000
03FFFE00
00FFFF80
001FFFC0
0007FFF0
0007FFF8
00078FF8
000783FC
000780FC
000780FC
0007807C
0007807C
0007807C
000780FC
000780FC
C00781FC
F80787F8
FFF7FFF0
FFFFFFE0
FFFFFFC0
FFFFFF00
1FFFFC00
007F8000
00078000
00078000
00078000
00078000
00078000
00078000
00078000
ENDCHAR
STARTCHAR 0025
ENCODING 37
SWIDTH 825 0
DWIDTH 55 0
BBX 49 49 3 -1
BITMAP
03FC00001F0000
0FFF00001F0000
1FFF80003E0000
1FFF80003E0000
3F0FC0007C0000
3E07C000FC0000
7C03E000F80000
7C03E001F80000
7C01E001F00000
7801F003E00000
F801F003E00000
F801F007C00000
F801F007C00000
F801F00F800000
F801F00F800000
F801F01F000000
F801F03F000000
F801F03E000000
F801F07C000000
7801F07C1FE000
7C01E0F83FF800
7C03E0F87FFC00
7C03E1F0FFFC00
3E07E1F1F87E00
3F0FC3E1F03F00
1FFFC7E3F01F00
1FFF87C3E01F00
0FFF0F83E00F80
03FE0F83E00F80
00E01F03C00F80
00001F03C00F80
00003E07C00F80
00003E07C00F80
00007C07C00F80
0000FC07C00F80
0000F807C00F80
0001F003C00F80
0001F003C00F80
0003E003E00F80
0003E003E00F80
0007C003E01F00
0007C003E01F00
000F8001F01F00
001F8001F83E00
001F0000FFFE00
003E0000FFFC00
003E00007FF800
007C00001FF000
00000000038000
ENDCHAR
STARTCHAR 0026
ENCODING 38
SWIDTH 720 0
DWIDTH 48 0
BBX 44 49 4 -1
BITMAP
001FFC000000
007FFF000000
01FFFF800000
03FFFFC00000
07FFFFC00000
07F00FE00000
0FE007E00000
0FC007F00000
0FC003F00000
0FC003F00000
0FC003F00000
0FC003F00000
0FC003F00000
0FC007E00000
07E00FE00000
07F01FC00000
03F03FC00000
01F87F800000
01FDFF000000
00FFFC000000
007FF8000000
003FF0000000
00FFC0000000
01FFE0000000
07FFF0000FC0
0FFBFC001F80
1FE1FE001F80
3FC0FF001F80
7F807F801F00
7F003FC03F00
FE001FE03F00
FC000FF07E00
FC0007F87E00
FC0003FCFC00
FC0001FFFC00
FC0000FFF800
FC00007FF800
FC00003FF000
FC00001FE000
FE00003FF000
FE00007FF800
7F0001FFFC00
7FC007FFFE00
3FFFFFFCFF00
1FFFFFF07F80
0FFFFFE03FC0
07FFFF801FE0
01FFFC000FF0
000F80000000
ENDCHAR
STARTCHAR 0027
ENCODING 39
SWIDTH 225 0
DWIDTH 15 0
BBX 7 18 4 30
BITMAP
FE
FE
7E
7C
7C
7C
7C
7C
7C
7C
7C
7C
7C
7C
7C
3C
38
38
ENDCHAR
STARTCHAR 0028
ENCODING 40
SWIDTH 300 0
DWIDTH 20 0
BBX 15 59 3 -11
BITMAP
007E
007C
00FC
01F8
03F0
03F0
07E0
07E0
0FC0
0FC0
1F80
1F80
1F80
3F00
3F00
3F00
7E00
7E00
7E00
7E00
FC00
FC00
FC00
FC00
FC00
FC00
FC00
FC00
FC00
FC00
FC00
FC00
FC00
FC00
FC00
FC00
FC00
FC00
FC00
7E00
7E00
7E00
7E00
3F00
3F00
3F00
3F80
1F80
1F80
0FC0
0FC0
07E0
07E0
03F0
03F0
01F8
00FC
007C
007E
ENDCHAR
STARTCHAR 0029
ENCODING 41
SWIDTH 300 0
DWIDTH 20 0
BBX 15 59 2 -11
BITMAP
FC00
7C00
7E00
3F00
1F80
1F80
0FC0
0FC0
07E0
07E0
03F0
03F0
03F0
01F8
01F8
01F8
00FC
00FC
00FC
00FC
007E
007E
007E
007E
007E
007E
007E
007E
007E
007E
007E
007E
007E
007E
007E
007E
007E
007E
007E
00FC
00FC
00FC
00FC
01F8
01F8
01F8
03F8
03F0
03F0
07E0
07E0
0FC0
0FC0
1F80
1F80
3F00
7E00
7C00
FC00
ENDCHAR
STARTCHAR 002A
ENCODING 42
SWIDTH 540 0
DWIDTH 36 0
BBX 31 30 3 21
BITMAP
000FC000
000FC000
000FC000
000FC000
000FC000
000FC000
0007C000
0007C000
0007C000
0007C000
7007803C
FF0781FC
FFE79FFC
FFFFFFFE
FFFFFFFE
FFFFFFFE
003FF800
001FE000
003FF000
003EF800
007CFC00
00FC7C00
00F87E00
01F87F00
03F83F80
07F03F80
07F01FC0
07E01FC0
01E00F00
00C00C00
ENDCHAR
STARTCHAR 002B
ENCODING 43
SWIDTH 570 0
DWIDTH 38 0
BBX 32 33 3 7
BITMAP
0003C000
0003C000
0003C000
0003C000
0003C000
0003C000
0003C000
0003C000
0003C000
0003C000
0003C000
0003C000
0003C000
0003C000
FFFFFFFF
FFFFFFFF
FFFFFFFF
FFFFFFFF
FFFFFFFF
0003C000
0003C000
0003C000
0003C000
0003C000
0003C000
0003C000
0003C000
0003C000
0003C000
0003C000
0003C000
0003C000
0003C000
ENDCHAR
STARTCHAR 002C
ENCODING 44
SWIDTH 255 0
DWIDTH 17 0
BBX 10 17 3 -9
BITMAP
1F80
1FC0
1F80
1F80
3F80
3F80
3F00
3F00
3E00
7E00
7E00
7C00
7C00
F800
F800
F800
F000
ENDCHAR
STARTCHAR 002D
ENCODING 45
SWIDTH 315 0
DWIDTH 21 0
BBX 16 5 3 15
BITMAP
FFFF
FFFF
FFFF
FFFF
FFFF
ENDCHAR
STARTCHAR 002E
ENCODING 46
SWIDTH 255 0
DWIDTH 17 0
BBX 8 9 5 -1
BITMAP
3C
FE
FF
FF
FF
FF
FF
7E
3C
ENDCHAR
STARTCHAR 002F
ENCODING 47
SWIDTH 360 0
DWIDTH 24 0
BBX 23 48 1 0
BITMAP
00007E
00007E
00007C
0000FC
0000FC
0001F8
0001F8
0001F8
0003F0
0003F0
0003E0
0007E0
0007E0
0007C0
000FC0
000FC0
001F80
001F80
001F00
003F00
003F00
003E00
007E00
007E00
00FC00
00FC00
00F800
01F800
01F800
01F000
03F000
03F000
07E000
07E000
07C000
0FC000
0FC000
0F8000
1F8000
1F8000
3F0000
3F0000
3E0000
7E0000
7E0000
7C0000
FC0000
FC0000
ENDCHAR
STARTCHAR 0030
ENCODING 48
SWIDTH 570 0
DWIDTH 38 0
BBX 32 49 3 -1
BITMAP
001FF800
00FFFE00
01FFFF80
03FFFFC0
07FFFFE0
0FF00FF0
0FE007F0
1FC003F8
1F8001F8
3F0000FC
3F0000FC
3F0000FC
7E00007E
7E00007E
7E00007E
7E00007E
7E00007E
7C00003E
FC00003F
FC00003F
FC00003F
FC00003F
FC00003F
FC00003F
FC00003F
FC00003F
FC00003F
FC00003F
FC00003F
FC00003F
7C00003F
7E00007E
7E00007E
7E00007E
7E00007E
7E00007E
3E0000FC
3F0000FC
3F0000FC
1F8001F8
1F8001F8
0FC003F8
0FE00FF0
07FE7FE0
03FFFFE0
01FFFF80
00FFFF00
003FFC00
0003E000
ENDCHAR
STARTCHAR 0031
ENCODING 49
SWIDTH 570 0
DWIDTH 38 0
BBX 18 48 6 0
BITMAP
0007C0
001FC0
003FC0
007FC0
01FFC0
03FFC0
07FFC0
0FEFC0
3FCFC0
7F8FC0
FF0FC0
7C0FC0
380FC0
300FC0
000FC0
000FC0
000FC0
000FC0
000FC0
000FC0
000FC0
000FC0
000FC0
000FC0
000FC0
000FC0
000FC0
000FC0
000FC0
000FC0
000FC0
000FC0
000FC0
000FC0
000FC0
000FC0
000FC0
000FC0
000FC0
000FC0
000FC0
000FC0
000FC0
000FC0
000FC0
000FC0
000FC0
000FC0
ENDCHAR
STARTCHAR 0032
ENCODING 50
SWIDTH 570 0
DWIDTH 38 0
BBX 32 48 3 0
BITMAP
003FF800
01FFFF00
07FFFF80
1FFFFFC0
3FFFFFE0
7FC01FF0
3F0007F0
3C0003F8
180001F8
000001F8
000001FC
000000FC
000000FC
000000FC
000000FC
000001F8
000001F8
000001F8
000001F8
000003F0
000007F0
000007E0
00000FC0
00001FC0
00003F80
00007F00
00007E00
0000FC00
0001FC00
0003F800
0007F000
000FE000
001FC000
003F8000
007F0000
00FE0000
01FC0000
03F80000
07F00000
0FE00000
1FC00000
3F800000
7F000000
FFFFFFFF
FFFFFFFF
FFFFFFFF
FFFFFFFF
FFFFFFFF
ENDCHAR
STARTCHAR 0033
ENCODING 51
SWIDTH 570 0
DWIDTH 38 0
BBX 31 49 3 -1
BITMAP
007FF800
03FFFF00
0FFFFFC0
3FFFFFE0
FFFFFFF0
7F800FF0
3E0007F8
380003F8
000001FC
000000FC
000000FC
000000FC
000000FC
000000FC
000000FC
000001F8
000001F8
000003F0
000007F0
00001FE0
0000FFC0
01FFFF00
01FFFC00
01FFFC00
01FFFF80
01FFFFE0
00003FF0
000007F8
000001FC
000000FC
000000FE
0000007E
0000007E
0000007E
0000007E
0000007E
0000007E
0000007E
000000FE
000000FE
000001FC
C00003FC
F8000FF8
FFC07FF0
FFFFFFE0
FFFFFFC0
7FFFFF00
0FFFFC00
007E0000
ENDCHAR
STARTCHAR 0034
ENCODING 52
SWIDTH 570 0
DWIDTH 38 0
BBX 36 48 1 0
BITMAP
000001F800
000003F800
000007F800
00000FF800
00000FF800
00001FF800
00003EF800
00003FF800
00007DF800
0000FDF800
0000F9F800
0001F1F800
0003F1F800
0007E1F800
0007C1F800
000FC1F800
001F81F800
001F01F800
003F01F800
007E01F800
007C01F800
00F801F800
01F801F800
03F001F800
03E001F800
07E001F800
0FC001F800
0F8001F800
1F8001F800
3F0001F800
3E0001F800
7C0001F800
FFFFFFFFF0
FFFFFFFFF0
FFFFFFFFF0
FFFFFFFFF0
FFFFFFFFF0
000001F800
000001F800
000001F800
000001F800
000001F800
000001F800
000001F800
000001F800
000001F800
000001F800
000001F800
ENDCHAR
STARTCHAR 0035
ENCODING 53
SWIDTH 570 0
DWIDTH 38 0
BBX 30 49 4 -1
BITMAP
1FFFFFE0
1FFFFFE0
1FFFFFE0
1FFFFFE0
1FFFFFE0
1FFFFFE0
1F000000
1F000000
3F000000
3F000000
3F000000
3F000000
3F000000
3F000000
3E000000
3E000000
3E000000
3E000000
3E000000
3FFFF000
3FFFFE00
7FFFFF80
7FFFFFC0
3FFFFFE0
0C003FF0
00000FF8
000003F8
000001F8
000001FC
000000FC
000000FC
000000FC
000000FC
000000FC
000000FC
000000FC
000000FC
000000FC
000001F8
000001F8
000003F8
C00007F0
F8001FE0
FFC1FFE0
FFFFFFC0
FFFFFF00
7FFFFE00
0FFFF000
007E0000
ENDCHAR
STARTCHAR 0036
ENCODING 54
SWIDTH 570 0
DWIDTH 38 0
BBX 31 49 4 -1
BITMAP
0001FFE0
000FFFE0
003FFFE0
00FFFFE0
01FFFFE0
03FE0000
07F80000
0FF00000
0FE00000
1FC00000
1F800000
3F000000
3F000000
3E000000
7E000000
7E000000
7E000000
7C000000
FC03F000
FC1FFF00
FC7FFF80
FCFFFFE0
FDFFFFF0
FFF00FF8
FFC003F8
FF8001FC
FF0000FC
FE0000FC
FC00007E
FC00007E
FC00007E
FC00007E
FC00007E
FC00007E
FC00007E
FC00007E
7C00007E
7E00007E
7E0000FC
3F0000FC
3F8001F8
1FC003F8
0FE007F0
0FFC3FF0
07FFFFE0
03FFFFC0
00FFFF00
003FFC00
0007C000
ENDCHAR
STARTCHAR 0037
ENCODING 55
SWIDTH 570 0
DWIDTH 38 0
BBX 32 48 3 0
BITMAP
FFFFFFFF
FFFFFFFF
FFFFFFFF
FFFFFFFF
FFFFFFFF
FFFFFFFF
0000007E
0000007E
000000FC
000000FC
000001F8
000001F8
000003F0
000003F0
000003F0
000007E0
000007E0
00000FC0
00000FC0
00001F80
00001F80
00003F00
00003F00
00007F00
00007E00
0000FE00
0000FC00
0000FC00
0001F800
0001F800
0003F000
0003F000
0007F000
0007E000
000FE000
000FC000
001FC000
001F8000
003F8000
003F0000
003F0000
007E0000
007E0000
00FE0000
00FC0000
01FC0000
01F80000
03F80000
ENDCHAR
STARTCHAR 0038
ENCODING 56
SWIDTH 570 0
DWIDTH 38 0
BBX 32 49 3 -1
BITMAP
003FFC00
00FFFF00
03FFFFC0
07FFFFE0
0FFFFFF0
1FE007F8
1FC003F8
3F8001FC
3F0000FC
3F0000FC
3F0000FC
3F0000FC
3F0000FC
3F0000FC
3F0000FC
1F8001F8
1FC001F8
0FE007F0
0FF00FE0
07FC3FC0
03FFFF80
00FFFF00
007FFC00
007FFE00
00FFFF00
03FFFFC0
07F87FE0
0FE00FF0
1FC007F8
3F8001FC
7F0000FE
7E00007E
7E00007E
FC00003F
FC00003F
FC00003F
FC00003F
FC00003F
FC00003F
7E00007E
7E00007E
7F0000FE
3FC003FC
1FF00FF8
1FFFFFF0
07FFFFE0
03FFFFC0
00FFFE00
0007E000
ENDCHAR
STARTCHAR 0039
ENCODING 57
SWIDTH 570 0
DWIDTH 38 0
BBX 32 49 3 -1
BITMAP
003FF000
00FFFE00
03FFFF00
07FFFFC0
0FFFFFE0
1FE00FE0
1FC007F0
3F8003F8
3F0001F8
7E0000FC
7E0000FC
7E00007C
7C00007E
FC00007E
FC00007E
FC00003E
FC00003E
FC00003F
FC00003F
7E00007F
7E00007F
7E0000FF
7F0001FF
3F8003FF
1FC00FFF
1FFCFFBE
0FFFFF3E
07FFFE3E
01FFF87E
007FE07E
0000007E
0000007E
0000007C
000000FC
000000FC
000000FC
000001F8
000001F8
000003F0
000007F0
00000FE0
00001FC0
00007FC0
0C03FF80
0FFFFF00
0FFFFC00
0FFFF000
0FFFC000
03F80000
ENDCHAR
STARTCHAR 003A
ENCODING 58
SWIDTH 255 0
DWIDTH 17 0
BBX 8 38 5 -1
BITMAP
18
7E
FF
FF
FF
FF
FF
FE
7E
00
00
00
00
00
00
00
00
00
00
00
00
00
00
00
00
00
00
00
00
3C
FE
FF
FF
FF
FF
FF
7E
3C
ENDCHAR
STARTCHAR 003B
ENCODING 59
SWIDTH 255 0
DWIDTH 17 0
BBX 11 46 2 -9
BITMAP
0300
0FC0
1FE0
1FE0
1FE0
1FE0
1FE0
1FC0
0F80
0000
0000
0000
0000
0000
0000
0000
0000
0000
0000
0000
0000
0000
0000
0000
0000
0000
0000
0000
0000
1FC0
1FC0
1FC0
1F80
1F80
1F80
3F80
3F00
3F00
3E00
7E00
7E00
7C00
7C00
7800
F800
F800
ENDCHAR
STARTCHAR 003C
ENCODING 60
SWIDTH 570 0
DWIDTH 38 0
BBX 32 32 3 9
BITMAP
00000003
0000000F
0000003F
000000FF
000003FF
00000FFC
00003FF0
0000FFC0
0003FF00
000FFC00
003FE000
00FF8000
03FE0000
0FF80000
3FE00000
FF800000
FE000000
FF800000
FFE00000
1FFC0000
07FF0000
01FFE000
007FF800
000FFE00
0003FFC0
0000FFF0
00001FFC
000007FF
000001FF
0000007F
0000000F
00000003
ENDCHAR
STARTCHAR 003D
ENCODING 61
SWIDTH 570 0
DWIDTH 38 0
BBX 30 18 4 14
BITMAP
FFFFFFFC
FFFFFFFC
FFFFFFFC
FFFFFFFC
00000000
00000000
00000000
00000000
00000000
00000000
00000000
00000000
00000000
FFFFFFFC
FFFFFFFC
FFFFFFFC
FFFFFFFC
FFFFFFFC
ENDCHAR
STARTCHAR 003E
ENCODING 62
SWIDTH 570 0
DWIDTH 38 0
BBX 32 32 3 9
BITMAP
C0000000
F0000000
FC000000
FF000000
FFC00000
3FF00000
0FFC0000
03FF0000
00FFC000
003FF000
0007FE00
0001FF80
00007FE0
00001FF8
000007FE
000001FF
0000007F
000001FF
000007FF
00003FF8
0000FFE0
0003FF80
001FFE00
007FF000
03FFC000
0FFF0000
3FF80000
FFE00000
FF800000
FE000000
F0000000
C0000000
ENDCHAR
STARTCHAR 003F
ENCODING 63
SWIDTH 420 0
DWIDTH 28 0
BBX 26 49 1 -1
BITMAP
03FFC000
1FFFF800
7FFFFC00
FFFFFE00
FFFFFF00
7E007F80
78003F80
00001FC0
00000FC0
00000FC0
000007C0
000007C0
000007C0
00000FC0
00000FC0
00000FC0
00001F80
00003F80
00007F00
0000FE00
0001FC00
0003F800
0007F000
000FE000
001FC000
003F8000
003F0000
007E0000
007C0000
007C0000
00F80000
00F80000
00F80000
00F80000
00F80000
00000000
00000000
00000000
00000000
00000000
00780000
01FC0000
01FE0000
01FE0000
01FE0000
01FE0000
01FE0000
00FC0000
00780000
ENDCHAR
STARTCHAR 0040
ENCODING 64
SWIDTH 885 0
DWIDTH 59 0
BBX 52 54 4 -6
BITMAP
0000007C000000
00001FFFF00000
0000FFFFFE0000
0003FFFFFF8000
000FFFFFFFE000
001FFC003FF000
003FC00007F800
007F000001FC00
00FC000000FE00
01F80000003F00
03F00000001F00
07E00000001F80
0FC00000000FC0
0F80003E0007C0
1F0007FFF007C0
1F001FFFFC03E0
3E003FFFF803E0
3E007FFFF801E0
3E00FE00F801F0
7C00FC00F801F0
7C01F800F801F0
7C03F000F801F0
F803F000F801F0
F803E000F801F0
F803E000F801F0
F807E000F801F0
F807E000F801F0
F807C000F801F0
F807C000F801F0
F807C000F801F0
F807E001F801E0
F807E001F803E0
F803E001F803E0
F803E003F807C0
F803F003F807C0
F801F807BC0F80
7C01FF3F3F7F80
7C00FFFE3FFF00
7C007FFC1FFE00
7E003FF80FF800
3E0007C001C000
3F000000000000
1F000000000000
1F800000000000
0FC00000000000
07E00000000000
03F80000000000
01FC0000060000
00FF80007E0000
007FFF7FFE0000
003FFFFFFE0000
000FFFFFFE0000
0001FFFFF00000
00001FFE000000
ENDCHAR
STARTCHAR 0041
ENCODING 65
SWIDTH 630 0
DWIDTH 42 0
BBX 42 48 0 0
BITMAP
00003F000000
00003F800000
00003F800000
00007F800000
00007FC00000
00007FC00000
0000FFC00000
0000FBE00000
0001FBE00000
0001F3F00000
0001F3F00000
0003F1F00000
0003E1F80000
0007E1F80000
0007E0FC0000
0007C0FC0000
000FC07C0000
000FC07E0000
001F807E0000
001F803E0000
001F803F0000
003F003F0000
003F001F8000
003E001F8000
007E000F8000
007E000FC000
00FC000FC000
00FC0007E000
00FFFFFFE000
01FFFFFFE000
01FFFFFFF000
03FFFFFFF000
03FFFFFFF800
03F00001F800
07E00001F800
07E00001FC00
0FE00000FC00
0FC00000FC00
0FC000007E00
1F8000007E00
1F8000007F00
1F8000003F00
3F0000003F00
3F0000001F80
7E0000001F80
7E0000001FC0
7E0000000FC0
FC0000000FC0
ENDCHAR
STARTCHAR 0042
ENCODING 66
SWIDTH 645 0
DWIDTH 43 0
BBX 34 48 6 0
BITMAP
FFFF800000
FFFFFF0000
FFFFFFE000
FFFFFFF000
FFFFFFF800
FFFFFFFC00
FC0003FE00
FC0000FE00
FC00007F00
FC00007F00
FC00003F00
FC00003F00
FC00003F00
FC00003F00
FC00003F00
FC00003F00
FC00007E00
FC00007E00
FC0000FC00
FC0003F800
FC007FF000
FFFFFFE000
FFFFFF0000
FFFFFF8000
FFFFFFF000
FFFFFFFC00
FC0003FE00
FC0000FF00
FC00007F00
FC00003F80
FC00001F80
FC00001F80
FC00001FC0
FC00001FC0
FC00001FC0
FC00001FC0
FC00001FC0
FC00001F80
FC00003F80
FC00003F80
FC00007F00
FC0001FF00
FC0007FE00
FFFFFFFC00
FFFFFFF800
FFFFFFF000
FFFFFFC000
FFFFFC0000
ENDCHAR
STARTCHAR 0043
ENCODING 67
SWIDTH 630 0
DWIDTH 42 0
BBX 36 49 4 -1
BITMAP
0000FFFC00
0007FFFFC0
001FFFFFF0
007FFFFFF0
00FFFFFFE0
01FFC00FE0
03FF0001C0
07FC000040
0FF0000000
0FE0000000
1FC0000000
1FC0000000
3F80000000
3F80000000
7F00000000
7F00000000
7E00000000
7E00000000
FE00000000
FE00000000
FE00000000
FE00000000
FC00000000
FC00000000
FC00000000
FC00000000
FC00000000
FE00000000
FE00000000
FE00000000
7E00000000
7E00000000
7F00000000
7F00000000
7F00000000
3F80000000
3F80000000
1FC0000000
1FE0000000
0FF0000000
0FF8000000
07FC000000
03FF8003C0
01FFFFFFC0
00FFFFFFC0
003FFFFFC0
001FFFFFC0
0003FFFF00
00003F0000
ENDCHAR
STARTCHAR 0044
ENCODING 68
SWIDTH 720 0
DWIDTH 48 0
BBX 39 48 6 0
BITMAP
FFFFC00000
FFFFFF0000
FFFFFFC000
FFFFFFF000
FFFFFFFC00
FFFFFFFE00
FC0007FF00
FC0000FF80
FC00003FC0
FC00001FE0
FC00000FF0
FC000007F0
FC000003F8
FC000003F8
FC000001F8
FC000001FC
FC000001FC
FC000000FC
FC000000FC
FC000000FC
FC000000FC
FC000000FE
FC000000FE
FC000000FE
FC000000FE
FC000000FE
FC000000FE
FC000000FC
FC000000FC
FC000000FC
FC000000FC
FC000001FC
FC000001FC
FC000001F8
FC000003F8
FC000003F0
FC000007F0
FC00000FE0
FC00001FE0
FC00003FC0
FC0000FF80
FC0003FF00
FC003FFE00
FFFFFFFC00
FFFFFFF800
FFFFFFE000
FFFFFF0000
FFFFF00000
ENDCHAR
STARTCHAR 0045
ENCODING 69
SWIDTH 555 0
DWIDTH 37 0
BBX 27 48 6 0
BITMAP
FFFFFFE0
FFFFFFE0
FFFFFFE0
FFFFFFE0
FFFFFFE0
FFFFFFE0
FC000000
FC000000
FC000000
FC000000
FC000000
FC000000
FC000000
FC000000
FC000000
FC000000
FC000000
FC000000
FC000000
FC000000
FC000000
FFFFFFC0
FFFFFFC0
FFFFFFC0
FFFFFFC0
FFFFFFC0
FC000000
FC000000
FC000000
FC000000
FC000000
FC000000
FC000000
FC000000
FC000000
FC000000
FC000000
FC000000
FC000000
FC000000
FC000000
FC000000
FC000000
FFFFFFE0
FFFFFFE0
FFFFFFE0
FFFFFFE0
FFFFFFE0
ENDCHAR
STARTCHAR 0046
ENCODING 70
SWIDTH 510 0
DWIDTH 34 0
BBX 27 48 6 0
BITMAP
FFFFFFE0
FFFFFFE0
FFFFFFE0
FFFFFFE0
FFFFFFE0
FFFFFFE0
FC000000
FC000000
FC000000
FC000000
FC000000
FC000000
FC000000
FC000000
FC000000
FC000000
FC000000
FC000000
FC000000
FC000000
FC000000
FC000000
FC000000
FFFFFFC0
FFFFFFC0
FFFFFFC0
FFFFFFC0
FFFFFFC0
FC000000
FC000000
FC000000
FC000000
FC000000
FC000000
FC000000
FC000000
FC000000
FC000000
FC000000
FC000000
FC000000
FC000000
FC000000
FC000000
FC000000
FC000000
FC000000
FC000000
ENDCHAR
STARTCHAR 0047
ENCODING 71
SWIDTH 720 0
DWIDTH 48 0
BBX 40 49 4 -1
BITMAP
00007FFF00
0003FFFFF0
000FFFFFFE
003FFFFFFE
007FFFFFFC
00FFF003FC
03FF000078
03FC000008
07F8000000
0FF0000000
1FE0000000
1FC0000000
3F80000000
3F80000000
3F00000000
7F00000000
7E00000000
7E00000000
7E00000000
FE00000000
FE00000000
FC00000000
FC00000000
FC0001FFFF
FC0001FFFF
FC0001FFFF
FC0001FFFF
FC0001FFFF
FE0000003F
FE0000003F
7E0000003F
7E0000003F
7F0000003F
7F0000003F
3F0000003F
3F8000003F
3F8000003F
1FC000003F
1FE000003F
0FF000003F
07F800003F
07FE00003F
03FF80007F
01FFFFFFFF
007FFFFFFF
003FFFFFFF
000FFFFFFE
0003FFFFE0
00001FF000
ENDCHAR
STARTCHAR 0048
ENCODING 72
SWIDTH 735 0
DWIDTH 49 0
BBX 37 48 6 0
BITMAP
FC000001F8
FC000001F8
FC000001F8
FC000001F8
FC000001F8
FC000001F8
FC000001F8
FC000001F8
FC000001F8
FC000001F8
FC000001F8
FC000001F8
FC000001F8
FC000001F8
FC000001F8
FC000001F8
FC000001F8
FC000001F8
FC000001F8
FC000001F8
FC000001F8
FFFFFFFFF8
FFFFFFFFF8
FFFFFFFFF8
FFFFFFFFF8
FFFFFFFFF8
FC000001F8
FC000001F8
FC000001F8
FC000001F8
FC000001F8
FC000001F8
FC000001F8
FC000001F8
FC000001F8
FC000001F8
FC000001F8
FC000001F8
FC000001F8
FC000001F8
FC000001F8
FC000001F8
FC000001F8
FC000001F8
FC000001F8
FC000001F8
FC000001F8
FC000001F8
ENDCHAR
STARTCHAR 0049
ENCODING 73
SWIDTH 330 0
DWIDTH 22 0
BBX 17 48 3 0
BITMAP
FFFF80
FFFF80
FFFF80
FFFF80
3FFC00
07E000
07E000
07E000
07E000
07E000
07E000
07E000
07E000
07E000
07E000
07E000
07E000
07E000
07E000
07E000
07E000
07E000
07E000
07E000
07E000
07E000
07E000
07E000
07E000
07E000
07E000
07E000
07E000
07E000
07E000
07E000
07E000
07E000
07E000
07E000
07E000
07E000
07E000
0FF000
FFFF80
FFFF80
FFFF80
FFFF80
ENDCHAR
STARTCHAR 004A
ENCODING 74
SWIDTH 270 0
DWIDTH 18 0
BBX 17 61 -5 -13
BITMAP
001F80
001F80
001F80
001F80
001F80
001F80
001F80
001F80
001F80
001F80
001F80
001F80
001F80
001F80
001F80
001F80
001F80
001F80
001F80
001F80
001F80
001F80
001F80
001F80
001F80
001F80
001F80
001F80
001F80
001F80
001F80
001F80
001F80
001F80
001F80
001F80
001F80
001F80
001F80
001F80
001F80
001F80
001F80
001F80
001F80
001F80
001F80
001F80
001F80
001F80
001F80
001F80
003F80
007F00
00FF00
FFFE00
FFFE00
FFFC00
FFF000
FFE000
1E0000
ENDCHAR
STARTCHAR 004B
ENCODING 75
SWIDTH 615 0
DWIDTH 41 0
BBX 35 48 6 0
BITMAP
FC00001FC0
FC00001FC0
FC00003F80
FC00007F00
FC0000FE00
FC0001FC00
FC0003F800
FC0007F000
FC000FE000
FC001FC000
FC003F8000
FC003F0000
FC007F0000
FC00FE0000
FC01FC0000
FC03F80000
FC07F00000
FC0FE00000
FC1FC00000
FC3F800000
FC7F000000
FC7F000000
FCFF800000
FDFF800000
FFFFC00000
FFFFE00000
FFCFF00000
FF87F00000
FF03F80000
FE03FC0000
FC01FC0000
FC00FE0000
FC007F0000
FC007F8000
FC003F8000
FC001FC000
FC000FE000
FC000FF000
FC0007F000
FC0003F800
FC0001FC00
FC0001FE00
FC0000FE00
FC00007F00
FC00003F80
FC00003F80
FC00001FC0
FC00000FE0
ENDCHAR
STARTCHAR 004C
ENCODING 76
SWIDTH 510 0
DWIDTH 34 0
BBX 27 48 6 0
BITMAP
FC000000
FC000000
FC000000
FC000000
FC000000
FC000000
FC000000
FC000000
FC000000
FC000000
FC000000
FC000000
FC000000
FC000000
FC000000
FC000000
FC000000
FC000000
FC000000
FC000000
FC000000
FC000000
FC000000
FC000000
FC000000
FC000000
FC000000
FC000000
FC000000
FC000000
FC000000
FC000000
FC000000
FC000000
FC000000
FC000000
FC000000
FC000000
FC000000
FC000000
FC000000
FC000000
FC000000
FFFFFFE0
FFFFFFE0
FFFFFFE0
FFFFFFE0
FFFFFFE0
ENDCHAR
STARTCHAR 004D
ENCODING 77
SWIDTH 900 0
DWIDTH 60 0
BBX 48 48 6 0
BITMAP
FF80000001FF
FFC0000001FF
FFC0000003FF
FFE0000003FF
FFE0000003FF
FFE0000007FF
FFF0000007FF
FFF000000FFF
FDF000000FBF
FDF800000FBF
FDF800001FBF
FCFC00001F3F
FCFC00001F3F
FC7C00003F3F
FC7E00003E3F
FC7E00007E3F
FC3E00007C3F
FC3F00007C3F
FC3F0000FC3F
FC1F8000F83F
FC1F8001F83F
FC0F8001F83F
FC0FC001F03F
FC0FC003F03F
FC07C003E03F
FC07E003E03F
FC07E007E03F
FC03F007C03F
FC03F00FC03F
FC01F00F803F
FC01F80F803F
FC01F81F803F
FC00F81F003F
FC00FC1F003F
FC00FC3F003F
FC007E3E003F
FC007E7E003F
FC003E7C003F
FC003F7C003F
FC003FFC003F
FC001FF8003F
FC001FF8003F
FC001FF8003F
FC000FF0003F
FC000FF0003F
FC0007E0003F
FC0007E0003F
FC0007E0003F
ENDCHAR
STARTCHAR 004E
ENCODING 78
SWIDTH 750 0
DWIDTH 50 0
BBX 38 48 6 0
BITMAP
FE0000007C
FF0000007C
FF8000007C
FF8000007C
FFC000007C
FFE000007C
FFE000007C
FFF000007C
FBF800007C
FFF800007C
FDFC00007C
FCFE00007C
FCFE00007C
FC7F00007C
FC3F80007C
FC3F80007C
FC1FC0007C
FC0FC0007C
FC0FE0007C
FC07F0007C
FC07F0007C
FC03F8007C
FC01FC007C
FC01FC007C
FC00FE007C
FC007F007C
FC007F007C
FC003F807C
FC001FC07C
FC001FC07C
FC000FE07C
FC0007E07C
FC0007F07C
FC0003F87C
FC0003F87C
FC0001FC7C
FC0000FE7C
FC0000FE7C
FC00007F7C
FC00003FFC
FC00003FFC
FC00001FFC
FC00000FFC
FC00000FFC
FC000007FC
FC000003FC
FC000003FC
FC000001FC
ENDCHAR
STARTCHAR 004F
ENCODING 79
SWIDTH 780 0
DWIDTH 52 0
BBX 44 49 4 -1
BITMAP
0001FFF80000
000FFFFF0000
003FFFFFC000
007FFFFFE000
01FFFFFFF800
03FF801FFC00
07FC0003FE00
07F80001FE00
0FF000007F00
1FE000007F80
1FC000003F80
3F8000001FC0
3F8000001FC0
3F0000000FC0
7F0000000FE0
7F00000007E0
7E00000007E0
7E00000007E0
FE00000007F0
FE00000007F0
FE00000007F0
FC00000003F0
FC00000003F0
FC00000003F0
FC00000003F0
FC00000003F0
FC00000003F0
FE00000003F0
FE00000007F0
FE00000007F0
7E00000007E0
7E00000007E0
7E00000007E0
7F0000000FE0
3F0000000FC0
3F8000000FC0
3F8000001FC0
1FC000003F80
1FC000003F80
0FE000007F00
0FF00000FE00
07FC0003FE00
03FF000FFC00
01FFFFFFF800
00FFFFFFF000
003FFFFFC000
001FFFFF0000
0003FFFC0000
00001F800000
ENDCHAR
STARTCHAR 0050
ENCODING 80
SWIDTH 600 0
DWIDTH 40 0
BBX 31 48 6 0
BITMAP
FFFE0000
FFFFFC00
FFFFFF00
FFFFFFC0
FFFFFFE0
FFFFFFF0
FC001FF8
FC0007F8
FC0001FC
FC0001FC
FC0000FE
FC0000FE
FC00007E
FC00007E
FC00007E
FC00007E
FC00007E
FC0000FE
FC0000FC
FC0000FC
FC0001FC
FC0003F8
FC0007F8
FC003FF0
FFFFFFE0
FFFFFFC0
FFFFFF80
FFFFFE00
FFFFF000
FC000000
FC000000
FC000000
FC000000
FC000000
FC000000
FC000000
FC000000
FC000000
FC000000
FC000000
FC000000
FC000000
FC000000
FC000000
FC000000
FC000000
FC000000
FC000000
ENDCHAR
STARTCHAR 0051
ENCODING 81
SWIDTH 780 0
DWIDTH 52 0
BBX 44 59 4 -11
BITMAP
0001FFF80000
000FFFFF0000
003FFFFFC000
007FFFFFE000
01FFFFFFF800
03FF801FFC00
07FC0003FE00
07F80001FE00
0FF000007F00
1FE000007F80
1FC000003F80
3F8000001FC0
3F8000001FC0
3F0000000FC0
7F0000000FE0
7F00000007E0
7E00000007E0
7E00000007E0
FE00000007F0
FE00000007F0
FE00000007F0
FC00000003F0
FC00000003F0
FC00000003F0
FC00000003F0
FC00000003F0
FC00000003F0
FE00000003F0
FE00000007F0
FE00000007F0
7E00000007E0
7E00000007E0
7E00000007E0
7F0000000FE0
3F0000000FC0
3F8000000FC0
3F8000001FC0
1FC000003F80
1FC000003F80
0FE000007F00
0FF00000FF00
07FC0003FE00
03FF000FFC00
01FFFFFFF800
00FFFFFFF000
003FFFFFC000
001FFFFF0000
0003FFFC0000
00001FFE0000
0000007F0000
0000007F8000
0000003FC000
0000001FE000
0000000FF000
00000007F800
00000003FC00
00000001FE00
00000001FF00
00000000FF80
ENDCHAR
STARTCHAR 0052
ENCODING 82
SWIDTH 615 0
DWIDTH 41 0
BBX 34 48 6 0
BITMAP
FFFF800000
FFFFFC0000
FFFFFF8000
FFFFFFC000
FFFFFFF000
FFFFFFF000
FC000FF800
FC0003FC00
FC0001FC00
FC0000FC00
FC0000FE00
FC0000FE00
FC00007E00
FC00007E00
FC00007E00
FC00007E00
FC00007E00
FC0000FE00
FC0000FC00
FC0001FC00
FC0001F800
FC0007F800
FC001FF000
FFFFFFE000
FFFFFFC000
FFFFFF0000
FFFFFC0000
FFFFFC0000
FC00FE0000
FC007E0000
FC007F0000
FC003F0000
FC003F8000
FC001FC000
FC000FC000
FC000FE000
FC0007E000
FC0007F000
FC0003F800
FC0003F800
FC0001FC00
FC0000FC00
FC0000FE00
FC00007F00
FC00007F00
FC00003F80
FC00001FC0
FC00001FC0
ENDCHAR
STARTCHAR 0053
ENCODING 83
SWIDTH 540 0
DWIDTH 36 0
BBX 30 49 3 -1
BITMAP
003FFF00
00FFFFE0
03FFFFF8
07FFFFF8
0FFFFFF8
1FF007F0
3FC00070
3F800000
7F000000
7E000000
7E000000
7E000000
7E000000
7E000000
7E000000
7F000000
3F000000
3F800000
1FE00000
1FF80000
0FFE0000
07FF8000
03FFF000
00FFFC00
003FFF00
000FFFC0
0001FFE0
00007FF0
00001FF8
000007F8
000003FC
000001FC
000000FC
000000FC
000000FC
000000FC
000000FC
000000FC
000000FC
000001FC
000001F8
E00003F8
FC000FF0
FFFFFFF0
FFFFFFE0
FFFFFF80
7FFFFF00
1FFFF800
007F0000
ENDCHAR
STARTCHAR 0054
ENCODING 84
SWIDTH 555 0
DWIDTH 37 0
BBX 35 48 1 0
BITMAP
FFFFFFFFE0
FFFFFFFFE0
FFFFFFFFE0
FFFFFFFFE0
FFFFFFFFE0
FFFFFFFFE0
0001F80000
0001F80000
0001F80000
0001F80000
0001F80000
0001F80000
0001F80000
0001F80000
0001F80000
0001F80000
0001F80000
0001F80000
0001F80000
0001F80000
0001F80000
0001F80000
0001F80000
0001F80000
0001F80000
0001F80000
0001F80000
0001F80000
0001F80000
0001F80000
0001F80000
0001F80000
0001F80000
0001F80000
0001F80000
0001F80000
0001F80000
0001F80000
0001F80000
0001F80000
0001F80000
0001F80000
0001F80000
0001F80000
0001F80000
0001F80000
0001F80000
0001F80000
ENDCHAR
STARTCHAR 0055
ENCODING 85
SWIDTH 720 0
DWIDTH 48 0
BBX 37 49 6 -1
BITMAP
FC000001F8
FC000001F8
FC000001F8
FC000001F8
FC000001F8
FC000001F8
FC000001F8
FC000001F8
FC000001F8
FC000001F8
FC000001F8
FC000001F8
FC000001F8
FC000001F8
FC000001F8
FC000001F8
FC000001F8
FC000001F8
FC000001F8
FC000001F8
FC000001F8
FC000001F8
FC000001F8
FC000001F8
FC000001F8
FC000001F8
FC000001F8
FC000001F8
FC000001F8
FC000001F8
FC000001F8
FC000001F8
FC000001F8
FC000001F8
FC000003F0
FC000003F0
7E000003F0
7E000007F0
7F000007E0
3F00000FE0
3F80001FC0
1FE0003FC0
1FF800FF80
0FFFFFFF00
07FFFFFE00
03FFFFFC00
00FFFFF000
003FFFC000
0000FC0000
ENDCHAR
STARTCHAR 0056
ENCODING 86
SWIDTH 600 0
DWIDTH 40 0
BBX 40 48 0 0
BITMAP
FC0000003F
FE0000007F
7E0000007E
7E0000007E
7F000000FE
3F000000FC
3F000000FC
1F800001F8
1F800001F8
1F800003F8
0FC00003F0
0FC00003F0
0FE00007F0
07E00007E0
07E00007E0
07F0000FE0
03F0000FC0
03F0000FC0
03F8001FC0
01F8001F80
01F8001F80
00FC003F00
00FC003F00
00FC003F00
007E007E00
007E007E00
007E00FE00
003F00FC00
003F00FC00
003F01FC00
001F81F800
001F81F800
001FC3F800
000FC3F000
000FC3F000
0007E7E000
0007E7E000
0007E7E000
0003E7C000
0003FFC000
0003FFC000
0001FF8000
0001FF8000
0001FF8000
0000FF0000
0000FF0000
0000FF0000
00007E0000
ENDCHAR
STARTCHAR 0057
ENCODING 87
SWIDTH 930 0
DWIDTH 62 0
BBX 60 48 1 0
BITMAP
FC00001F800003F0
FC00003F800003F0
FE00003FC00007F0
7E00003FC00007E0
7E00007FC00007E0
7E00007FC00007E0
7F00007FE0000FE0
3F00007FE0000FC0
3F0000FFE0000FC0
3F0000FBF0000FC0
3F8000FBF0001F80
1F8001F9F0001F80
1F8001F9F8001F80
1F8001F1F8001F80
0FC001F1F8003F00
0FC003F0F8003F00
0FC003F0FC003F00
0FC003E0FC003F00
07E007E07C007E00
07E007E07E007E00
07E007C07E007E00
07E00FC03E007E00
03F00FC03F00FC00
03F00FC03F00FC00
03F00F803F00FC00
03F01F801F00F800
01F81F801F81F800
01F81F001F81F800
01F83F000F81F800
00F83F000FC3F000
00FC3F000FC3F000
00FC3E000FC3F000
00FC7E0007C3F000
007C7E0007E3E000
007E7C0007E7E000
007E7C0003E7E000
007EFC0003E7E000
003EFC0003F7C000
003EF80001F7C000
003FF80001FFC000
003FF80001FF8000
001FF00001FF8000
001FF00000FF8000
001FF00000FF8000
001FF00000FF0000
000FE000007F0000
000FE000007F0000
000FE000007F0000
ENDCHAR
STARTCHAR 0058
ENCODING 88
SWIDTH 585 0
DWIDTH 39 0
BBX 37 48 1 0
BITMAP
FE000003F8
7F000003F0
3F000007E0
3F80000FE0
1FC0000FC0
0FC0001F80
0FE0003F80
07E0003F00
03F0007E00
03F8007E00
01F800FC00
01FC01F800
00FE01F800
007E03F000
007F07F000
003F07E000
001F8FC000
001FCFC000
000FDF8000
0007FF0000
0007FF0000
0003FE0000
0001FC0000
0001FC0000
0003FE0000
0003FE0000
0007FF0000
000FDF8000
000FDF8000
001F8FC000
003F0FE000
003F07E000
007E03F000
00FE03F800
00FC01F800
01F801FC00
01F800FC00
03F0007E00
07E0007F00
07E0003F00
0FC0003F80
1FC0001FC0
1F80000FC0
3F00000FE0
7F000007F0
7E000007F0
FE000003F8
FC000001F8
ENDCHAR
STARTCHAR 0059
ENCODING 89
SWIDTH 555 0
DWIDTH 37 0
BBX 38 48 0 0
BITMAP
FE000001FC
7E000001F8
7F000003F8
3F000003F0
3F800007F0
1F800007E0
1FC0000FC0
0FC0001FC0
0FE0001F80
07E0003F80
07F0003F00
03F0007F00
01F8007E00
01F800FE00
00FC00FC00
00FE01FC00
007E01F800
007F03F000
003F03F000
003F87E000
001F87E000
001FCFC000
000FCFC000
000FFF8000
0007FF8000
0003FF0000
0003FF0000
0001FE0000
0001FC0000
0000FC0000
0000FC0000
0000FC0000
0000FC0000
0000FC0000
0000FC0000
0000FC0000
0000FC0000
0000FC0000
0000FC0000
0000FC0000
0000FC0000
0000FC0000
0000FC0000
0000FC0000
0000FC0000
0000FC0000
0000FC0000
0000FC0000
ENDCHAR
STARTCHAR 005A
ENCODING 90
SWIDTH 570 0
DWIDTH 38 0
BBX 33 48 3 0
BITMAP
FFFFFFFF00
FFFFFFFF00
FFFFFFFF00
FFFFFFFF00
FFFFFFFF00
FFFFFFFF00
000000FE00
000001FC00
000001FC00
000003F800
000007F000
000007F000
00000FE000
00001FC000
00001FC000
00003F8000
00007F0000
00007F0000
0000FE0000
0001FC0000
0001FC0000
0003F80000
0007F00000
0007F00000
000FE00000
001FC00000
001FC00000
003F800000
007F000000
007F000000
00FE000000
01FC000000
01FC000000
03F8000000
07F0000000
07F0000000
0FE0000000
1FC0000000
1FC0000000
3F80000000
7F00000000
7F00000000
FE00000000
FFFFFFFF80
FFFFFFFF80
FFFFFFFF80
FFFFFFFF80
FFFFFFFF80
ENDCHAR
STARTCHAR 005B
ENCODING 91
SWIDTH 315 0
DWIDTH 21 0
BBX 15 59 5 -11
BITMAP
FFFE
FFFE
FFFE
FFFE
FFFE
FC00
FC00
FC00
FC00
FC00
FC00
FC00
FC00
FC00
FC00
FC00
FC00
FC00
FC00
FC00
FC00
FC00
FC00
FC00
FC00
FC00
FC00
FC00
FC00
FC00
FC00
FC00
FC00
FC00
FC00
FC00
FC00
FC00
FC00
FC00
FC00
FC00
FC00
FC00
FC00
FC00
FC00
FC00
FC00
FC00
FC00
FC00
FC00
FC00
FFFE
FFFE
FFFE
FFFE
FFFE
ENDCHAR
STARTCHAR 005C
ENCODING 92
SWIDTH 360 0
DWIDTH 24 0
BBX 23 48 1 0
BITMAP
F80000
FC0000
FC0000
7E0000
7E0000
3E0000
3F0000
3F0000
1F0000
1F8000
1F8000
0FC000
0FC000
07C000
07E000
07E000
03E000
03F000
03F000
01F800
01F800
00F800
00FC00
00FC00
007C00
007E00
007E00
003F00
003F00
001F00
001F80
001F80
000F80
000FC0
000FC0
0007E0
0007E0
0007E0
0003F0
0003F0
0001F0
0001F8
0001F8
0000FC
0000FC
0000FC
00007E
00007E
ENDCHAR
STARTCHAR 005D
ENCODING 93
SWIDTH 315 0
DWIDTH 21 0
BBX 15 59 2 -11
BITMAP
FFFE
FFFE
FFFE
FFFE
FFFE
007E
007E
007E
007E
007E
007E
007E
007E
007E
007E
007E
007E
007E
007E
007E
007E
007E
007E
007E
007E
007E
007E
007E
007E
007E
007E
007E
007E
007E
007E
007E
007E
007E
007E
007E
007E
007E
007E
007E
007E
007E
007E
007E
007E
007E
007E
007E
007E
007E
FFFE
FFFE
FFFE
FFFE
FFFE
ENDCHAR
STARTCHAR 005E
ENCODING 94
SWIDTH 570 0
DWIDTH 38 0
BBX 32 30 3 18
BITMAP
00078000
0007C000
0007C000
000FE000
000FE000
001FF000
001EF000
003EF800
003C7800
007C7C00
007C3C00
00F83E00
00F81E00
01F01F00
01F00F00
03E00F80
03E007C0
07C007C0
07C003E0
07C003E0
0F8001F0
0F8001F0
1F0000F8
1F0000F8
3E00007C
3E00007C
7C00003E
7C00003E
FC00001F
F800001F
ENDCHAR
STARTCHAR 005F
ENCODING 95
SWIDTH 435 0
DWIDTH 29 0
BBX 30 4 0 -10
BITMAP
FFFFFFFC
FFFFFFFC
FFFFFFFC
FFFFFFFC
ENDCHAR
STARTCHAR 0060
ENCODING 96
SWIDTH 270 0
DWIDTH 18 0
BBX 13 11 3 40
BITMAP
FE00
FF00
7F00
3F80
1F80
0FC0
07E0
03E0
01F0
00F8
0078
ENDCHAR
STARTCHAR 0061
ENCODING 97
SWIDTH 555 0
DWIDTH 37 0
BBX 29 37 3 -1
BITMAP
003FFC00
01FFFF80
0FFFFFC0
0FFFFFE0
07FC7FE0
07C00FF0
020003F0
000003F8
000001F8
000001F8
000001F8
000001F8
000001F8
000001F8
000003F8
003FFFF8
01FFFFF8
07FFFFF8
1FFFFFF8
3FF001F8
3F8001F8
7F0001F8
7E0001F8
FE0001F8
FC0001F8
FC0001F8
FC0003F8
FC0003F8
FE0007F8
FE000FF8
7F001FF8
7FC0FEF8
3FFFFCF8
1FFFF8F8
0FFFF0F8
07FFC078
00780000
ENDCHAR
STARTCHAR 0062
ENCODING 98
SWIDTH 615 0
DWIDTH 41 0
BBX 31 52 6 -1
BITMAP
FC000000
FC000000
FC000000
FC000000
FC000000
FC000000
FC000000
FC000000
FC000000
FC000000
FC000000
FC000000
FC000000
FC000000
FC000000
F81FFC00
F87FFF00
F8FFFF80
F9FFFFE0
FBFFFFE0
FFE00FF0
FF8003F8
FF0001F8
FE0001FC
FE0000FC
FC0000FC
FC0000FE
FC00007E
FC00007E
FC00007E
FC00007E
FC00007E
FC00007E
FC00007E
FC00007E
FC00007E
FC00007E
FC00007E
FC00007E
FC00007E
FC0000FE
FE0000FC
FE0001FC
FF0001FC
FF8003F8
FFC007F0
FBF83FF0
FBFFFFE0
F9FFFFC0
F07FFF00
F03FFE00
0001C000
ENDCHAR
STARTCHAR 0063
ENCODING 99
SWIDTH 480 0
DWIDTH 32 0
BBX 26 37 4 -1
BITMAP
003FFE00
00FFFFC0
03FFFF80
07FFFF80
0FFFFF80
1FF00700
3FC00000
3F800000
7F000000
7E000000
7E000000
FE000000
FC000000
FC000000
FC000000
FC000000
FC000000
FC000000
FC000000
FC000000
FC000000
FC000000
FC000000
FC000000
FE000000
7E000000
7E000000
7F000000
3F800000
3FC00000
1FE00180
0FFE3F80
0FFFFF80
03FFFF80
01FFFF80
007FFF00
0003E000
ENDCHAR
STARTCHAR 0064
ENCODING 100
SWIDTH 615 0
DWIDTH 41 0
BBX 31 52 4 -1
BITMAP
0000007E
0000007E
0000007E
0000007E
0000007E
0000007E
0000007E
0000007E
0000007E
0000007E
0000007E
0000007E
0000007E
0000007E
0000007E
007FF07E
01FFFC3E
03FFFE3E
0FFFFF3E
0FFEFFBE
1FE00FFE
3FC003FE
3F8001FE
7F0000FE
7E0000FE
7E0000FE
FE00007E
FC00007E
FC00007E
FC00007E
FC00007E
FC00007E
FC00003E
FC00003E
FC00003E
FC00007E
FC00007E
FC00007E
FC00007E
FC00007E
FE00007E
7E0000FE
7F0000FE
7F0001FE
3F8001FE
1FC007FE
1FF83FBE
0FFFFF3E
07FFFE3E
03FFFC3E
00FFF01E
000F0000
ENDCHAR
STARTCHAR 0065
ENCODING 101
SWIDTH 555 0
DWIDTH 37 0
BBX 30 37 4 -1
BITMAP
003FF800
00FFFE00
03FFFF80
07FFFFC0
0FFC7FE0
1FE00FE0
1F8007F0
3F0003F8
3F0001F8
7E0001F8
7E0001FC
FC0000FC
FC0000FC
FC0000FC
FC0000FC
FFFFFFFC
FFFFFFFC
FFFFFFFC
FFFFFFFC
FC000000
FC000000
FC000000
FC000000
FC000000
FE000000
7E000000
7E000000
7F000000
3F800000
3FC00008
1FF00078
0FFE0FF8
07FFFFF8
03FFFFF8
00FFFFF0
003FFF80
0003F800
ENDCHAR
STARTCHAR 0066
ENCODING 102
SWIDTH 330 0
DWIDTH 22 0
BBX 25 51 1 0
BITMAP
0003FC00
001FFF80
003FFF00
007FFF00
00FFFF00
00FE0200
01FC0000
01F80000
01F80000
03F00000
03F00000
03F00000
03F00000
03F00000
03F00000
07FFF800
3FFFF800
FFFFF800
FFFFF800
FFFFF800
03F00000
03F00000
03F00000
03F00000
03F00000
03F00000
03F00000
03F00000
03F00000
03F00000
03F00000
03F00000
03F00000
03F00000
03F00000
03F00000
03F00000
03F00000
03F00000
03F00000
03F00000
03F00000
03F00000
03F00000
03F00000
03F00000
03F00000
03F00000
03F00000
03F00000
03F00000
ENDCHAR
STARTCHAR 0067
ENCODING 103
SWIDTH 615 0
DWIDTH 41 0
BBX 31 52 4 -16
BITMAP
007FF01E
01FFFC3E
03FFFE3E
07FFFF3E
0FFFFFBE
1FE00FFE
3FC003FE
3F8001FE
7F0000FE
7E0000FE
7E00007E
FE00007E
FC00007E
FC00007E
FC00007E
FC00007E
FC00003E
FC00003E
FC00003E
FC00003E
FC00003E
FC00003E
FC00007E
FC00007E
FC00007E
FE00007E
7E00007E
7F0000FE
3F0001FE
3F8001FE
1FC007FE
1FF81FBE
0FFFFFBE
07FFFF3E
03FFFC3E
00FFF03E
0007003E
0000003E
0000007E
0000007E
0000007E
0000007E
000000FE
000000FC
200001FC
380003F8
3F800FF8
3FFFFFF0
3FFFFFE0
3FFFFFC0
0FFFFF00
00FFF800
ENDCHAR
STARTCHAR 0068
ENCODING 104
SWIDTH 615 0
DWIDTH 41 0
BBX 30 51 6 0
BITMAP
FC000000
FC000000
FC000000
FC000000
FC000000
FC000000
FC000000
FC000000
FC000000
FC000000
FC000000
FC000000
FC000000
FC000000
FC000000
FC0FFE00
FC7FFF80
F8FFFFC0
F9FFFFE0
FBFFFFF0
FFE00FF0
FF8003F8
FF0001F8
FE0001F8
FE0000FC
FC0000FC
FC0000FC
FC0000FC
FC0000FC
FC0000FC
FC0000FC
FC0000FC
FC0000FC
FC0000FC
FC0000FC
FC0000FC
FC0000FC
FC0000FC
FC0000FC
FC0000FC
FC0000FC
FC0000FC
FC0000FC
FC0000FC
FC0000FC
FC0000FC
FC0000FC
FC0000FC
FC0000FC
FC0000FC
FC0000FC
ENDCHAR
STARTCHAR 0069
ENCODING 105
SWIDTH 255 0
DWIDTH 17 0
BBX 7 49 5 0
BITMAP
3C
7E
FE
FE
FE
7E
7C
00
00
00
00
00
00
7E
7E
7E
7E
7E
7E
7E
7E
7E
7E
7E
7E
7E
7E
7E
7E
7E
7E
7E
7E
7E
7E
7E
7E
7E
7E
7E
7E
7E
7E
7E
7E
7E
7E
7E
7E
ENDCHAR
STARTCHAR 006A
ENCODING 106
SWIDTH 255 0
DWIDTH 17 0
BBX 16 65 -4 -16
BITMAP
001E
003F
007F
007F
007F
003F
003E
0000
0000
0000
0000
0000
0000
003F
003F
003F
003F
003F
003F
003F
003F
003F
003F
003F
003F
003F
003F
003F
003F
003F
003F
003F
003F
003F
003F
003F
003F
003F
003F
003F
003F
003F
003F
003F
003F
003F
003F
003F
003F
003F
003F
003F
003F
003F
003F
003F
007E
007E
007E
00FE
FFFC
FFFC
FFF8
FFF0
7F80
ENDCHAR
STARTCHAR 006B
ENCODING 107
SWIDTH 525 0
DWIDTH 35 0
BBX 29 51 6 0
BITMAP
F8000000
F8000000
F8000000
F8000000
F8000000
F8000000
F8000000
F8000000
F8000000
F8000000
F8000000
F8000000
F8000000
F8000000
F8000000
F80007F0
F8000FE0
F8001FC0
F8003F80
F8007F00
F800FE00
F801FC00
F803F800
F807F000
F80FE000
F81FC000
F81F8000
F83F0000
F87E0000
F8FE0000
F9FC0000
FBFC0000
FBFE0000
FFFF0000
FFBF8000
FF3F8000
FE1FC000
FC0FE000
F807F000
F807F000
F803F800
F801FC00
F800FE00
F800FE00
F8007F00
F8003F80
F8001FC0
F8001FC0
F8000FE0
F80007F0
F80003F8
ENDCHAR
STARTCHAR 006C
ENCODING 108
SWIDTH 255 0
DWIDTH 17 0
BBX 6 51 6 0
BITMAP
FC
FC
FC
FC
FC
FC
FC
FC
FC
FC
FC
FC
FC
FC
FC
FC
FC
FC
FC
FC
FC
FC
FC
FC
FC
FC
FC
FC
FC
FC
FC
FC
FC
FC
FC
FC
FC
FC
FC
FC
FC
FC
FC
FC
FC
FC
FC
FC
FC
FC
FC
ENDCHAR
STARTCHAR 006D
ENCODING 109
SWIDTH 930 0
DWIDTH 62 0
BBX 51 36 6 0
BITMAP
F01FFC003FF800
F87FFF01FFFC00
F8FFFF83FFFF00
F9FFFFC7FFFF80
FBFFFFEFFFFF80
FFC01FFF803FC0
FF800FFE001FC0
FF0007FC000FC0
FE0003FC000FE0
FE0003F80007E0
FC0003F80007E0
FC0003F80007E0
FC0003F00007E0
FC0003F00007E0
FC0003F00007E0
FC0003F00007E0
FC0003F00007E0
FC0003F00007E0
FC0003F00007E0
FC0003F00007E0
FC0003F00007E0
FC0003F00007E0
FC0003F00007E0
FC0003F00007E0
FC0003F00007E0
FC0003F00007E0
FC0003F00007E0
FC0003F00007E0
FC0003F00007E0
FC0003F00007E0
FC0003F00007E0
FC0003F00007E0
FC0003F00007E0
FC0003F00007E0
FC0003F00007E0
FC0003F00007E0
ENDCHAR
STARTCHAR 006E
ENCODING 110
SWIDTH 615 0
DWIDTH 41 0
BBX 30 36 6 0
BITMAP
F00FFE00
F87FFF80
F8FFFFC0
F9FFFFE0
FBFFFFF0
FFE00FF0
FF8003F8
FF0001F8
FE0001F8
FE0000FC
FC0000FC
FC0000FC
FC0000FC
FC0000FC
FC0000FC
FC0000FC
FC0000FC
FC0000FC
FC0000FC
FC0000FC
FC0000FC
FC0000FC
FC0000FC
FC0000FC
FC0000FC
FC0000FC
FC0000FC
FC0000FC
FC0000FC
FC0000FC
FC0000FC
FC0000FC
FC0000FC
FC0000FC
FC0000FC
FC0000FC
ENDCHAR
STARTCHAR 006F
ENCODING 111
SWIDTH 600 0
DWIDTH 40 0
BBX 33 37 4 -1
BITMAP
003FFC0000
00FFFF0000
03FFFFC000
07FFFFE000
0FFFFFF000
1FE007F800
3FC001FC00
3F8000FC00
7F0000FE00
7E00007E00
7E00007F00
FE00003F00
FC00003F00
FC00003F00
FC00003F80
FC00001F80
FC00001F80
FC00001F80
FC00001F80
FC00001F80
FC00001F80
FC00003F80
FC00003F00
FC00003F00
FE00003F00
7E00007F00
7E00007E00
7F00007E00
3F8000FE00
1F8001FC00
1FE003F800
0FF81FF800
07FFFFF000
03FFFFC000
00FFFF8000
003FFE0000
0007C00000
ENDCHAR
STARTCHAR 0070
ENCODING 112
SWIDTH 615 0
DWIDTH 41 0
BBX 31 52 6 -16
BITMAP
F81FFC00
F87FFF00
F8FFFFC0
F9FFFFE0
FBFFFFF0
FFE00FF0
FF8007F8
FF0003F8
FE0001FC
FE0000FC
FC0000FC
FC0000FE
FC00007E
FC00007E
FC00007E
FC00007E
FC00007E
FC00007E
FC00007E
FC00007E
FC00007E
FC00007E
FC00007E
FC00007E
FC0000FE
FC0000FC
FE0000FC
FE0001FC
FF0003F8
FF8003F8
FFC00FF0
FBF83FF0
FBFFFFE0
F9FFFFC0
F87FFF00
F83FFE00
FC01C000
FC000000
FC000000
FC000000
FC000000
FC000000
FC000000
FC000000
FC000000
FC000000
FC000000
FC000000
FC000000
FC000000
FC000000
FC000000
ENDCHAR
STARTCHAR 0071
ENCODING 113
SWIDTH 615 0
DWIDTH 41 0
BBX 31 52 4 -16
BITMAP
007FF01E
01FFFC3E
03FFFE3E
0FFFFF3E
0FFEFFBE
1FE00FFE
3FC003FE
3F8001FE
7F0000FE
7E0000FE
7E0000FE
FE00007E
FC00007E
FC00007E
FC00007E
FC00007E
FC00007E
FC00003E
FC00003E
FC00003E
FC00007E
FC00007E
FC00007E
FC00007E
FC00007E
FE00007E
7E0000FE
7F0000FE
7F0001FE
3F8003FE
1FC007FE
1FF83FBE
0FFFFF3E
07FFFE3E
03FFFC7E
00FFF07E
000F007E
0000007E
0000007E
0000007E
0000007E
0000007E
0000007E
0000007E
0000007E
0000007E
0000007E
0000007E
0000007E
0000007E
0000007E
0000007E
ENDCHAR
STARTCHAR 0072
ENCODING 114
SWIDTH 405 0
DWIDTH 27 0
BBX 20 36 6 0
BITMAP
F80FF0
F83FF0
F87FF0
F8FFF0
F9FFF0
FBF800
FBE000
FF8000
FF0000
FF0000
FE0000
FE0000
FC0000
FC0000
FC0000
FC0000
FC0000
FC0000
FC0000
FC0000
FC0000
FC0000
FC0000
FC0000
FC0000
FC0000
FC0000
FC0000
FC0000
FC0000
FC0000
FC0000
FC0000
FC0000
FC0000
FC0000
ENDCHAR
STARTCHAR 0073
ENCODING 115
SWIDTH 465 0
DWIDTH 31 0
BBX 26 37 3 -1
BITMAP
01FFF800
07FFFF00
1FFFFF80
3FFFFF80
3FF1FF00
7F000F00
7E000000
FC000000
FC000000
FC000000
FC000000
7E000000
7F000000
7FC00000
3FF80000
1FFE0000
07FFC000
03FFF000
00FFFC00
001FFE00
0007FF00
0000FF80
00007F80
00001FC0
00000FC0
00000FC0
00000FC0
00000FC0
00000FC0
80001F80
F0003F80
FF00FF80
FFFFFF00
FFFFFE00
7FFFF800
1FFFE000
00FE0000
ENDCHAR
STARTCHAR 0074
ENCODING 116
SWIDTH 360 0
DWIDTH 24 0
BBX 22 45 1 -1
BITMAP
01E000
01E000
01E000
03E000
03E000
03E000
03E000
07E000
1FFFF8
7FFFF8
FFFFF8
FFFFF8
FFFFF8
07E000
07E000
07E000
07E000
07E000
07E000
07E000
07E000
07E000
07E000
07E000
07E000
07E000
07E000
07E000
07E000
07E000
07E000
07E000
07E000
07E000
07E000
07E000
07E000
03F000
03F800
03FE0C
01FFFC
01FFFC
00FFFC
003FFC
0003C0
ENDCHAR
STARTCHAR 0075
ENCODING 117
SWIDTH 615 0
DWIDTH 41 0
BBX 31 37 5 -1
BITMAP
FC00007E
FC00007E
FC00007E
FC00007E
FC00007E
FC00007E
FC00007E
FC00007E
FC00007E
FC00007E
FC00007E
FC00007E
FC00007E
FC00007E
FC00007E
FC00007E
FC00007E
FC00007E
FC00007E
FC00007E
FC00007E
FC00007E
FC0000FE
FC0000FE
FC0000FE
FC0000FE
FE0001FE
7E0001FE
7E0003FE
7F0007FE
7F800FFE
3FF07F7E
1FFFFF7E
1FFFFE7E
07FFFC7E
03FFF03E
003E0000
ENDCHAR
STARTCHAR 0076
ENCODING 118
SWIDTH 495 0
DWIDTH 33 0
BBX 34 36 0 0
BITMAP
FC00000FC0
FE00001F80
7E00001F80
7E00003F80
3F00003F00
3F00003F00
3F80007F00
1F80007E00
1F80007E00
1FC000FC00
0FC000FC00
0FC000FC00
07E001F800
07E001F800
07E003F000
03F003F000
03F003F000
01F007E000
01F807E000
01F807E000
00FC0FC000
00FC0FC000
00FC0F8000
007E1F8000
007E1F8000
003E1F0000
003F3F0000
003F3F0000
001F3E0000
001F7E0000
001FFC0000
000FFC0000
000FFC0000
0007F80000
0007F80000
0007F00000
ENDCHAR
STARTCHAR 0077
ENCODING 119
SWIDTH 780 0
DWIDTH 52 0
BBX 51 36 1 0
BITMAP
FC0003F80007E0
FC0003F8000FC0
FC0007F8000FC0
7E0007F8000FC0
7E0007FC000F80
7E000FFC001F80
7E000FFC001F80
3F000FBE001F80
3F001FBE003F00
3F001F3E003F00
1F001F3F003F00
1F803F3F003F00
1F803F1F007E00
1F803E1F807E00
0FC03E1F807E00
0FC07E0F807C00
0FC07C0F80FC00
0FC07C0FC0FC00
07E0FC07C0FC00
07E0F807C0F800
07E0F807E1F800
03E1F807E1F800
03F1F803E1F000
03F1F003F1F000
03F1F003F3F000
01F3F001F3F000
01F3E001F3E000
01FBE001FBE000
01FBE000FFE000
00FFC000FFE000
00FFC000FFC000
00FFC0007FC000
007F80007FC000
007F80007F8000
007F80007F8000
007F00003F8000
ENDCHAR
STARTCHAR 0078
ENCODING 120
SWIDTH 525 0
DWIDTH 35 0
BBX 32 36 2 0
BITMAP
FE00007E
7E0000FE
7F0001FC
3F8001F8
1F8003F0
1FC007F0
0FE007E0
07E00FC0
03F01FC0
03F81F80
01F83F00
00FC7E00
00FEFE00
007FFC00
003FF800
001FF800
001FF000
000FE000
000FF000
001FF000
003FF800
007FFC00
007EFC00
00FC7E00
01FC3F00
01F83F80
03F01F80
07F00FC0
07E00FE0
0FC007E0
1FC003F0
3F8003F8
3F0001FC
7F0000FC
FE0000FE
FC00007F
ENDCHAR
STARTCHAR 0079
ENCODING 121
SWIDTH 510 0
DWIDTH 34 0
BBX 34 52 0 -16
BITMAP
FC00000FC0
7E00001FC0
7E00001F80
7F00001F80
3F00003F00
3F00003F00
1F80007F00
1F80007E00
1F80007E00
0FC000FE00
0FC000FC00
07E000FC00
07E001F800
07E001F800
03F001F800
03F003F000
01F803F000
01F807E000
01F807E000
00FC07E000
00FC0FC000
007C0FC000
007E0FC000
007E1F8000
003E1F8000
003F1F0000
001F3F0000
001F3F0000
001FBE0000
000FBE0000
000FFE0000
0007FC0000
0007FC0000
0007F80000
0003F80000
0003F80000
0003F00000
0003F00000
0003F00000
0007E00000
0007E00000
000FC00000
000FC00000
001FC00000
001F800000
003F000000
00FF000000
7FFE000000
7FFC000000
7FF8000000
7FF0000000
7FC0000000
ENDCHAR
STARTCHAR 007A
ENCODING 122
SWIDTH 465 0
DWIDTH 31 0
BBX 26 36 3 0
BITMAP
7FFFFF80
7FFFFF80
7FFFFF80
7FFFFF80
7FFFFF80
00003F80
00003F00
00007E00
0000FE00
0001FC00
0001F800
0003F000
0007F000
0007E000
000FC000
001FC000
001F8000
003F0000
007F0000
00FE0000
00FC0000
01F80000
03F80000
03F00000
07E00000
0FE00000
0FC00000
1F800000
3F000000
7F000000
7E000000
FFFFFFC0
FFFFFFC0
FFFFFFC0
FFFFFFC0
FFFFFFC0
ENDCHAR
STARTCHAR 007B
ENCODING 123
SWIDTH 375 0
DWIDTH 25 0
BBX 21 58 2 -11
BITMAP
000018
0001F8
000FF8
001FF8
003FF8
007FE0
007F00
00FE00
00FC00
00FC00
00FC00
00FC00
00FC00
00FC00
00FC00
00FC00
00FC00
00FC00
00FC00
00FC00
00FC00
00FC00
00FC00
00FC00
01F800
03F800
0FF000
FFE000
FF8000
FE0000
FFC000
FFE000
0FF000
03F800
01F800
00FC00
00FC00
00FC00
00FC00
00FC00
00FC00
00FC00
00FC00
00FC00
00FC00
00FC00
00FC00
00FC00
00FC00
00FC00
00FC00
00FE00
007F00
007FE0
003FF8
001FF8
000FF8
0001F8
ENDCHAR
STARTCHAR 007C
ENCODING 124
SWIDTH 540 0
DWIDTH 36 0
BBX 5 67 16 -16
BITMAP
F8
F8
F8
F8
F8
F8
F8
F8
F8
F8
F8
F8
F8
F8
F8
F8
F8
F8
F8
F8
F8
F8
F8
F8
F8
F8
F8
F8
F8
F8
F8
F8
F8
F8
F8
F8
F8
F8
F8
F8
F8
F8
F8
F8
F8
F8
F8
F8
F8
F8
F8
F8
F8
F8
F8
F8
F8
F8
F8
F8
F8
F8
F8
F8
F8
F8
F8
ENDCHAR
STARTCHAR 007D
ENCODING 125
SWIDTH 375 0
DWIDTH 25 0
BBX 21 59 2 -11
BITMAP
C00000
FE0000
FF8000
FFC000
FFE000
3FF000
07F800
03F800
01F800
01F800
01F800
00F800
00F800
00F800
00F800
00F800
00F800
00F800
00F800
00F800
00F800
00F800
00F800
00FC00
00FC00
007E00
007FC0
003FF8
000FF8
0001F8
000FF8
003FF8
007F80
007E00
00FC00
00FC00
00F800
00F800
00F800
00F800
00F800
00F800
00F800
00F800
00F800
00F800
00F800
00F800
01F800
01F800
01F800
03F800
07F000
3FF000
FFE000
FFC000
FF8000
FE0000
C00000
ENDCHAR
STARTCHAR 007E
ENCODING 126
SWIDTH 570 0
DWIDTH 38 0
BBX 32 9 3 19
BITMAP
07F00001
1FFE0003
3FFFC007
FFFFF01F
FFFFFFFF
F80FFFFF
E003FFFC
C0007FF8
80000FC0
ENDCHAR
STARTCHAR 00A0
ENCODING 160
SWIDTH 255 0
DWIDTH 17 0
BBX 0 0 0 0
BITMAP
ENDCHAR
STARTCHAR 00A1
ENCODING 161
SWIDTH 255 0
DWIDTH 17 0
BBX 8 48 5 -12
BITMAP
7E
FE
FF
FF
FF
FF
FF
7E
18
00
00
00
00
00
3C
3C
3C
3C
3C
3C
3C
3C
3C
7C
7C
7C
7C
7C
7E
7E
7E
7E
7E
7E
7E
7E
7E
7E
7E
7E
7E
7E
7E
FE
FE
FE
FE
FE
ENDCHAR
STARTCHAR 00A2
ENCODING 162
SWIDTH 570 0
DWIDTH 38 0
BBX 26 49 6 -1
BITMAP
0007C000
0007C000
0007C000
0007C000
0007C000
000FF800
007FFF80
01FFFFC0
03FFFFC0
0FFFFF80
0FF80F80
1FE00080
3FC00000
3F800000
7F000000
7E000000
7E000000
7E000000
FE000000
FC000000
FC000000
FC000000
FC000000
FC000000
FC000000
FC000000
FC000000
FC000000
FC000000
FE000000
7E000000
7E000000
7F000000
3F000000
3F800000
1FC00040
1FF807C0
0FFFFFC0
07FFFFC0
03FFFFC0
00FFFF80
001FFC00
00078000
00078000
00078000
00078000
00078000
00078000
00078000
ENDCHAR
STARTCHAR 00A3
ENCODING 163
SWIDTH 570 0
DWIDTH 38 0
BBX 34 48 2 0
BITMAP
0001FFC000
0007FFFC00
001FFFFF00
003FFFFF00
007FFFFE00
00FF003E00
00FE000C00
01FC000000
01F8000000
01F8000000
01F8000000
01F8000000
01F8000000
01F8000000
01F8000000
01F8000000
01F8000000
01F8000000
01F8000000
01F8000000
01F8000000
01F8000000
FFFFFFC000
FFFFFFC000
FFFFFFC000
FFFFFFC000
FFFFFFC000
01F8000000
01F8000000
01F8000000
01F8000000
01F8000000
01F8000000
01F8000000
01F8000000
01F8000000
03F0000000
03F0000000
03F0000000
07E0000000
07E0000000
1FC0000000
3F00000000
FFFFFFFFC0
FFFFFFFFC0
FFFFFFFFC0
FFFFFFFFC0
FFFFFFFFC0
ENDCHAR
STARTCHAR 00A4
ENCODING 164
SWIDTH 570 0
DWIDTH 38 0
BBX 30 29 4 10
BITMAP
30000030
78078078
FC3FF0FC
7EFFFDF8
3FFFFFF0
1FFFFFE0
0FE01FC0
0FC00FC0
1F8007E0
1F0003E0
1E0001E0
3E0001F0
3E0000F0
3E0000F0
3C0000F0
3E0000F0
3E0001F0
3E0001F0
1E0001F0
1F0003E0
1F8007E0
0FC00FC0
0FF03FC0
1FFFFFE0
3FFFFFF0
7EFFFDF8
FC3FF0FC
78000078
30000030
ENDCHAR
STARTCHAR 00A5
ENCODING 165
SWIDTH 570 0
DWIDTH 38 0
BBX 36 48 1 0
BITMAP
FC000003F0
7E000007E0
7E000007E0
3F00000FC0
3F00000FC0
1F80001F80
1F80001F80
0FC0003F00
0FC0003F00
07E0007E00
07E0007E00
03F000FC00
03F000FC00
01F801F800
01F801F800
00FC03F000
00FC03E000
007E07E000
003E07C000
003F0FC000
001F0F8000
001F9F8000
000F9F0000
000FFF0000
0007FE0000
07FFFFFE00
07FFFFFE00
07FFFFFE00
07FFFFFE00
07FFFFFE00
0001F80000
0001F80000
0001F80000
0001F80000
0001F80000
07FFFFFE00
07FFFFFE00
07FFFFFE00
07FFFFFE00
0001F80000
0001F80000
0001F80000
0001F80000
0001F80000
0001F80000
0001F80000
0001F80000
0001F80000
ENDCHAR
STARTCHAR 00A6
ENCODING 166
SWIDTH 540 0
DWIDTH 36 0
BBX 5 67 16 -16
BITMAP
F8
F8
F8
F8
F8
F8
F8
F8
F8
F8
F8
F8
F8
F8
F8
F8
F8
F8
F8
F8
F8
F8
F8
F8
F8
F8
00
00
00
00
00
00
00
00
00
00
00
00
00
00
00
00
F8
F8
F8
F8
F8
F8
F8
F8
F8
F8
F8
F8
F8
F8
F8
F8
F8
F8
F8
F8
F8
F8
F8
F8
F8
ENDCHAR
STARTCHAR 00A7
ENCODING 167
SWIDTH 510 0
DWIDTH 34 0
BBX 26 51 4 0
BITMAP
007FF000
07FFFE00
0FFFFF80
1FFFFF80
3FFFFF00
7F000F00
7E000100
7C000000
7C000000
7C000000
7E000000
7F000000
3FC00000
3FF00000
1FFC0000
0FFF8000
07FFE000
0FFFF800
1FDFFC00
3F03FE00
7E00FF00
7C003F80
7C001F80
F8000FC0
F8000FC0
FC0007C0
7C0007C0
7E0007C0
7F000F80
3FC00F80
1FF01F80
0FFC3F00
07FFFE00
01FFFC00
007FF800
001FFE00
0003FF00
0000FF80
00003F80
00001F80
00000FC0
00000FC0
00000FC0
00000FC0
80001F80
F0003F80
FF00FF00
FFFFFE00
FFFFFC00
7FFFF800
0FFFC000
ENDCHAR
STARTCHAR 00A8
ENCODING 168
SWIDTH 570 0
DWIDTH 38 0
BBX 19 7 10 42
BITMAP
300380
FC07C0
FC07E0
FC0FE0
FC07E0
FC07C0
780380
ENDCHAR
STARTCHAR 00A9
ENCODING 169
SWIDTH 825 0
DWIDTH 55 0
BBX 49 49 3 -1
BITMAP
00003FFE000000
0001FFFFC00000
0007FFFFF00000
001FF81FFC0000
003F8000FF0000
00FE00003F8000
01F800000FC000
03F0000007E000
07E0000001F000
0780007800F800
0F800FFF007800
1F003FFFC07C00
1E007FFFC03C00
3E00FFFF801E00
3C01FC03801E00
3C01F800000F00
7803F000000F00
7803E000000F00
7807E000000780
7007C000000780
F007C000000780
F007C000000780
F007C000000780
F007C000000780
F007C000000780
F007C000000780
F007C000000780
F007C000000780
7007C000000780
7807C000000780
7807E000000780
7803E000000F00
7C03F000000F00
3C01F800801F00
3E01FE0F801E00
1E00FFFF803E00
1F007FFF803C00
0F801FFF807C00
0F8007FC00F800
07C0000001F000
03E0000003E000
01F8000007E000
00FC00001FC000
007F00007F0000
003FE003FE0000
000FFFFFF80000
0003FFFFE00000
00007FFF800000
000001E0000000
ENDCHAR
STARTCHAR 00AA
ENCODING 170
SWIDTH 345 0
DWIDTH 23 0
BBX 19 22 2 26
BITMAP
07FC00
3FFF00
3FFF80
3F1FC0
1007C0
0003C0
0003C0
0003E0
0003E0
03FFE0
1FFFE0
3FFFE0
7E03E0
7803E0
F803E0
F003E0
F003E0
F807E0
FC1FE0
7FFDE0
3FF9E0
1FF1E0
ENDCHAR
STARTCHAR 00AB
ENCODING 171
SWIDTH 495 0
DWIDTH 33 0
BBX 28 27 3 4
BITMAP
003001C0
007C01E0
00FE03F0
00FC07E0
01F80FC0
03F01F80
07E03F80
0FE03F00
1FC07E00
1F80FC00
3F01F800
7E03F800
FC07F000
FC07E000
FE07F000
7E03F800
3F01FC00
1F80FC00
0FC07E00
0FE03F00
07F03F80
03F01FC0
01F80FC0
00FC07E0
007E03F0
007C01E0
003000C0
ENDCHAR
STARTCHAR 00AC
ENCODING 172
SWIDTH 570 0
DWIDTH 38 0
BBX 32 17 3 9
BITMAP
FFFFFFFF
FFFFFFFF
FFFFFFFF
FFFFFFFF
FFFFFFFF
0000001F
0000001F
0000001F
0000001F
0000001F
0000001F
0000001F
0000001F
0000001F
0000001F
0000001F
0000001F
ENDCHAR
STARTCHAR 00AD
ENCODING 173
SWIDTH 315 0
DWIDTH 21 0
BBX 16 5 3 15
BITMAP
FFFF
FFFF
FFFF
FFFF
FFFF
ENDCHAR
STARTCHAR 00AE
ENCODING 174
SWIDTH 825 0
DWIDTH 55 0
BBX 49 49 3 -1
BITMAP
00003FFE000000
0001FFFFC00000
0007FFFFF00000
001FF81FFC0000
003F8000FF0000
00FE00003F8000
01F800000FC000
03F0000007E000
07E0000001F000
0780000000F800
0F80FFFC007800
1F00FFFF007C00
1E00FFFF803C00
3E00FFFFC01E00
3C00F81FC01E00
3C00F807C00F00
7800F807E00F00
7800F807E00F00
7800F803E00780
7000F807E00780
F000F807C00780
F000F80FC00780
F000F81FC00780
F000FFFF800780
F000FFFF000780
F000FFFC000780
F000FFFC000780
F000F87C000780
7000F83E000780
7800F83F000780
7800F81F000780
7800F81F800F00
7C00F80F800F00
3C00F80FC01F00
3E00F807E01E00
1E00F803E03E00
1F00F803F03C00
0F80F801F07C00
0F80F801F8F800
07C0000001F000
03E0000003E000
01F8000007E000
00FC00001FC000
007F00007F0000
003FE003FE0000
000FFFFFF80000
0003FFFFE00000
00007FFF800000
000001E0000000
ENDCHAR
STARTCHAR 00AF
ENCODING 175
SWIDTH 495 0
DWIDTH 33 0
BBX 34 4 0 51
BITMAP
FFFFFFFFC0
FFFFFFFFC0
FFFFFFFFC0
FFFFFFFFC0
ENDCHAR
STARTCHAR 00B0
ENCODING 176
SWIDTH 420 0
DWIDTH 28 0
BBX 21 20 4 28
BITMAP
03FE00
0FFF80
1FFFC0
3FFFE0
7E03E0
7801F0
F800F0
F000F8
F000F8
F00078
F000F8
F000F8
F000F8
F800F0
7C01F0
7E03E0
3FFFE0
1FFFC0
0FFF00
03FE00
ENDCHAR
STARTCHAR 00B1
ENCODING 177
SWIDTH 570 0
DWIDTH 38 0
BBX 32 40 3 0
BITMAP
0003C000
0003C000
0003C000
0003C000
0003C000
0003C000
0003C000
0003C000
0003C000
0003C000
0003C000
0003C000
0003C000
0003C000
FFFFFFFF
FFFFFFFF
FFFFFFFF
FFFFFFFF
FFFFFFFF
0003C000
0003C000
0003C000
0003C000
0003C000
0003C000
0003C000
0003C000
0003C000
0003C000
0003C000
0003C000
0003C000
00000000
00000000
00000000
FFFFFFFF
FFFFFFFF
FFFFFFFF
FFFFFFFF
FFFFFFFF
ENDCHAR
STARTCHAR 00B2
ENCODING 178
SWIDTH 345 0
DWIDTH 23 0
BBX 18 29 2 28
BITMAP
03F800
1FFE00
3FFF00
FFFF80
FC0FC0
7007C0
2007C0
0003C0
0003C0
0003C0
0007C0
0007C0
000F80
000F80
001F00
003E00
007C00
00F800
01F000
03E000
07C000
0F8000
1F0000
3E0000
7C0000
FFFFC0
FFFFC0
FFFFC0
FFFFC0
ENDCHAR
STARTCHAR 00B3
ENCODING 179
SWIDTH 345 0
DWIDTH 23 0
BBX 20 30 1 27
BITMAP
03FC00
1FFF00
3FFF80
FFFFC0
7E07E0
3003E0
0001E0
0001F0
0001E0
0003E0
0003E0
0007C0
003F80
0FFF00
0FFE00
0FFF80
003FE0
0003E0
0001F0
0001F0
0000F0
0000F0
0001F0
0001F0
C003F0
F80FE0
FFFFC0
FFFF80
7FFF00
03F000
ENDCHAR
STARTCHAR 00B4
ENCODING 180
SWIDTH 270 0
DWIDTH 18 0
BBX 13 11 3 40
BITMAP
03F8
07F0
07F0
0FE0
1FC0
1F80
3F00
7E00
7C00
F800
F000
ENDCHAR
STARTCHAR 00B5
ENCODING 181
SWIDTH 615 0
DWIDTH 41 0
BBX 30 52 6 -16
BITMAP
FC0000FC
FC0000FC
FC0000FC
FC0000FC
FC0000FC
FC0000FC
FC0000FC
FC0000FC
FC0000FC
FC0000FC
FC0000FC
FC0000FC
FC0000FC
FC0000FC
FC0000FC
FC0000FC
FC0000FC
FC0000FC
FC0000FC
FC0000FC
FC0000FC
FC0000FC
FC0000FC
FC0000FC
FC0001FC
FC0001FC
FC0001FC
FC0003FC
FE0003FC
FE0007FC
FF800FFC
FFE07FFC
FFFFFEFC
FFFFFC7C
FBFFF87C
F8FFE07C
F81E0000
F8000000
F8000000
FC000000
FC000000
FC000000
FC000000
FC000000
FC000000
FC000000
FC000000
FC000000
FC000000
FC000000
FC000000
FC000000
ENDCHAR
STARTCHAR 00B6
ENCODING 182
SWIDTH 645 0
DWIDTH 43 0
BBX 33 59 4 -8
BITMAP
0007FFFF80
00FFFFFF80
07FFFFFF80
0FFFFFFF80
1FFFFC0780
3FFFFC0780
3FFFFC0780
7FFFFC0780
7FFFFC0780
7FFFFC0780
FFFFFC0780
FFFFFC0780
FFFFFC0780
FFFFFC0780
FFFFFC0780
FFFFFC0780
FFFFFC0780
FFFFFC0780
FFFFFC0780
FFFFFC0780
FFFFFC0780
FFFFFC0780
FFFFFC0780
FFFFFC0780
7FFFFC0780
7FFFFC0780
7FFFFC0780
3FFFFC0780
3FFFFC0780
1FFFFC0780
0FFFFC0780
07FFFC0780
00FFFC0780
00003C0780
00003C0780
00003C0780
00003C0780
00003C0780
00003C0780
00003C0780
00003C0780
00003C0780
00003C0780
00003C0780
00003C0780
00003C0780
00003C0780
00003C0780
00003C0780
00003C0780
00003C0780
00003C0780
00003C0780
00003C0780
00003C0780
00003C0780
00003C0780
00003C0780
00003C0780
ENDCHAR
STARTCHAR 00B7
ENCODING 183
SWIDTH 255 0
DWIDTH 17 0
BBX 8 9 5 19
BITMAP
3C
7E
FF
FF
FF
FF
FF
7E
3C
ENDCHAR
STARTCHAR 00B8
ENCODING 184
SWIDTH 225 0
DWIDTH 15 0
BBX 13 16 1 -16
BITMAP
0780
0F00
0F00
1E00
1FC0
3FF0
03F0
00F8
00F8
00F8
00F8
01F8
FFF0
FFF0
FFC0
FF00
ENDCHAR
STARTCHAR 00B9
ENCODING 185
SWIDTH 345 0
DWIDTH 23 0
BBX 13 28 3 28
BITMAP
01F8
03F8
0FF8
1FF8
7FF8
FEF8
F8F8
70F8
60F8
00F8
00F8
00F8
00F8
00F8
00F8
00F8
00F8
00F8
00F8
00F8
00F8
00F8
00F8
00F8
00F8
00F8
00F8
00F8
ENDCHAR
STARTCHAR 00BA
ENCODING 186
SWIDTH 375 0
DWIDTH 25 0
BBX 21 22 2 26
BITMAP
01FE00
0FFF80
1FFFC0
3FDFE0
3E03E0
7C01F0
7800F0
F800F8
F80078
F00078
F00078
F00078
F00078
F00078
F800F8
7800F0
7800F0
7C01F0
3F07E0
1FFFC0
0FFF80
03FE00
ENDCHAR
STARTCHAR 00BB
ENCODING 187
SWIDTH 495 0
DWIDTH 33 0
BBX 28 27 3 4
BITMAP
3801C000
F803E000
FC07E000
7E03F000
3F01F800
3F80FC00
1FC0FE00
0FC07F00
07E03F00
03F01F80
01F80FC0
01FC07E0
00FE07F0
007E03F0
00FC07F0
01FC0FE0
03F80FC0
03F01F80
07E03F00
0FC07F00
1F80FE00
3F81FC00
7F01F800
7E03F000
FC07E000
7803C000
3000C000
ENDCHAR
STARTCHAR 00BC
ENCODING 188
SWIDTH 735 0
DWIDTH 49 0
BBX 47 48 2 0
BITMAP
007C00001F00
01FC00001F00
03FC00003E00
07FC00003E00
1FFC00007C00
3F7C0000F800
FE7C0000F800
7C7C0001F000
307C0001F000
207C0003E000
007C0007C000
007C0007C000
007C000F8000
007C001F0000
007C001F0000
007C003E0000
007C003E0000
007C007C0000
007C00F80000
007C00F803E0
007C01F007E0
007C01F007E0
007C03E00FE0
007C07C01FE0
007C07C03FE0
007C0F803FE0
007C0F807BE0
007C1F00F3E0
007C3E00F3E0
00003E01E3E0
00007C03E3E0
0000F803C3E0
0000F80783E0
0001F00F03E0
0001F00F03E0
0003E01E03E0
0007C03C03E0
0007C07C03E0
000F807FFFFE
000F807FFFFE
001F007FFFFE
003E007FFFFE
003E000003E0
007C000003E0
007C000003E0
00F8000003E0
01F0000003E0
01F0000003E0
ENDCHAR
STARTCHAR 00BD
ENCODING 189
SWIDTH 765 0
DWIDTH 51 0
BBX 47 48 2 0
BITMAP
00F800007C00
01F800007C00
07F80000F800
0FF80000F800
3FF80001F000
7FF80003E000
FCF80003E000
F8F80007C000
70F80007C000
00F8000F8000
00F8001F0000
00F8001F0000
00F8003E0000
00F8007C0000
00F8007C0000
00F800F80000
00F800F80000
00F801F00000
00F803E00000
00F803E07FC0
00F807C1FFE0
00F807C7FFF8
00F80F8FFFF8
00F81F07C0FC
00F81F07007C
00F83E00003C
00F83E00003E
00F87C00003E
00F8F800003C
0000F800007C
0001F000007C
0003E00000F8
0003E00000F8
0007C00001F0
0007C00003E0
000F800007C0
001F00000F80
001F00001F00
003E00003E00
003E00007C00
007C0000F800
00F80001F000
00F80003E000
01F00007C000
01F0000FFFFC
03E0000FFFFC
07C0000FFFFC
07C0000FFFFC
ENDCHAR
STARTCHAR 00BE
ENCODING 190
SWIDTH 780 0
DWIDTH 52 0
BBX 50 48 1 0
BITMAP
07FE000001F000
1FFF800001F000
7FFFC00003E000
FFFFC00007E000
7C07E00007C000
3003E0000F8000
0003E0000F8000
0001E0001F0000
0003E0003E0000
0003E0003E0000
0003E0007C0000
000FC0007C0000
0FFF8000F80000
0FFF0001F00000
0FFF0001F00000
0FFFC003E00000
000FE003E00000
0003F007C00000
0001F00F800000
0001F00F807C00
0001F01F007C00
0001F01F00FC00
0001F03E01FC00
0001F07C01FC00
E003E07C03FC00
FE3FE0F807BC00
FFFFC1F00FBC00
FFFF81F00F7C00
3FFE03E01E7C00
000003E03E7C00
000007C03C7C00
00000F80787C00
00000F80F87C00
00001F00F07C00
00001F01E07C00
00003E03E07C00
00007C03C07C00
00007C07807C00
0000F80FFFFFC0
0000F80FFFFFC0
0001F00FFFFFC0
0003E00FFFFFC0
0003E000007C00
0007C000007C00
000F8000007C00
000F8000007C00
001F0000007C00
001F0000007C00
ENDCHAR
STARTCHAR 00BF
ENCODING 191
SWIDTH 420 0
DWIDTH 28 0
BBX 26 49 2 -13
BITMAP
000FC000
001FC000
001FE000
001FE000
001FE000
001FE000
001FE000
000FC000
00020000
00000000
00000000
00000000
00000000
00000000
00078000
00078000
00078000
00078000
000F8000
000F8000
001F8000
001F0000
003F0000
00FE0000
01FE0000
03FC0000
07F80000
0FE00000
1FC00000
3F800000
7F000000
7E000000
FC000000
FC000000
F8000000
F8000000
F8000000
F8000000
F8000000
FC000000
FC000000
FE000100
7F000F80
7FF0FF80
3FFFFFC0
1FFFFFC0
0FFFFF00
03FFF800
007F8000
ENDCHAR
STARTCHAR 00C0
ENCODING 192
SWIDTH 630 0
DWIDTH 42 0
BBX 42 63 0 0
BITMAP
0007F0000000
0007F0000000
0003F8000000
0001F8000000
0000FC000000
0000FE000000
00007E000000
00003F000000
00001F800000
000007C00000
000003C00000
000000000000
000000000000
000000000000
000000000000
00003F000000
00003F800000
00003F800000
00007F800000
00007FC00000
00007FC00000
0000FFC00000
0000FBE00000
0001FBE00000
0001F3F00000
0001F3F00000
0003F1F00000
0003E1F80000
0007E1F80000
0007E0FC0000
0007C0FC0000
000FC07C0000
000FC07E0000
001F807E0000
001F803E0000
001F803F0000
003F003F0000
003F001F8000
003E001F8000
007E000F8000
007E000FC000
00FC000FC000
00FC0007E000
00FFFFFFE000
01FFFFFFE000
01FFFFFFF000
03FFFFFFF000
03FFFFFFF800
03F00001F800
07E00001F800
07E00001FC00
0FE00000FC00
0FC00000FC00
0FC000007E00
1F8000007E00
1F8000007F00
1F8000003F00
3F0000003F00
3F0000001F80
7E0000001F80
7E0000001FC0
7E0000000FC0
FC0000000FC0
ENDCHAR
STARTCHAR 00C1
ENCODING 193
SWIDTH 630 0
DWIDTH 42 0
BBX 42 63 0 0
BITMAP
000000FE0000
000001FE0000
000001FC0000
000003F80000
000007F00000
000007E00000
00000FC00000
00001F800000
00001F000000
00003E000000
00003C000000
000000000000
000000000000
000000000000
000000000000
00003F000000
00003F800000
00003F800000
00007F800000
00007FC00000
00007FC00000
0000FFC00000
0000FBE00000
0001FBE00000
0001F3F00000
0001F3F00000
0003F1F00000
0003E1F80000
0007E1F80000
0007E0FC0000
0007C0FC0000
000FC07C0000
000FC07E0000
001F807E0000
001F803E0000
001F803F0000
003F003F0000
003F001F8000
003E001F8000
007E000F8000
007E000FC000
00FC000FC000
00FC0007E000
00FFFFFFE000
01FFFFFFE000
01FFFFFFF000
03FFFFFFF000
03FFFFFFF800
03F00001F800
07E00001F800
07E00001FC00
0FE00000FC00
0FC00000FC00
0FC000007E00
1F8000007E00
1F8000007F00
1F8000003F00
3F0000003F00
3F0000001F80
7E0000001F80
7E0000001FC0
7E0000000FC0
FC0000000FC0
ENDCHAR
STARTCHAR 00C2
ENCODING 194
SWIDTH 630 0
DWIDTH 42 0
BBX 42 63 0 0
BITMAP
00003F000000
00007F800000
0000FFC00000
0000FFE00000
0001FFE00000
0003F3F00000
0007E1F80000
000FC0FC0000
001F807E0000
003F003F0000
003C000F0000
000000000000
000000000000
000000000000
000000000000
00003F000000
00003F800000
00003F800000
00007F800000
00007FC00000
00007FC00000
0000FFC00000
0000FBE00000
0001FBE00000
0001F3F00000
0001F3F00000
0003F1F00000
0003E1F80000
0007E1F80000
0007E0FC0000
0007C0FC0000
000FC07C0000
000FC07E0000
001F807E0000
001F803E0000
001F803F0000
003F003F0000
003F001F8000
003E001F8000
007E000F8000
007E000FC000
00FC000FC000
00FC0007E000
00FFFFFFE000
01FFFFFFE000
01FFFFFFF000
03FFFFFFF000
03FFFFFFF800
03F00001F800
07E00001F800
07E00001FC00
0FE00000FC00
0FC00000FC00
0FC000007E00
1F8000007E00
1F8000007F00
1F8000003F00
3F0000003F00
3F0000001F80
7E0000001F80
7E0000001FC0
7E0000000FC0
FC0000000FC0
ENDCHAR
STARTCHAR 00C3
ENCODING 195
SWIDTH 630 0
DWIDTH 42 0
BBX 42 61 0 0
BITMAP
0003E0038000
000FF8038000
001FFE078000
001FFF0F8000
003FFFFF0000
003C1FFF0000
00780FFE0000
007803FC0000
007000700000
000000000000
000000000000
000000000000
000000000000
00003F000000
00003F800000
00003F800000
00007F800000
00007FC00000
00007FC00000
0000FFC00000
0000FBE00000
0001FBE00000
0001F3F00000
0001F3F00000
0003F1F00000
0003E1F80000
0007E1F80000
0007E0FC0000
0007C0FC0000
000FC07C0000
000FC07E0000
001F807E0000
001F803E0000
001F803F0000
003F003F0000
003F001F8000
003E001F8000
007E000F8000
007E000FC000
00FC000FC000
00FC0007E000
00FFFFFFE000
01FFFFFFE000
01FFFFFFF000
03FFFFFFF000
03FFFFFFF800
03F00001F800
07E00001F800
07E00001FC00
0FE00000FC00
0FC00000FC00
0FC000007E00
1F8000007E00
1F8000007F00
1F8000003F00
3F0000003F00
3F0000001F80
7E0000001F80
7E0000001FC0
7E0000000FC0
FC0000000FC0
ENDCHAR
STARTCHAR 00C4
ENCODING 196
SWIDTH 630 0
DWIDTH 42 0
BBX 42 61 0 0
BITMAP
000300100000
0007807C0000
000FC07C0000
000FC0FE0000
000FC0FE0000
000FC07C0000
000780380000
000000000000
000000000000
000000000000
000000000000
000000000000
000000000000
00003F000000
00003F800000
00003F800000
00007F800000
00007FC00000
00007FC00000
0000FFC00000
0000FBE00000
0001FBE00000
0001F3F00000
0001F3F00000
0003F1F00000
0003E1F80000
0007E1F80000
0007E0FC0000
0007C0FC0000
000FC07C0000
000FC07E0000
001F807E0000
001F803E0000
001F803F0000
003F003F0000
003F001F8000
003E001F8000
007E000F8000
007E000FC000
00FC000FC000
00FC0007E000
00FFFFFFE000
01FFFFFFE000
01FFFFFFF000
03FFFFFFF000
03FFFFFFF800
03F00001F800
07E00001F800
07E00001FC00
0FE00000FC00
0FC00000FC00
0FC000007E00
1F8000007E00
1F8000007F00
1F8000003F00
3F0000003F00
3F0000001F80
7E0000001F80
7E0000001FC0
7E0000000FC0
FC0000000FC0
ENDCHAR
STARTCHAR 00C5
ENCODING 197
SWIDTH 630 0
DWIDTH 42 0
BBX 42 59 0 0
BITMAP
000008000000
00007F800000
0000FFE00000
0001FFE00000
0003E1F00000
0003C0F00000
0003C0700000
000380780000
000380700000
0003C0F00000
0003E1F00000
0001FFE00000
0000FFE00000
00007F800000
00007F800000
00007FC00000
00007FC00000
0000FFC00000
0000FBE00000
0001FBE00000
0001F3F00000
0001F3F00000
0003F1F00000
0003E1F80000
0007E1F80000
0007E0FC0000
0007C0FC0000
000FC07C0000
000FC07E0000
001F807E0000
001F803E0000
001F803F0000
003F003F0000
003F001F8000
003E001F8000
007E000F8000
007E000FC000
00FC000FC000
00FC0007E000
00FFFFFFE000
01FFFFFFE000
01FFFFFFF000
03FFFFFFF000
03FFFFFFF800
03F00001F800
07E00001F800
07E00001FC00
0FE00000FC00
0FC00000FC00
0FC000007E00
1F8000007E00
1F8000007F00
1F8000003F00
3F0000003F00
3F0000001F80
7E0000001F80
7E0000001FC0
7E0000000FC0
FC0000000FC0
ENDCHAR
STARTCHAR 00C6
ENCODING 198
SWIDTH 870 0
DWIDTH 58 0
BBX 55 48 0 0
BITMAP
000003FFFFFFFE
000003FFFFFFFE
000003FFFFFFFE
000007FFFFFFFE
000007FFFFFFFE
00000FFFFFFFFE
00000FC3F00000
00001F83F00000
00001F83F00000
00003F03F00000
00003F03F00000
00007E03F00000
00007E03F00000
0000FC03F00000
0000FC03F00000
0001F803F00000
0001F803F00000
0003F803F00000
0003F003F00000
0007F003F00000
0007E003F00000
000FE003FFFFF8
000FC003FFFFF8
000FC003FFFFF8
001F8003FFFFF8
001F8003FFFFF8
003F0003F00000
003F0003F00000
007FFFFFF00000
007FFFFFF00000
00FFFFFFF00000
00FFFFFFF00000
01FFFFFFF00000
01F80003F00000
03F80003F00000
03F00003F00000
07F00003F00000
07E00003F00000
0FE00003F00000
0FC00003F00000
1FC00003F00000
1F800003F00000
1F800003F00000
3F000003FFFFFE
3F000003FFFFFE
7E000003FFFFFE
7E000003FFFFFE
FC000003FFFFFE
ENDCHAR
STARTCHAR 00C7
ENCODING 199
SWIDTH 630 0
DWIDTH 42 0
BBX 36 64 4 -16
BITMAP
0000FFFC00
0007FFFFC0
001FFFFFF0
007FFFFFF0
00FFFFFFE0
01FFC00FE0
03FF0001C0
07FC000040
0FF0000000
0FE0000000
1FC0000000
1FC0000000
3F80000000
3F80000000
7F00000000
7F00000000
7E00000000
7E00000000
FE00000000
FE00000000
FE00000000
FE00000000
FC00000000
FC00000000
FC00000000
FC00000000
FC00000000
FE00000000
FE00000000
FE00000000
7E00000000
7E00000000
7F00000000
7F00000000
7F00000000
3F80000000
3F80000000
1FC0000000
1FE0000000
0FF0000000
0FF8000000
07FC000000
03FF8003C0
01FFFFFFC0
00FFFFFFC0
003FFFFFC0
001FFFFFC0
0003FFFF00
00003F0000
00001E0000
00003C0000
00003C0000
00007F0000
00007FC000
00000FE000
000003E000
000001E000
000001F000
000001E000
000003E000
0003FFE000
0003FFC000
0003FF8000
0003FC0000
ENDCHAR
STARTCHAR 00C8
ENCODING 200
SWIDTH 555 0
DWIDTH 37 0
BBX 27 63 6 0
BITMAP
03F80000
03F80000
01FC0000
00FE0000
007E0000
003F0000
001F8000
000F8000
0007C000
0003E000
0001E000
00000000
00000000
00000000
00000000
FFFFFFE0
FFFFFFE0
FFFFFFE0
FFFFFFE0
FFFFFFE0
FFFFFFE0
FC000000
FC000000
FC000000
FC000000
FC000000
FC000000
FC000000
FC000000
FC000000
FC000000
FC000000
FC000000
FC000000
FC000000
FC000000
FFFFFFC0
FFFFFFC0
FFFFFFC0
FFFFFFC0
FFFFFFC0
FC000000
FC000000
FC000000
FC000000
FC000000
FC000000
FC000000
FC000000
FC000000
FC000000
FC000000
FC000000
FC000000
FC000000
FC000000
FC000000
FC000000
FFFFFFE0
FFFFFFE0
FFFFFFE0
FFFFFFE0
FFFFFFE0
ENDCHAR
STARTCHAR 00C9
ENCODING 201
SWIDTH 555 0
DWIDTH 37 0
BBX 27 63 6 0
BITMAP
00007F00
0000FF00
0000FE00
0001FC00
0001F800
0003F000
0007E000
0007C000
000F8000
001F0000
001E0000
00000000
00000000
00000000
00000000
FFFFFFE0
FFFFFFE0
FFFFFFE0
FFFFFFE0
FFFFFFE0
FFFFFFE0
FC000000
FC000000
FC000000
FC000000
FC000000
FC000000
FC000000
FC000000
FC000000
FC000000
FC000000
FC000000
FC000000
FC000000
FC000000
FFFFFFC0
FFFFFFC0
FFFFFFC0
FFFFFFC0
FFFFFFC0
FC000000
FC000000
FC000000
FC000000
FC000000
FC000000
FC000000
FC000000
FC000000
FC000000
FC000000
FC000000
FC000000
FC000000
FC000000
FC000000
FC000000
FFFFFFE0
FFFFFFE0
FFFFFFE0
FFFFFFE0
FFFFFFE0
ENDCHAR
STARTCHAR 00CA
ENCODING 202
SWIDTH 555 0
DWIDTH 37 0
BBX 27 63 6 0
BITMAP
001FC000
003FC000
003FE000
007FF000
00FFF800
01F9F800
03F0FC00
07E07E00
0FC03F00
0F800F80
1E0007C0
00000000
00000000
00000000
00000000
FFFFFFE0
FFFFFFE0
FFFFFFE0
FFFFFFE0
FFFFFFE0
FFFFFFE0
FC000000
FC000000
FC000000
FC000000
FC000000
FC000000
FC000000
FC000000
FC000000
FC000000
FC000000
FC000000
FC000000
FC000000
FC000000
FFFFFFC0
FFFFFFC0
FFFFFFC0
FFFFFFC0
FFFFFFC0
FC000000
FC000000
FC000000
FC000000
FC000000
FC000000
FC000000
FC000000
FC000000
FC000000
FC000000
FC000000
FC000000
FC000000
FC000000
FC000000
FC000000
FFFFFFE0
FFFFFFE0
FFFFFFE0
FFFFFFE0
FFFFFFE0
ENDCHAR
STARTCHAR 00CB
ENCODING 203
SWIDTH 555 0
DWIDTH 37 0
BBX 27 61 6 0
BITMAP
00000800
03E03E00
07E03F00
07E03F00
07E03F00
07E03E00
03C01C00
00000000
00000000
00000000
00000000
00000000
00000000
FFFFFFE0
FFFFFFE0
FFFFFFE0
FFFFFFE0
FFFFFFE0
FFFFFFE0
FC000000
FC000000
FC000000
FC000000
FC000000
FC000000
FC000000
FC000000
FC000000
FC000000
FC000000
FC000000
FC000000
FC000000
FC000000
FFFFFFC0
FFFFFFC0
FFFFFFC0
FFFFFFC0
FFFFFFC0
FC000000
FC000000
FC000000
FC000000
FC000000
FC000000
FC000000
FC000000
FC000000
FC000000
FC000000
FC000000
FC000000
FC000000
FC000000
FC000000
FC000000
FFFFFFE0
FFFFFFE0
FFFFFFE0
FFFFFFE0
FFFFFFE0
ENDCHAR
STARTCHAR 00CC
ENCODING 204
SWIDTH 330 0
DWIDTH 22 0
BBX 17 63 3 0
BITMAP
FE0000
FE0000
7F0000
3F8000
1F8000
0FC000
07E000
03E000
01F000
00F800
007800
000000
000000
000000
000000
FFFF80
FFFF80
FFFF80
FFFF80
3FFC00
07E000
07E000
07E000
07E000
07E000
07E000
07E000
07E000
07E000
07E000
07E000
07E000
07E000
07E000
07E000
07E000
07E000
07E000
07E000
07E000
07E000
07E000
07E000
07E000
07E000
07E000
07E000
07E000
07E000
07E000
07E000
07E000
07E000
07E000
07E000
07E000
07E000
07E000
0FF000
FFFF80
FFFF80
FFFF80
FFFF80
ENDCHAR
STARTCHAR 00CD
ENCODING 205
SWIDTH 330 0
DWIDTH 22 0
BBX 18 63 3 0
BITMAP
001FC0
003FC0
003F80
007F00
007E00
00FC00
01F800
01F000
03E000
07C000
078000
000000
000000
000000
000000
FFFF80
FFFF80
FFFF80
FFFF80
3FFC00
07E000
07E000
07E000
07E000
07E000
07E000
07E000
07E000
07E000
07E000
07E000
07E000
07E000
07E000
07E000
07E000
07E000
07E000
07E000
07E000
07E000
07E000
07E000
07E000
07E000
07E000
07E000
07E000
07E000
07E000
07E000
07E000
07E000
07E000
07E000
07E000
07E000
07E000
0FF000
FFFF80
FFFF80
FFFF80
FFFF80
ENDCHAR
STARTCHAR 00CE
ENCODING 206
SWIDTH 330 0
DWIDTH 22 0
BBX 23 63 0 0
BITMAP
00FE00
01FE00
01FF00
03FF80
07FFC0
0FCFC0
1F87E0
3F03F0
7E01F8
7C007C
F0003E
000000
000000
000000
000000
1FFFF0
1FFFF0
1FFFF0
1FFFF0
07FF80
00FC00
00FC00
00FC00
00FC00
00FC00
00FC00
00FC00
00FC00
00FC00
00FC00
00FC00
00FC00
00FC00
00FC00
00FC00
00FC00
00FC00
00FC00
00FC00
00FC00
00FC00
00FC00
00FC00
00FC00
00FC00
00FC00
00FC00
00FC00
00FC00
00FC00
00FC00
00FC00
00FC00
00FC00
00FC00
00FC00
00FC00
00FC00
01FE00
1FFFF0
1FFFF0
1FFFF0
1FFFF0
ENDCHAR
STARTCHAR 00CF
ENCODING 207
SWIDTH 330 0
DWIDTH 22 0
BBX 19 61 2 0
BITMAP
000100
7C07C0
FC07E0
FC07E0
FC07E0
FC07C0
780380
000000
000000
000000
000000
000000
000000
7FFFC0
7FFFC0
7FFFC0
7FFFC0
1FFE00
03F000
03F000
03F000
03F000
03F000
03F000
03F000
03F000
03F000
03F000
03F000
03F000
03F000
03F000
03F000
03F000
03F000
03F000
03F000
03F000
03F000
03F000
03F000
03F000
03F000
03F000
03F000
03F000
03F000
03F000
03F000
03F000
03F000
03F000
03F000
03F000
03F000
03F000
07F800
7FFFC0
7FFFC0
7FFFC0
7FFFC0
ENDCHAR
STARTCHAR 00D0
ENCODING 208
SWIDTH 720 0
DWIDTH 48 0
BBX 43 48 2 0
BITMAP
07FFFC000000
07FFFFF00000
07FFFFFC0000
07FFFFFF0000
07FFFFFFC000
07FFFFFFE000
07E0007FF000
07E0000FF800
07E00003FC00
07E00001FE00
07E00000FE00
07E000007F00
07E000003F00
07E000003F80
07E000001F80
07E000001FC0
07E000001FC0
07E000000FC0
07E000000FC0
07E000000FC0
07E000000FC0
07E000000FE0
FFFFFE000FE0
FFFFFE000FE0
FFFFFE000FE0
FFFFFE000FE0
FFFFFE000FE0
07E000000FC0
07E000000FC0
07E000000FC0
07E000000FC0
07E000001FC0
07E000001FC0
07E000001F80
07E000003F80
07E000003F00
07E000007F00
07E00000FE00
07E00001FE00
07E00003FC00
07E0000FF800
07E0003FF000
07E003FFE000
07FFFFFFC000
07FFFFFF8000
07FFFFFE0000
07FFFFF00000
07FFFF000000
ENDCHAR
STARTCHAR 00D1
ENCODING 209
SWIDTH 750 0
DWIDTH 50 0
BBX 38 61 6 0
BITMAP
000F800F00
003FE00E00
007FF81E00
007FFC3E00
00FFFFFC00
00F07FFC00
01E03FF800
01E00FF000
01E001C000
0000000000
0000000000
0000000000
0000000000
FE0000007C
FF0000007C
FF8000007C
FF8000007C
FFC000007C
FFE000007C
FFE000007C
FFF000007C
FBF800007C
FFF800007C
FDFC00007C
FCFE00007C
FCFE00007C
FC7F00007C
FC3F80007C
FC3F80007C
FC1FC0007C
FC0FC0007C
FC0FE0007C
FC07F0007C
FC07F0007C
FC03F8007C
FC01FC007C
FC01FC007C
FC00FE007C
FC007F007C
FC007F007C
FC003F807C
FC001FC07C
FC001FC07C
FC000FE07C
FC0007E07C
FC0007F07C
FC0003F87C
FC0003F87C
FC0001FC7C
FC0000FE7C
FC0000FE7C
FC00007F7C
FC00003FFC
FC00003FFC
FC00001FFC
FC00000FFC
FC00000FFC
FC000007FC
FC000003FC
FC000003FC
FC000001FC
ENDCHAR
STARTCHAR 00D2
ENCODING 210
SWIDTH 780 0
DWIDTH 52 0
BBX 44 64 4 -1
BITMAP
0007F8000000
0003F8000000
0001FC000000
0000FC000000
0000FE000000
00007F000000
00003F000000
00001F800000
00000FC00000
000007C00000
000001E00000
000000000000
000000000000
000000000000
000000000000
0001FFF80000
000FFFFF0000
003FFFFFC000
007FFFFFE000
01FFFFFFF800
03FF801FFC00
07FC0003FE00
07F80001FE00
0FF000007F00
1FE000007F80
1FC000003F80
3F8000001FC0
3F8000001FC0
3F0000000FC0
7F0000000FE0
7F00000007E0
7E00000007E0
7E00000007E0
FE00000007F0
FE00000007F0
FE00000007F0
FC00000003F0
FC00000003F0
FC00000003F0
FC00000003F0
FC00000003F0
FC00000003F0
FE00000003F0
FE00000007F0
FE00000007F0
7E00000007E0
7E00000007E0
7E00000007E0
7F0000000FE0
3F0000000FC0
3F8000000FC0
3F8000001FC0
1FC000003F80
1FC000003F80
0FE000007F00
0FF00000FE00
07FC0003FE00
03FF000FFC00
01FFFFFFF800
00FFFFFFF000
003FFFFFC000
001FFFFF0000
0003FFFC0000
00001F800000
ENDCHAR
STARTCHAR 00D3
ENCODING 211
SWIDTH 780 0
DWIDTH 52 0
BBX 44 64 4 -1
BITMAP
0000007F0000
000000FE0000
000001FE0000
000001FC0000
000003F80000
000003F00000
000007E00000
00000FC00000
00000F800000
00001F000000
00001E000000
000000000000
000000000000
000000000000
000000000000
0001FFF80000
000FFFFF0000
003FFFFFC000
007FFFFFE000
01FFFFFFF800
03FF801FFC00
07FC0003FE00
07F80001FE00
0FF000007F00
1FE000007F80
1FC000003F80
3F8000001FC0
3F8000001FC0
3F0000000FC0
7F0000000FE0
7F00000007E0
7E00000007E0
7E00000007E0
FE00000007F0
FE00000007F0
FE00000007F0
FC00000003F0
FC00000003F0
FC00000003F0
FC00000003F0
FC00000003F0
FC00000003F0
FE00000003F0
FE00000007F0
FE00000007F0
7E00000007E0
7E00000007E0
7E00000007E0
7F0000000FE0
3F0000000FC0
3F8000000FC0
3F8000001FC0
1FC000003F80
1FC000003F80
0FE000007F00
0FF00000FE00
07FC0003FE00
03FF000FFC00
01FFFFFFF800
00FFFFFFF000
003FFFFFC000
001FFFFF0000
0003FFFC0000
00001F800000
ENDCHAR
STARTCHAR 00D4
ENCODING 212
SWIDTH 780 0
DWIDTH 52 0
BBX 44 64 4 -1
BITMAP
00001F800000
00003FC00000
00007FE00000
00007FE00000
0000FFF00000
0001F9F80000
0003F0FC0000
0007E07E0000
000FC03F0000
001F801F8000
001E00078000
000000000000
000000000000
000000000000
000000000000
0001FFF80000
000FFFFF0000
003FFFFFC000
007FFFFFE000
01FFFFFFF800
03FF801FFC00
07FC0003FE00
07F80001FE00
0FF000007F00
1FE000007F80
1FC000003F80
3F8000001FC0
3F8000001FC0
3F0000000FC0
7F0000000FE0
7F00000007E0
7E00000007E0
7E00000007E0
FE00000007F0
FE00000007F0
FE00000007F0
FC00000003F0
FC00000003F0
FC00000003F0
FC00000003F0
FC00000003F0
FC00000003F0
FE00000003F0
FE00000007F0
FE00000007F0
7E00000007E0
7E00000007E0
7E00000007E0
7F0000000FE0
3F0000000FC0
3F8000000FC0
3F8000001FC0
1FC000003F80
1FC000003F80
0FE000007F00
0FF00000FE00
07FC0003FE00
03FF000FFC00
01FFFFFFF800
00FFFFFFF000
003FFFFFC000
001FFFFF0000
0003FFFC0000
00001F800000
ENDCHAR
STARTCHAR 00D5
ENCODING 213
SWIDTH 780 0
DWIDTH 52 0
BBX 44 62 4 -1
BITMAP
0001E001C000
0007FC01C000
000FFE03C000
001FFF87C000
001FFFFF8000
001E1FFF8000
003C07FF0000
003C01FE0000
003800380000
000000000000
000000000000
000000000000
000000000000
0001FFF80000
000FFFFF0000
003FFFFFC000
007FFFFFE000
01FFFFFFF800
03FF801FFC00
07FC0003FE00
07F80001FE00
0FF000007F00
1FE000007F80
1FC000003F80
3F8000001FC0
3F8000001FC0
3F0000000FC0
7F0000000FE0
7F00000007E0
7E00000007E0
7E00000007E0
FE00000007F0
FE00000007F0
FE00000007F0
FC00000003F0
FC00000003F0
FC00000003F0
FC00000003F0
FC00000003F0
FC00000003F0
FE00000003F0
FE00000007F0
FE00000007F0
7E00000007E0
7E00000007E0
7E00000007E0
7F0000000FE0
3F0000000FC0
3F8000000FC0
3F8000001FC0
1FC000003F80
1FC000003F80
0FE000007F00
0FF00000FE00
07FC0003FE00
03FF000FFC00
01FFFFFFF800
00FFFFFFF000
003FFFFFC000
001FFFFF0000
0003FFFC0000
00001F800000
ENDCHAR
STARTCHAR 00D6
ENCODING 214
SWIDTH 780 0
DWIDTH 52 0
BBX 44 62 4 -1
BITMAP
000000080000
0007C03E0000
0007E07E0000
0007E07E0000
0007E07E0000
0007E03E0000
0003C03C0000
000000000000
000000000000
000000000000
000000000000
000000000000
000000000000
0001FFF80000
000FFFFF0000
003FFFFFC000
007FFFFFE000
01FFFFFFF800
03FF801FFC00
07FC0003FE00
07F80001FE00
0FF000007F00
1FE000007F80
1FC000003F80
3F8000001FC0
3F8000001FC0
3F0000000FC0
7F0000000FE0
7F00000007E0
7E00000007E0
7E00000007E0
FE00000007F0
FE00000007F0
FE00000007F0
FC00000003F0
FC00000003F0
FC00000003F0
FC00000003F0
FC00000003F0
FC00000003F0
FE00000003F0
FE00000007F0
FE00000007F0
7E00000007E0
7E00000007E0
7E00000007E0
7F0000000FE0
3F0000000FC0
3F8000000FC0
3F8000001FC0
1FC000003F80
1FC000003F80
0FE000007F00
0FF00000FE00
07FC0003FE00
03FF000FFC00
01FFFFFFF800
00FFFFFFF000
003FFFFFC000
001FFFFF0000
0003FFFC0000
00001F800000
ENDCHAR
STARTCHAR 00D7
ENCODING 215
SWIDTH 570 0
DWIDTH 38 0
BBX 28 29 5 9
BITMAP
20000040
700000E0
F80001F0
FC0003F0
7E0007E0
3F000FC0
1F801F80
0FC03F00
07E07E00
03F0FC00
01F9F800
00FFF000
007FE000
003FC000
001F8000
003FC000
007FE000
00FFF000
01F9F800
03F1FC00
07E07E00
0FC03F00
1F801F80
3F000FC0
7E0007E0
FC0003F0
F80001F0
700000E0
30000040
ENDCHAR
STARTCHAR 00D8
ENCODING 216
SWIDTH 780 0
DWIDTH 52 0
BBX 44 51 4 -1
BITMAP
000000000E00
0001FFF81F00
000FFFFF1F80
003FFFFFFF00
007FFFFFFE00
01FFFFFFFE00
03FF801FFC00
07FC0007FC00
07F80001FE00
0FF00003FF00
1FE00007FF80
1FC0000FFF80
3F80000FDFC0
3F80001F9FC0
3F00003F0FC0
7F00003F0FE0
7F00007E07E0
7E0000FC07E0
7E0000F807E0
FE0001F807F0
FE0003F007F0
FE0007E007F0
FC0007E003F0
FC000FC003F0
FC001F8003F0
FC001F8003F0
FC003F0003F0
FC007E0003F0
FE00FC0003F0
FE00FC0007F0
FE01F80007F0
7E03F00007E0
7E03F00007E0
7E07E00007E0
7F0FC0000FE0
3F0F80000FC0
3F9F80000FC0
3FBF00001FC0
1FFE00003F80
1FFE00003F80
0FFC00007F00
0FF80000FE00
07FC0003FE00
03FF000FFC00
07FFFFFFF800
0FFFFFFFF000
0FFFFFFFC000
1F9FFFFF0000
1F03FFFC0000
0F001F800000
020000000000
ENDCHAR
STARTCHAR 00D9
ENCODING 217
SWIDTH 720 0
DWIDTH 48 0
BBX 37 64 6 -1
BITMAP
003F800000
003F800000
001FC00000
000FE00000
0007E00000
0003F00000
0001F80000
0000F80000
00007C0000
00003E0000
00001E0000
0000000000
0000000000
0000000000
0000000000
FC000001F8
FC000001F8
FC000001F8
FC000001F8
FC000001F8
FC000001F8
FC000001F8
FC000001F8
FC000001F8
FC000001F8
FC000001F8
FC000001F8
FC000001F8
FC000001F8
FC000001F8
FC000001F8
FC000001F8
FC000001F8
FC000001F8
FC000001F8
FC000001F8
FC000001F8
FC000001F8
FC000001F8
FC000001F8
FC000001F8
FC000001F8
FC000001F8
FC000001F8
FC000001F8
FC000001F8
FC000001F8
FC000001F8
FC000001F8
FC000003F0
FC000003F0
7E000003F0
7E000007F0
7F000007E0
3F00000FE0
3F80001FC0
1FE0003FC0
1FF800FF80
0FFFFFFF00
07FFFFFE00
03FFFFFC00
00FFFFF000
003FFFC000
0000FC0000
ENDCHAR
STARTCHAR 00DA
ENCODING 218
SWIDTH 720 0
DWIDTH 48 0
BBX 37 64 6 -1
BITMAP
000007F000
00000FF000
00000FE000
00001FC000
00001F8000
00003F0000
00007E0000
00007C0000
0000F80000
0001F00000
0001E00000
0000000000
0000000000
0000000000
0000000000
FC000001F8
FC000001F8
FC000001F8
FC000001F8
FC000001F8
FC000001F8
FC000001F8
FC000001F8
FC000001F8
FC000001F8
FC000001F8
FC000001F8
FC000001F8
FC000001F8
FC000001F8
FC000001F8
FC000001F8
FC000001F8
FC000001F8
FC000001F8
FC000001F8
FC000001F8
FC000001F8
FC000001F8
FC000001F8
FC000001F8
FC000001F8
FC000001F8
FC000001F8
FC000001F8
FC000001F8
FC000001F8
FC000001F8
FC000001F8
FC000003F0
FC000003F0
7E000003F0
7E000007F0
7F000007E0
3F00000FE0
3F80001FC0
1FE0003FC0
1FF800FF80
0FFFFFFF00
07FFFFFE00
03FFFFFC00
00FFFFF000
003FFFC000
0000FC0000
ENDCHAR
STARTCHAR 00DB
ENCODING 219
SWIDTH 720 0
DWIDTH 48 0
BBX 37 64 6 -1
BITMAP
0001FC0000
0003FC0000
0003FE0000
0007FF0000
000FFF8000
001F9F8000
003F0FC000
007E07E000
007C03F000
00F800F800
01E0007C00
0000000000
0000000000
0000000000
0000000000
FC000001F8
FC000001F8
FC000001F8
FC000001F8
FC000001F8
FC000001F8
FC000001F8
FC000001F8
FC000001F8
FC000001F8
FC000001F8
FC000001F8
FC000001F8
FC000001F8
FC000001F8
FC000001F8
FC000001F8
FC000001F8
FC000001F8
FC000001F8
FC000001F8
FC000001F8
FC000001F8
FC000001F8
FC000001F8
FC000001F8
FC000001F8
FC000001F8
FC000001F8
FC000001F8
FC000001F8
FC000001F8
FC000001F8
FC000001F8
FC000003F0
FC000003F0
7E000003F0
7E000007F0
7F000007E0
3F00000FE0
3F80001FC0
1FE0003FC0
1FF800FF80
0FFFFFFF00
07FFFFFE00
03FFFFFC00
00FFFFF000
003FFFC000
0000FC0000
ENDCHAR
STARTCHAR 00DC
ENCODING 220
SWIDTH 720 0
DWIDTH 48 0
BBX 37 62 6 -1
BITMAP
0000008000
003E03E000
007E03F000
007E03F000
007E03F000
007E03E000
003C01E000
0000000000
0000000000
0000000000
0000000000
0000000000
0000000000
FC000001F8
FC000001F8
FC000001F8
FC000001F8
FC000001F8
FC000001F8
FC000001F8
FC000001F8
FC000001F8
FC000001F8
FC000001F8
FC000001F8
FC000001F8
FC000001F8
FC000001F8
FC000001F8
FC000001F8
FC000001F8
FC000001F8
FC000001F8
FC000001F8
FC000001F8
FC000001F8
FC000001F8
FC000001F8
FC000001F8
FC000001F8
FC000001F8
FC000001F8
FC000001F8
FC000001F8
FC000001F8
FC000001F8
FC000001F8
FC000003F0
FC000003F0
7E000003F0
7E000007F0
7F000007E0
3F00000FE0
3F80001FC0
1FE0003FC0
1FF800FF80
0FFFFFFF00
07FFFFFE00
03FFFFFC00
00FFFFF000
003FFFC000
0000FC0000
ENDCHAR
STARTCHAR 00DD
ENCODING 221
SWIDTH 555 0
DWIDTH 37 0
BBX 38 63 0 0
BITMAP
000007F800
000007F000
00000FE000
00000FE000
00001FC000
00003F8000
00003F0000
00007E0000
0000FC0000
0000F80000
0001F00000
0000000000
0000000000
0000000000
0000000000
FE000001FC
7E000001F8
7F000003F8
3F000003F0
3F800007F0
1F800007E0
1FC0000FC0
0FC0001FC0
0FE0001F80
07E0003F80
07F0003F00
03F0007F00
01F8007E00
01F800FE00
00FC00FC00
00FE01FC00
007E01F800
007F03F000
003F03F000
003F87E000
001F87E000
001FCFC000
000FCFC000
000FFF8000
0007FF8000
0003FF0000
0003FF0000
0001FE0000
0001FC0000
0000FC0000
0000FC0000
0000FC0000
0000FC0000
0000FC0000
0000FC0000
0000FC0000
0000FC0000
0000FC0000
0000FC0000
0000FC0000
0000FC0000
0000FC0000
0000FC0000
0000FC0000
0000FC0000
0000FC0000
0000FC0000
0000FC0000
ENDCHAR
STARTCHAR 00DE
ENCODING 222
SWIDTH 600 0
DWIDTH 40 0
BBX 31 48 6 0
BITMAP
FC000000
FC000000
FC000000
FC000000
FC000000
FC000000
FC000000
FC000000
FC000000
FFFFF800
FFFFFF00
FFFFFFC0
FFFFFFE0
FFFFFFF0
FC003FF8
FC0007F8
FC0003FC
FC0001FC
FC0000FC
FC0000FE
FC0000FE
FC00007E
FC00007E
FC00007E
FC00007E
FC0000FE
FC0000FC
FC0000FC
FC0001FC
FC0001F8
FC0007F8
FC001FF0
FC03FFE0
FFFFFFC0
FFFFFF80
FFFFFE00
FFFFF800
FFFF0000
FC000000
FC000000
FC000000
FC000000
FC000000
FC000000
FC000000
FC000000
FC000000
FC000000
ENDCHAR
STARTCHAR 00DF
ENCODING 223
SWIDTH 630 0
DWIDTH 42 0
BBX 33 52 6 -1
BITMAP
007FF00000
03FFFE0000
0FFFFF8000
1FFFFFC000
3FFFFFE000
7FC01FF000
7F0007F000
FE0003F800
FC0001F800
FC0001F800
FC0001F800
FC0001F800
FC0003F000
FC0003F000
FC0007E000
FC000FE000
FC001FC000
FC007F8000
FC00FF0000
FC01FC0000
FC01F80000
FC03F00000
FC03F00000
FC03E00000
FC03F00000
FC03F00000
FC03F80000
FC01FE0000
FC01FF0000
FC00FF8000
FC007FE000
FC001FF000
FC000FF800
FC0007FC00
FC0001FE00
FC0000FF00
FC00007F00
FC00003F80
FC00001F80
FC00001F80
FC00001F80
FC00001F80
FC00001F80
FC00001F80
FC10003F80
FC1C003F00
FC1F80FF00
FC1FFFFE00
FC1FFFFC00
FC1FFFF800
FC07FFE000
00003E0000
ENDCHAR
STARTCHAR 00E0
ENCODING 224
SWIDTH 555 0
DWIDTH 37 0
BBX 29 52 3 -1
BITMAP
01FC0000
00FE0000
00FE0000
007F0000
003F8000
001F8000
000FC000
0007E000
0003E000
0001F000
0000F000
00000000
00000000
00000000
00000000
003FFC00
01FFFF80
0FFFFFC0
0FFFFFE0
07FC7FE0
07C00FF0
020003F0
000003F8
000001F8
000001F8
000001F8
000001F8
000001F8
000001F8
000003F8
003FFFF8
01FFFFF8
07FFFFF8
1FFFFFF8
3FF001F8
3F8001F8
7F0001F8
7E0001F8
FE0001F8
FC0001F8
FC0001F8
FC0003F8
FC0003F8
FE0007F8
FE000FF8
7F001FF8
7FC0FEF8
3FFFFCF8
1FFFF8F8
0FFFF0F8
07FFC078
00780000
ENDCHAR
STARTCHAR 00E1
ENCODING 225
SWIDTH 555 0
DWIDTH 37 0
BBX 29 52 3 -1
BITMAP
00003FC0
00003F80
00007F00
0000FE00
0000FC00
0001FC00
0001F800
0003F000
0007E000
000F8000
000F0000
00000000
00000000
00000000
00000000
003FFC00
01FFFF80
0FFFFFC0
0FFFFFE0
07FC7FE0
07C00FF0
020003F0
000003F8
000001F8
000001F8
000001F8
000001F8
000001F8
000001F8
000003F8
003FFFF8
01FFFFF8
07FFFFF8
1FFFFFF8
3FF001F8
3F8001F8
7F0001F8
7E0001F8
FE0001F8
FC0001F8
FC0001F8
FC0003F8
FC0003F8
FE0007F8
FE000FF8
7F001FF8
7FC0FEF8
3FFFFCF8
1FFFF8F8
0FFFF0F8
07FFC078
00780000
ENDCHAR
STARTCHAR 00E2
ENCODING 226
SWIDTH 555 0
DWIDTH 37 0
BBX 29 52 3 -1
BITMAP
000FE000
000FF000
001FF000
003FF800
007FFC00
00FE7E00
00FC3F00
01F01F80
03E00FC0
07C007E0
0F8001E0
00000000
00000000
00000000
00000000
003FFC00
01FFFF80
0FFFFFC0
0FFFFFE0
07FC7FE0
07C00FF0
020003F0
000003F8
000001F8
000001F8
000001F8
000001F8
000001F8
000001F8
000003F8
003FFFF8
01FFFFF8
07FFFFF8
1FFFFFF8
3FF001F8
3F8001F8
7F0001F8
7E0001F8
FE0001F8
FC0001F8
FC0001F8
FC0003F8
FC0003F8
FE0007F8
FE000FF8
7F001FF8
7FC0FEF8
3FFFFCF8
1FFFF8F8
0FFFF0F8
07FFC078
00780000
ENDCHAR
STARTCHAR 00E3
ENCODING 227
SWIDTH 555 0
DWIDTH 37 0
BBX 29 50 3 -1
BITMAP
00F800F0
01FE00F0
03FF80F0
07FFE1E0
07FFFFE0
0F07FFC0
0F01FF80
0E007F00
0E000C00
00000000
00000000
00000000
00000000
003FFC00
01FFFF80
0FFFFFC0
0FFFFFE0
07FC7FE0
07C00FF0
020003F0
000003F8
000001F8
000001F8
000001F8
000001F8
000001F8
000001F8
000003F8
003FFFF8
01FFFFF8
07FFFFF8
1FFFFFF8
3FF001F8
3F8001F8
7F0001F8
7E0001F8
FE0001F8
FC0001F8
FC0001F8
FC0003F8
FC0003F8
FE0007F8
FE000FF8
7F001FF8
7FC0FEF8
3FFFFCF8
1FFFF8F8
0FFFF0F8
07FFC078
00780000
ENDCHAR
STARTCHAR 00E4
ENCODING 228
SWIDTH 555 0
DWIDTH 37 0
BBX 29 50 3 -1
BITMAP
00E00600
01F01F80
03F81F80
03F81F80
03F81F80
01F01F80
00E00F00
00000000
00000000
00000000
00000000
00000000
00000000
003FFC00
01FFFF80
0FFFFFC0
0FFFFFE0
07FC7FE0
07C00FF0
020003F0
000003F8
000001F8
000001F8
000001F8
000001F8
000001F8
000001F8
000003F8
003FFFF8
01FFFFF8
07FFFFF8
1FFFFFF8
3FF001F8
3F8001F8
7F0001F8
7E0001F8
FE0001F8
FC0001F8
FC0001F8
FC0003F8
FC0003F8
FE0007F8
FE000FF8
7F001FF8
7FC0FEF8
3FFFFCF8
1FFFF8F8
0FFFF0F8
07FFC078
00780000
ENDCHAR
STARTCHAR 00E5
ENCODING 229
SWIDTH 555 0
DWIDTH 37 0
BBX 29 55 3 -1
BITMAP
000FF000
003FF800
007FFC00
00783C00
00701E00
00F01E00
00F01E00
00F01E00
00701E00
00783E00
007FFC00
003FF800
001FF000
00010000
00000000
00000000
00000000
00000000
003FFC00
01FFFF80
0FFFFFC0
0FFFFFE0
07FC7FE0
07C00FF0
020003F0
000003F8
000001F8
000001F8
000001F8
000001F8
000001F8
000001F8
000003F8
003FFFF8
01FFFFF8
07FFFFF8
1FFFFFF8
3FF001F8
3F8001F8
7F0001F8
7E0001F8
FE0001F8
FC0001F8
FC0001F8
FC0003F8
FC0003F8
FE0007F8
FE000FF8
7F001FF8
7FC0FEF8
3FFFFCF8
1FFFF8F8
0FFFF0F8
07FFC078
00780000
ENDCHAR
STARTCHAR 00E6
ENCODING 230
SWIDTH 855 0
DWIDTH 57 0
BBX 51 37 3 -1
BITMAP
007FF800FFC000
03FFFE03FFF800
1FFFFF07FFFC00
1FFFFF8FFFFE00
0FF8FFDFF3FF00
0F801FFF807F80
040007FE001F80
000007FE001FC0
000003FC000FC0
000003FC000FC0
000003F80007E0
000003F80007E0
000003F80007E0
000003F80007E0
000007F00007E0
003FFFFFFFFFE0
03FFFFFFFFFFE0
07FFFFFFFFFFE0
1FFFFFFFFFFFE0
3FF003F0000000
3F8003F0000000
7F0003F0000000
7E0003F8000000
FE0003F8000000
FC0003F8000000
FC0003F8000000
FC0007FC000000
FC0007FC000000
FC000FFE000000
FE001FFF000040
7F003F3F8003C0
7FC1FE3FF83FC0
3FFFFC1FFFFFC0
1FFFF80FFFFFC0
0FFFF003FFFF80
03FFC000FFFE00
007C000007C000
ENDCHAR
STARTCHAR 00E7
ENCODING 231
SWIDTH 480 0
DWIDTH 32 0
BBX 26 52 4 -16
BITMAP
003FFE00
00FFFFC0
03FFFF80
07FFFF80
0FFFFF80
1FF00700
3FC00000
3F800000
7F000000
7E000000
7E000000
FE000000
FC000000
FC000000
FC000000
FC000000
FC000000
FC000000
FC000000
FC000000
FC000000
FC000000
FC000000
FC000000
FE000000
7E000000
7E000000
7F000000
3F800000
3FC00000
1FE00180
0FFE3F80
0FFFFF80
03FFFF80
01FFFF80
007FFF00
0007E000
00078000
000F0000
000F0000
001FC000
001FF000
0003F800
0000F800
00007800
00007800
00007800
0000F800
00FFF800
00FFF000
00FFE000
00FF0000
ENDCHAR
STARTCHAR 00E8
ENCODING 232
SWIDTH 555 0
DWIDTH 37 0
BBX 30 52 4 -1
BITMAP
03FC0000
01FC0000
00FE0000
007E0000
007F0000
003F8000
001F8000
000FC000
0007E000
0003F000
0000F000
00000000
00000000
00000000
00000000
003FF800
00FFFE00
03FFFF80
07FFFFC0
0FFC7FE0
1FE00FE0
1F8007F0
3F0003F8
3F0001F8
7E0001F8
7E0001FC
FC0000FC
FC0000FC
FC0000FC
FC0000FC
FFFFFFFC
FFFFFFFC
FFFFFFFC
FFFFFFFC
FC000000
FC000000
FC000000
FC000000
FC000000
FE000000
7E000000
7E000000
7F000000
3F800000
3FC00008
1FF00078
0FFE0FF8
07FFFFF8
03FFFFF8
00FFFFF0
003FFF80
0003F800
ENDCHAR
STARTCHAR 00E9
ENCODING 233
SWIDTH 555 0
DWIDTH 37 0
BBX 30 52 4 -1
BITMAP
00007F80
00007F00
0000FE00
0000FE00
0001FC00
0003F800
0003F000
0007E000
000FC000
000F8000
001E0000
00000000
00000000
00000000
00000000
003FF800
00FFFE00
03FFFF80
07FFFFC0
0FFC7FE0
1FE00FE0
1F8007F0
3F0003F8
3F0001F8
7E0001F8
7E0001FC
FC0000FC
FC0000FC
FC0000FC
FC0000FC
FFFFFFFC
FFFFFFFC
FFFFFFFC
FFFFFFFC
FC000000
FC000000
FC000000
FC000000
FC000000
FE000000
7E000000
7E000000
7F000000
3F800000
3FC00008
1FF00078
0FFE0FF8
07FFFFF8
03FFFFF8
00FFFFF0
003FFF80
0003F800
ENDCHAR
STARTCHAR 00EA
ENCODING 234
SWIDTH 555 0
DWIDTH 37 0
BBX 30 52 4 -1
BITMAP
000FC000
001FE000
003FF000
007FF000
007FF800
00FCFC00
01F87E00
03F03F00
07E01F80
0F800FC0
0F0003C0
00000000
00000000
00000000
00000000
003FF800
00FFFE00
03FFFF80
07FFFFC0
0FFC7FE0
1FE00FE0
1F8007F0
3F0003F8
3F0001F8
7E0001F8
7E0001FC
FC0000FC
FC0000FC
FC0000FC
FC0000FC
FFFFFFFC
FFFFFFFC
FFFFFFFC
FFFFFFFC
FC000000
FC000000
FC000000
FC000000
FC000000
FE000000
7E000000
7E000000
7F000000
3F800000
3FC00008
1FF00078
0FFE0FF8
07FFFFF8
03FFFFF8
00FFFFF0
003FFF80
0003F800
ENDCHAR
STARTCHAR 00EB
ENCODING 235
SWIDTH 555 0
DWIDTH 37 0
BBX 30 50 4 -1
BITMAP
00C00C00
03E01F00
03F03F00
03F03F00
03F03F00
03E01F00
01C00E00
00000000
00000000
00000000
00000000
00000000
00000000
003FF800
00FFFE00
03FFFF80
07FFFFC0
0FFC7FE0
1FE00FE0
1F8007F0
3F0003F8
3F0001F8
7E0001F8
7E0001FC
FC0000FC
FC0000FC
FC0000FC
FC0000FC
FFFFFFFC
FFFFFFFC
FFFFFFFC
FFFFFFFC
FC000000
FC000000
FC000000
FC000000
FC000000
FE000000
7E000000
7E000000
7F000000
3F800000
3FC00008
1FF00078
0FFE0FF8
07FFFFF8
03FFFFF8
00FFFFF0
003FFF80
0003F800
ENDCHAR
STARTCHAR 00EC
ENCODING 236
SWIDTH 255 0
DWIDTH 17 0
BBX 13 51 0 0
BITMAP
FE00
7F00
7F00
3F80
1FC0
0FC0
07E0
03F0
01F0
00F8
0078
0000
0000
0000
0000
03F0
03F0
03F0
03F0
03F0
03F0
03F0
03F0
03F0
03F0
03F0
03F0
03F0
03F0
03F0
03F0
03F0
03F0
03F0
03F0
03F0
03F0
03F0
03F0
03F0
03F0
03F0
03F0
03F0
03F0
03F0
03F0
03F0
03F0
03F0
03F0
ENDCHAR
STARTCHAR 00ED
ENCODING 237
SWIDTH 255 0
DWIDTH 17 0
BBX 13 51 5 0
BITMAP
03F8
03F8
07F0
0FE0
0FC0
1F80
3F00
3E00
7C00
F800
F000
0000
0000
0000
0000
7E00
7E00
7E00
7E00
7E00
7E00
7E00
7E00
7E00
7E00
7E00
7E00
7E00
7E00
7E00
7E00
7E00
7E00
7E00
7E00
7E00
7E00
7E00
7E00
7E00
7E00
7E00
7E00
7E00
7E00
7E00
7E00
7E00
7E00
7E00
7E00
ENDCHAR
STARTCHAR 00EE
ENCODING 238
SWIDTH 255 0
DWIDTH 17 0
BBX 23 51 -3 0
BITMAP
00FE00
01FF00
01FF00
03FF80
07FFC0
0FEFE0
1F87F0
1F01F8
3E00FC
7C007E
F0001E
000000
000000
000000
000000
007E00
007E00
007E00
007E00
007E00
007E00
007E00
007E00
007E00
007E00
007E00
007E00
007E00
007E00
007E00
007E00
007E00
007E00
007E00
007E00
007E00
007E00
007E00
007E00
007E00
007E00
007E00
007E00
007E00
007E00
007E00
007E00
007E00
007E00
007E00
007E00
ENDCHAR
STARTCHAR 00EF
ENCODING 239
SWIDTH 255 0
DWIDTH 17 0
BBX 19 49 -1 0
BITMAP
380180
7C07C0
FC07E0
FE07E0
FC07E0
7C07E0
380380
000000
000000
000000
000000
000000
000000
01F800
01F800
01F800
01F800
01F800
01F800
01F800
01F800
01F800
01F800
01F800
01F800
01F800
01F800
01F800
01F800
01F800
01F800
01F800
01F800
01F800
01F800
01F800
01F800
01F800
01F800
01F800
01F800
01F800
01F800
01F800
01F800
01F800
01F800
01F800
01F800
ENDCHAR
STARTCHAR 00F0
ENCODING 240
SWIDTH 600 0
DWIDTH 40 0
BBX 33 52 4 -1
BITMAP
0020002000
007800E000
007E01F000
00FF87F800
007FDFF000
001FFFC000
000FFF8000
0003FE0000
000FFE0000
001FFF0000
007FFF8000
01FF1FC000
01FC0FE000
00F007E000
00E007F000
000003F000
000001F800
000000F800
000000FC00
0003807C00
007FFC7E00
01FFFF7E00
07FFFFBE00
0FFFFFFF00
1FF81FFF00
3FC003FF00
3F8000FF00
7F0000FF00
7E00007F80
FE00003F80
FC00003F80
FC00003F80
FC00001F80
FC00001F80
FC00001F80
FC00001F80
FC00001F80
FC00001F00
FC00003F00
FC00003F00
FC00003F00
7E00003E00
7E00007E00
7F0000FE00
3F8001FC00
1FC003F800
1FF80FF800
0FFFFFF000
03FFFFC000
01FFFF8000
007FFE0000
0003C00000
ENDCHAR
STARTCHAR 00F1
ENCODING 241
SWIDTH 615 0
DWIDTH 41 0
BBX 30 49 6 0
BITMAP
01F001E0
03FC01E0
07FF01C0
0FFFC7C0
1FFFFFC0
1E0FFF80
1E03FF00
1C00FE00
3C001000
00000000
00000000
00000000
00000000
F00FFE00
F87FFF80
F8FFFFC0
F9FFFFE0
FBFFFFF0
FFE00FF0
FF8003F8
FF0001F8
FE0001F8
FE0000FC
FC0000FC
FC0000FC
FC0000FC
FC0000FC
FC0000FC
FC0000FC
FC0000FC
FC0000FC
FC0000FC
FC0000FC
FC0000FC
FC0000FC
FC0000FC
FC0000FC
FC0000FC
FC0000FC
FC0000FC
FC0000FC
FC0000FC
FC0000FC
FC0000FC
FC0000FC
FC0000FC
FC0000FC
FC0000FC
FC0000FC
ENDCHAR
STARTCHAR 00F2
ENCODING 242
SWIDTH 600 0
DWIDTH 40 0
BBX 33 52 4 -1
BITMAP
00FE000000
00FE000000
007F000000
003F800000
001F800000
000FC00000
0007C00000
0003E00000
0001F00000
0000F80000
0000780000
0000000000
0000000000
0000000000
0000000000
003FFC0000
00FFFF0000
03FFFFC000
07FFFFE000
0FFFFFF000
1FE007F800
3FC001FC00
3F8000FC00
7F0000FE00
7E00007E00
7E00007F00
FE00003F00
FC00003F00
FC00003F00
FC00003F80
FC00001F80
FC00001F80
FC00001F80
FC00001F80
FC00001F80
FC00001F80
FC00003F80
FC00003F00
FC00003F00
FE00003F00
7E00007F00
7E00007E00
7F00007E00
3F8000FE00
1F8001FC00
1FE003F800
0FF81FF800
07FFFFF000
03FFFFC000
00FFFF8000
003FFE0000
0007C00000
ENDCHAR
STARTCHAR 00F3
ENCODING 243
SWIDTH 600 0
DWIDTH 40 0
BBX 33 52 4 -1
BITMAP
00001FC000
00003F8000
00003F8000
00007F0000
0000FE0000
0000FC0000
0001F80000
0003F00000
0003E00000
0007C00000
0007800000
0000000000
0000000000
0000000000
0000000000
003FFC0000
00FFFF0000
03FFFFC000
07FFFFE000
0FFFFFF000
1FE007F800
3FC001FC00
3F8000FC00
7F0000FE00
7E00007E00
7E00007F00
FE00003F00
FC00003F00
FC00003F00
FC00003F80
FC00001F80
FC00001F80
FC00001F80
FC00001F80
FC00001F80
FC00001F80
FC00003F80
FC00003F00
FC00003F00
FE00003F00
7E00007F00
7E00007E00
7F00007E00
3F8000FE00
1F8001FC00
1FE003F800
0FF81FF800
07FFFFF000
03FFFFC000
00FFFF8000
003FFE0000
0007C00000
ENDCHAR
STARTCHAR 00F4
ENCODING 244
SWIDTH 600 0
DWIDTH 40 0
BBX 33 52 4 -1
BITMAP
0007E00000
000FF00000
001FF80000
001FFC0000
003FFC0000
007E7E0000
00FC3F0000
01F81F8000
03F00FC000
07C003E000
078001E000
0000000000
0000000000
0000000000
0000000000
003FFC0000
00FFFF0000
03FFFFC000
07FFFFE000
0FFFFFF000
1FE007F800
3FC001FC00
3F8000FC00
7F0000FE00
7E00007E00
7E00007F00
FE00003F00
FC00003F00
FC00003F00
FC00003F80
FC00001F80
FC00001F80
FC00001F80
FC00001F80
FC00001F80
FC00001F80
FC00003F80
FC00003F00
FC00003F00
FE00003F00
7E00007F00
7E00007E00
7F00007E00
3F8000FE00
1F8001FC00
1FE003F800
0FF81FF800
07FFFFF000
03FFFFC000
00FFFF8000
003FFE0000
0007C00000
ENDCHAR
STARTCHAR 00F5
ENCODING 245
SWIDTH 600 0
DWIDTH 40 0
BBX 33 50 4 -1
BITMAP
007C007000
01FF007000
03FFC0F000
07FFF1F000
07FFFFE000
0783FFE000
0F00FFC000
0F007F8000
0E00040000
0000000000
0000000000
0000000000
0000000000
003FFC0000
00FFFF0000
03FFFFC000
07FFFFE000
0FFFFFF000
1FE007F800
3FC001FC00
3F8000FC00
7F0000FE00
7E00007E00
7E00007F00
FE00003F00
FC00003F00
FC00003F00
FC00003F80
FC00001F80
FC00001F80
FC00001F80
FC00001F80
FC00001F80
FC00001F80
FC00003F80
FC00003F00
FC00003F00
FE00003F00
7E00007F00
7E00007E00
7F00007E00
3F8000FE00
1F8001FC00
1FE003F800
0FF81FF800
07FFFFF000
03FFFFC000
00FFFF8000
003FFE0000
0007C00000
ENDCHAR
STARTCHAR 00F6
ENCODING 246
SWIDTH 600 0
DWIDTH 40 0
BBX 33 50 4 -1
BITMAP
0060070000
01F80F8000
01F81F8000
01F81FC000
01F81FC000
01F80F8000
00F0070000
0000000000
0000000000
0000000000
0000000000
0000000000
0000000000
003FFC0000
00FFFF0000
03FFFFC000
07FFFFE000
0FFFFFF000
1FE007F800
3FC001FC00
3F8000FC00
7F0000FE00
7E00007E00
7E00007F00
FE00003F00
FC00003F00
FC00003F00
FC00003F80
FC00001F80
FC00001F80
FC00001F80
FC00001F80
FC00001F80
FC00001F80
FC00003F80
FC00003F00
FC00003F00
FE00003F00
7E00007F00
7E00007E00
7F00007E00
3F8000FE00
1F8001FC00
1FE003F800
0FF81FF800
07FFFFF000
03FFFFC000
00FFFF8000
003FFE0000
0007C00000
ENDCHAR
STARTCHAR 00F7
ENCODING 247
SWIDTH 570 0
DWIDTH 38 0
BBX 32 31 3 8
BITMAP
0003C000
0007E000
000FE000
000FF000
000FF000
000FF000
0007E000
0003C000
00000000
00000000
00000000
00000000
00000000
FFFFFFFF
FFFFFFFF
FFFFFFFF
FFFFFFFF
FFFFFFFF
00000000
00000000
00000000
00000000
00000000
0003C000
0007E000
000FF000
000FF000
000FF000
000FE000
0007E000
0003C000
ENDCHAR
STARTCHAR 00F8
ENCODING 248
SWIDTH 600 0
DWIDTH 40 0
BBX 33 40 4 -2
BITMAP
0000001000
0000001C00
003FFC3E00
00FFFF7E00
03FFFFFC00
07FFFFFC00
0FFFFFF800
1FE007F800
3FC003FC00
3F8007FC00
7F000FFE00
7E000FFE00
7E001FFF00
FE003F3F00
FC007E3F00
FC007E3F00
FC00FC3F00
FC01F81F80
FC01F01F80
FC03F01F80
FC07E01F80
FC0FC01F80
FC0FC01F80
FC1F803F80
FC3F003F00
FC3E003F00
FC7E003F00
7EFC007F00
7FF8007E00
7FF0007E00
3FF000FE00
3FE001FC00
1FE003F800
0FFC1FF800
1FFFFFF000
3FFFFFC000
3FFFFF8000
7E3FFE0000
3C07C00000
0800000000
ENDCHAR
STARTCHAR 00F9
ENCODING 249
SWIDTH 615 0
DWIDTH 41 0
BBX 31 52 5 -1
BITMAP
01FC0000
00FE0000
00FE0000
007F0000
003F8000
001F8000
000FC000
0007E000
0003E000
0001F000
0000F000
00000000
00000000
00000000
00000000
FC00007E
FC00007E
FC00007E
FC00007E
FC00007E
FC00007E
FC00007E
FC00007E
FC00007E
FC00007E
FC00007E
FC00007E
FC00007E
FC00007E
FC00007E
FC00007E
FC00007E
FC00007E
FC00007E
FC00007E
FC00007E
FC00007E
FC0000FE
FC0000FE
FC0000FE
FC0000FE
FE0001FE
7E0001FE
7E0003FE
7F0007FE
7F800FFE
3FF07F7E
1FFFFF7E
1FFFFE7E
07FFFC7E
03FFF03E
003E0000
ENDCHAR
STARTCHAR 00FA
ENCODING 250
SWIDTH 615 0
DWIDTH 41 0
BBX 31 52 5 -1
BITMAP
00003F80
00003F80
00007F00
0000FE00
0000FC00
0001F800
0003F000
0003E000
0007C000
000F8000
000F0000
00000000
00000000
00000000
00000000
FC00007E
FC00007E
FC00007E
FC00007E
FC00007E
FC00007E
FC00007E
FC00007E
FC00007E
FC00007E
FC00007E
FC00007E
FC00007E
FC00007E
FC00007E
FC00007E
FC00007E
FC00007E
FC00007E
FC00007E
FC00007E
FC00007E
FC0000FE
FC0000FE
FC0000FE
FC0000FE
FE0001FE
7E0001FE
7E0003FE
7F0007FE
7F800FFE
3FF07F7E
1FFFFF7E
1FFFFE7E
07FFFC7E
03FFF03E
003E0000
ENDCHAR
STARTCHAR 00FB
ENCODING 251
SWIDTH 615 0
DWIDTH 41 0
BBX 31 52 5 -1
BITMAP
000FE000
001FF000
001FF000
003FF800
007FFC00
00FEFE00
01F87F00
01F01F80
03E00FC0
07C007E0
0F0001E0
00000000
00000000
00000000
00000000
FC00007E
FC00007E
FC00007E
FC00007E
FC00007E
FC00007E
FC00007E
FC00007E
FC00007E
FC00007E
FC00007E
FC00007E
FC00007E
FC00007E
FC00007E
FC00007E
FC00007E
FC00007E
FC00007E
FC00007E
FC00007E
FC00007E
FC0000FE
FC0000FE
FC0000FE
FC0000FE
FE0001FE
7E0001FE
7E0003FE
7F0007FE
7F800FFE
3FF07F7E
1FFFFF7E
1FFFFE7E
07FFFC7E
03FFF03E
003E0000
ENDCHAR
STARTCHAR 00FC
ENCODING 252
SWIDTH 615 0
DWIDTH 41 0
BBX 31 50 5 -1
BITMAP
00E00600
01F01F00
03F01F80
03F81F80
03F01F80
01F01F80
00E00E00
00000000
00000000
00000000
00000000
00000000
00000000
FC00007E
FC00007E
FC00007E
FC00007E
FC00007E
FC00007E
FC00007E
FC00007E
FC00007E
FC00007E
FC00007E
FC00007E
FC00007E
FC00007E
FC00007E
FC00007E
FC00007E
FC00007E
FC00007E
FC00007E
FC00007E
FC00007E
FC0000FE
FC0000FE
FC0000FE
FC0000FE
FE0001FE
7E0001FE
7E0003FE
7F0007FE
7F800FFE
3FF07F7E
1FFFFF7E
1FFFFE7E
07FFFC7E
03FFF03E
003E0000
ENDCHAR
STARTCHAR 00FD
ENCODING 253
SWIDTH 510 0
DWIDTH 34 0
BBX 34 67 0 -16
BITMAP
00001FE000
00001FC000
00003F8000
00003F8000
00007F0000
0000FE0000
0000FC0000
0001F80000
0003F00000
0003E00000
0007800000
0000000000
0000000000
0000000000
0000000000
FC00000FC0
7E00001FC0
7E00001F80
7F00001F80
3F00003F00
3F00003F00
1F80007F00
1F80007E00
1F80007E00
0FC000FE00
0FC000FC00
07E000FC00
07E001F800
07E001F800
03F001F800
03F003F000
01F803F000
01F807E000
01F807E000
00FC07E000
00FC0FC000
007C0FC000
007E0FC000
007E1F8000
003E1F8000
003F1F0000
001F3F0000
001F3F0000
001FBE0000
000FBE0000
000FFE0000
0007FC0000
0007FC0000
0007F80000
0003F80000
0003F80000
0003F00000
0003F00000
0003F00000
0007E00000
0007E00000
000FC00000
000FC00000
001FC00000
001F800000
003F000000
00FF000000
7FFE000000
7FFC000000
7FF8000000
7FF0000000
7FC0000000
ENDCHAR
STARTCHAR 00FE
ENCODING 254
SWIDTH 615 0
DWIDTH 41 0
BBX 31 67 6 -16
BITMAP
FC000000
FC000000
FC000000
FC000000
FC000000
FC000000
FC000000
FC000000
FC000000
FC000000
FC000000
FC000000
FC000000
FC000000
FC000000
FC1FFC00
FC7FFF00
F8FFFF80
F9FFFFE0
FBFFFFE0
FFE00FF0
FF8003F8
FF0001F8
FE0001FC
FE0000FC
FC0000FC
FC0000FE
FC00007E
FC00007E
FC00007E
FC00007E
FC00007E
FC00007E
FC00007E
FC00007E
FC00007E
FC00007E
FC00007E
FC00007E
FC00007E
FC0000FC
FE0000FC
FE0001FC
FF0001F8
FF8003F8
FFC007F0
FBF83FF0
FBFFFFE0
F9FFFFC0
F87FFF00
F83FFE00
FC01C000
FC000000
FC000000
FC000000
FC000000
FC000000
FC000000
FC000000
FC000000
FC000000
FC000000
FC000000
FC000000
FC000000
FC000000
FC000000
ENDCHAR
STARTCHAR 00FF
ENCODING 255
SWIDTH 510 0
DWIDTH 34 0
BBX 34 65 0 -16
BITMAP
0030030000
00F807C000
00FC0FC000
00FC0FC000
00FC0FC000
00F807C000
0070038000
0000000000
0000000000
0000000000
0000000000
0000000000
0000000000
FC00000FC0
7E00001FC0
7E00001F80
7F00001F80
3F00003F00
3F00003F00
1F80007F00
1F80007E00
1F80007E00
0FC000FE00
0FC000FC00
07E000FC00
07E001F800
07E001F800
03F001F800
03F003F000
01F803F000
01F807E000
01F807E000
00FC07E000
00FC0FC000
007C0FC000
007E0FC000
007E1F8000
003E1F8000
003F1F0000
001F3F0000
001F3F0000
001FBE0000
000FBE0000
000FFE0000
0007FC0000
0007FC0000
0007F80000
0003F80000
0003F80000
0003F00000
0003F00000
0003F00000
0007E00000
0007E00000
000FC00000
000FC00000
001FC00000
001F800000
003F000000
00FF000000
7FFE000000
7FFC000000
7FF8000000
7FF0000000
7FC0000000
ENDCHAR
STARTCHAR 0100
ENCODING 256
SWIDTH 630 0
DWIDTH 42 0
BBX 42 57 0 0
BITMAP
001FFFFE0000
001FFFFE0000
001FFFFE0000
001FFFFE0000
001FFFFE0000
000000000000
000000000000
000000000000
000000000000
00003F000000
00003F800000
00003F800000
00007F800000
00007FC00000
00007FC00000
0000FFC00000
0000FBE00000
0001FBE00000
0001F3F00000
0001F3F00000
0003F1F00000
0003E1F80000
0007E1F80000
0007E0FC0000
0007C0FC0000
000FC07C0000
000FC07E0000
001F807E0000
001F803E0000
001F803F0000
003F003F0000
003F001F8000
003E001F8000
007E000F8000
007E000FC000
00FC000FC000
00FC0007E000
00FFFFFFE000
01FFFFFFE000
01FFFFFFF000
03FFFFFFF000
03FFFFFFF800
03F00001F800
07E00001F800
07E00001FC00
0FE00000FC00
0FC00000FC00
0FC000007E00
1F8000007E00
1F8000007F00
1F8000003F00
3F0000003F00
3F0000001F80
7E0000001F80
7E0000001FC0
7E0000000FC0
FC0000000FC0
ENDCHAR
STARTCHAR 0101
ENCODING 257
SWIDTH 555 0
DWIDTH 37 0
BBX 29 46 3 -1
BITMAP
03FFFFC0
03FFFFC0
03FFFFC0
03FFFFC0
03FFFFC0
00000000
00000000
00000000
00000000
003FFC00
01FFFF80
0FFFFFC0
0FFFFFE0
07FC7FE0
07C00FF0
020003F0
000003F8
000001F8
000001F8
000001F8
000001F8
000001F8
000001F8
000003F8
003FFFF8
01FFFFF8
07FFFFF8
1FFFFFF8
3FF001F8
3F8001F8
7F0001F8
7E0001F8
FE0001F8
FC0001F8
FC0001F8
FC0003F8
FC0003F8
FE0007F8
FE000FF8
7F001FF8
7FC0FEF8
3FFFFCF8
1FFFF8F8
0FFFF0F8
07FFC078
00780000
ENDCHAR
STARTCHAR 0102
ENCODING 258
SWIDTH 630 0
DWIDTH 42 0
BBX 42 61 0 0
BITMAP
001E000E0000
001E001E0000
001E001E0000
000F807E0000
000FFFFC0000
0007FFF80000
0003FFF00000
0001FFE00000
00003F000000
000000000000
000000000000
000000000000
000000000000
00003F000000
00003F800000
00003F800000
00007F800000
00007FC00000
00007FC00000
0000FFC00000
0000FBE00000
0001FBE00000
0001F3F00000
0001F3F00000
0003F1F00000
0003E1F80000
0007E1F80000
0007E0FC0000
0007C0FC0000
000FC07C0000
000FC07E0000
001F807E0000
001F803E0000
001F803F0000
003F003F0000
003F001F8000
003E001F8000
007E000F8000
007E000FC000
00FC000FC000
00FC0007E000
00FFFFFFE000
01FFFFFFE000
01FFFFFFF000
03FFFFFFF000
03FFFFFFF800
03F00001F800
07E00001F800
07E00001FC00
0FE00000FC00
0FC00000FC00
0FC000007E00
1F8000007E00
1F8000007F00
1F8000003F00
3F0000003F00
3F0000001F80
7E0000001F80
7E0000001FC0
7E0000000FC0
FC0000000FC0
ENDCHAR
STARTCHAR 0103
ENCODING 259
SWIDTH 555 0
DWIDTH 37 0
BBX 29 50 3 -1
BITMAP
078003C0
038003C0
03C00780
03F01F80
01FFFF00
01FFFF00
00FFFE00
003FF800
0007C000
00000000
00000000
00000000
00000000
003FFC00
01FFFF80
0FFFFFC0
0FFFFFE0
07FC7FE0
07C00FF0
020003F0
000003F8
000001F8
000001F8
000001F8
000001F8
000001F8
000001F8
000003F8
003FFFF8
01FFFFF8
07FFFFF8
1FFFFFF8
3FF001F8
3F8001F8
7F0001F8
7E0001F8
FE0001F8
FC0001F8
FC0001F8
FC0003F8
FC0003F8
FE0007F8
FE000FF8
7F001FF8
7FC0FEF8
3FFFFCF8
1FFFF8F8
0FFFF0F8
07FFC078
00780000
ENDCHAR
STARTCHAR 0104
ENCODING 260
SWIDTH 630 0
DWIDTH 42 0
BBX 43 63 0 -15
BITMAP
00003F000000
00003F800000
00003F800000
00007F800000
00007FC00000
00007FC00000
0000FFC00000
0000FBE00000
0001FBE00000
0001F3F00000
0001F3F00000
0003F1F00000
0003E1F80000
0007E1F80000
0007E0FC0000
0007C0FC0000
000FC07C0000
000FC07E0000
001F807E0000
001F803E0000
001F803F0000
003F003F0000
003F001F8000
003E001F8000
007E000F8000
007E000FC000
00FC000FC000
00FC0007E000
00FFFFFFE000
01FFFFFFE000
01FFFFFFF000
03FFFFFFF000
03FFFFFFF800
03F00001F800
07E00001F800
07E00001FC00
0FE00000FC00
0FC00000FC00
0FC000007E00
1F8000007E00
1F8000007F00
1F8000003F00
3F0000003F00
3F0000001F80
7E0000001F80
7E0000001FC0
7E0000000FC0
FC0000000FC0
000000000F00
000000001E00
000000003C00
000000007C00
000000007800
00000000F800
00000000F000
00000000F000
00000000F000
00000000F800
00000000FC20
00000000FFE0
000000007FE0
000000003FE0
000000000780
ENDCHAR
STARTCHAR 0105
ENCODING 261
SWIDTH 555 0
DWIDTH 37 0
BBX 31 51 3 -15
BITMAP
003FFC00
01FFFF80
0FFFFFC0
0FFFFFE0
07FC7FE0
07C00FF0
020003F0
000003F8
000001F8
000001F8
000001F8
000001F8
000001F8
000001F8
000003F8
003FFFF8
01FFFFF8
07FFFFF8
1FFFFFF8
3FF001F8
3F8001F8
7F0001F8
7E0001F8
FE0001F8
FC0001F8
FC0001F8
FC0003F8
FC0003F8
FE0007F8
FE000FF8
7F001FF8
7FC0FEF8
3FFFFCF8
1FFFF8F8
0FFFF0F8
07FFC078
007800F0
000001E0
000003E0
000007C0
00000780
00000F80
00000F80
00000F80
00000F80
00000F80
00000FC2
00000FFE
000007FE
000003FE
00000078
ENDCHAR
STARTCHAR 0106
ENCODING 262
SWIDTH 630 0
DWIDTH 42 0
BBX 36 64 4 -1
BITMAP
000000FE00
000001FE00
000001FC00
000003F800
000003F000
000007E000
00000FC000
00000F8000
00001F0000
00003E0000
00003C0000
0000000000
0000000000
0000000000
0000000000
0000FFFC00
0007FFFFC0
001FFFFFF0
007FFFFFF0
00FFFFFFE0
01FFC00FE0
03FF0001C0
07FC000040
0FF0000000
0FE0000000
1FC0000000
1FC0000000
3F80000000
3F80000000
7F00000000
7F00000000
7E00000000
7E00000000
FE00000000
FE00000000
FE00000000
FE00000000
FC00000000
FC00000000
FC00000000
FC00000000
FC00000000
FE00000000
FE00000000
FE00000000
7E00000000
7E00000000
7F00000000
7F00000000
7F00000000
3F80000000
3F80000000
1FC0000000
1FE0000000
0FF0000000
0FF8000000
07FC000000
03FF8003C0
01FFFFFFC0
00FFFFFFC0
003FFFFFC0
001FFFFFC0
0003FFFF00
00003F0000
ENDCHAR
STARTCHAR 0107
ENCODING 263
SWIDTH 480 0
DWIDTH 32 0
BBX 26 52 4 -1
BITMAP
00007F80
00007F00
0000FE00
0000FE00
0001FC00
0003F800
0003F000
0007E000
000FC000
000F8000
001E0000
00000000
00000000
00000000
00000000
003FFE00
00FFFFC0
03FFFF80
07FFFF80
0FFFFF80
1FF00700
3FC00000
3F800000
7F000000
7E000000
7E000000
FE000000
FC000000
FC000000
FC000000
FC000000
FC000000
FC000000
FC000000
FC000000
FC000000
FC000000
FC000000
FC000000
FE000000
7E000000
7E000000
7F000000
3F800000
3FC00000
1FE00180
0FFE3F80
0FFFFF80
03FFFF80
01FFFF80
007FFF00
0003E000
ENDCHAR
STARTCHAR 0108
ENCODING 264
SWIDTH 630 0
DWIDTH 42 0
BBX 36 64 4 -1
BITMAP
00003F8000
00007F8000
00007FC000
0000FFE000
0001FFF000
0003F3F000
0007E1F800
000FC0FC00
001F807E00
001F001F00
003C000F80
0000000000
0000000000
0000000000
0000000000
0000FFFC00
0007FFFFC0
001FFFFFF0
007FFFFFF0
00FFFFFFE0
01FFC00FE0
03FF0001C0
07FC000040
0FF0000000
0FE0000000
1FC0000000
1FC0000000
3F80000000
3F80000000
7F00000000
7F00000000
7E00000000
7E00000000
FE00000000
FE00000000
FE00000000
FE00000000
FC00000000
FC00000000
FC00000000
FC00000000
FC00000000
FE00000000
FE00000000
FE00000000
7E00000000
7E00000000
7F00000000
7F00000000
7F00000000
3F80000000
3F80000000
1FC0000000
1FE0000000
0FF0000000
0FF8000000
07FC000000
03FF8003C0
01FFFFFFC0
00FFFFFFC0
003FFFFFC0
001FFFFFC0
0003FFFF00
00003F0000
ENDCHAR
STARTCHAR 0109
ENCODING 265
SWIDTH 480 0
DWIDTH 32 0
BBX 26 52 4 -1
BITMAP
000FC000
001FE000
003FF000
007FF000
00FFF800
00FCFC00
01F87E00
03F03F00
07E01F80
0F800FC0
0F0003C0
00000000
00000000
00000000
00000000
003FFE00
00FFFFC0
03FFFF80
07FFFF80
0FFFFF80
1FF00700
3FC00000
3F800000
7F000000
7E000000
7E000000
FE000000
FC000000
FC000000
FC000000
FC000000
FC000000
FC000000
FC000000
FC000000
FC000000
FC000000
FC000000
FC000000
FE000000
7E000000
7E000000
7F000000
3F800000
3FC00000
1FE00180
0FFE3F80
0FFFFF80
03FFFF80
01FFFF80
007FFF00
0003E000
ENDCHAR
STARTCHAR 010A
ENCODING 266
SWIDTH 630 0
DWIDTH 42 0
BBX 36 62 4 -1
BITMAP
00001E0000
00003F0000
00003F8000
00003F8000
00003F8000
00003F0000
00001F0000
0000000000
0000000000
0000000000
0000000000
0000000000
0000000000
0000FFFC00
0007FFFFC0
001FFFFFF0
007FFFFFF0
00FFFFFFE0
01FFC00FE0
03FF0001C0
07FC000040
0FF0000000
0FE0000000
1FC0000000
1FC0000000
3F80000000
3F80000000
7F00000000
7F00000000
7E00000000
7E00000000
FE00000000
FE00000000
FE00000000
FE00000000
FC00000000
FC00000000
FC00000000
FC00000000
FC00000000
FE00000000
FE00000000
FE00000000
7E00000000
7E00000000
7F00000000
7F00000000
7F00000000
3F80000000
3F80000000
1FC0000000
1FE0000000
0FF0000000
0FF8000000
07FC000000
03FF8003C0
01FFFFFFC0
00FFFFFFC0
003FFFFFC0
001FFFFFC0
0003FFFF00
00003F0000
ENDCHAR
STARTCHAR 010B
ENCODING 267
SWIDTH 480 0
DWIDTH 32 0
BBX 26 50 4 -1
BITMAP
00078000
000FC000
000FC000
000FC000
000FC000
000FC000
00078000
00000000
00000000
00000000
00000000
00000000
00000000
003FFE00
00FFFFC0
03FFFF80
07FFFF80
0FFFFF80
1FF00700
3FC00000
3F800000
7F000000
7E000000
7E000000
FE000000
FC000000
FC000000
FC000000
FC000000
FC000000
FC000000
FC000000
FC000000
FC000000
FC000000
FC000000
FC000000
FE000000
7E000000
7E000000
7F000000
3F800000
3FC00000
1FE00180
0FFE3F80
0FFFFF80
03FFFF80
01FFFF80
007FFF00
0003E000
ENDCHAR
STARTCHAR 010C
ENCODING 268
SWIDTH 630 0
DWIDTH 42 0
BBX 36 64 4 -1
BITMAP
003E000F80
001F003F00
000F807E00
000FC0FC00
0007F1F800
0003FBF000
0001FFE000
0000FFE000
00007FC000
00007F8000
00003F0000
0000000000
0000000000
0000000000
0000000000
0000FFFC00
0007FFFFC0
001FFFFFF0
007FFFFFF0
00FFFFFFE0
01FFC00FE0
03FF0001C0
07FC000040
0FF0000000
0FE0000000
1FC0000000
1FC0000000
3F80000000
3F80000000
7F00000000
7F00000000
7E00000000
7E00000000
FE00000000
FE00000000
FE00000000
FE00000000
FC00000000
FC00000000
FC00000000
FC00000000
FC00000000
FE00000000
FE00000000
FE00000000
7E00000000
7E00000000
7F00000000
7F00000000
7F00000000
3F80000000
3F80000000
1FC0000000
1FE0000000
0FF0000000
0FF8000000
07FC000000
03FF8003C0
01FFFFFFC0
00FFFFFFC0
003FFFFFC0
001FFFFFC0
0003FFFF00
00003F0000
ENDCHAR
STARTCHAR 010D
ENCODING 269
SWIDTH 480 0
DWIDTH 32 0
BBX 26 52 4 -1
BITMAP
0F8007C0
0FC00F80
07E01F80
03F07F00
01F8FE00
00FDFC00
007FF800
003FF000
003FE000
001FE000
000FC000
00000000
00000000
00000000
00000000
003FFE00
00FFFFC0
03FFFF80
07FFFF80
0FFFFF80
1FF00700
3FC00000
3F800000
7F000000
7E000000
7E000000
FE000000
FC000000
FC000000
FC000000
FC000000
FC000000
FC000000
FC000000
FC000000
FC000000
FC000000
FC000000
FC000000
FE000000
7E000000
7E000000
7F000000
3F800000
3FC00000
1FE00180
0FFE3F80
0FFFFF80
03FFFF80
01FFFF80
007FFF00
0003E000
ENDCHAR
STARTCHAR 010E
ENCODING 270
SWIDTH 720 0
DWIDTH 48 0
BBX 39 63 6 0
BITMAP
01E0007800
01F801F800
00FC03F000
007E07E000
003F0FC000
001F9F8000
000FFF0000
0007FE0000
0003FC0000
0003FC0000
0001F80000
0000000000
0000000000
0000000000
0000000000
FFFFC00000
FFFFFF0000
FFFFFFC000
FFFFFFF000
FFFFFFFC00
FFFFFFFE00
FC0007FF00
FC0000FF80
FC00003FC0
FC00001FE0
FC00000FF0
FC000007F0
FC000003F8
FC000003F8
FC000001F8
FC000001FC
FC000001FC
FC000000FC
FC000000FC
FC000000FC
FC000000FC
FC000000FE
FC000000FE
FC000000FE
FC000000FE
FC000000FE
FC000000FE
FC000000FC
FC000000FC
FC000000FC
FC000000FC
FC000001FC
FC000001FC
FC000001F8
FC000003F8
FC000003F0
FC000007F0
FC00000FE0
FC00001FE0
FC00003FC0
FC0000FF80
FC0003FF00
FC003FFE00
FFFFFFFC00
FFFFFFF800
FFFFFFE000
FFFFFF0000
FFFFF00000
ENDCHAR
STARTCHAR 010F
ENCODING 271
SWIDTH 615 0
DWIDTH 41 0
BBX 42 52 4 -1
BITMAP
0000007E0FC0
0000007E0FC0
0000007E0F80
0000007E0F80
0000007E1F80
0000007E1F00
0000007E1F00
0000007E1E00
0000007E3E00
0000007E3C00
0000007E3800
0000007E0000
0000007E0000
0000007E0000
0000007E0000
007FF07E0000
01FFFC3E0000
03FFFE3E0000
0FFFFF3E0000
0FFEFFBE0000
1FE00FFE0000
3FC003FE0000
3F8001FE0000
7F0000FE0000
7E0000FE0000
7E0000FE0000
FE00007E0000
FC00007E0000
FC00007E0000
FC00007E0000
FC00007E0000
FC00007E0000
FC00003E0000
FC00003E0000
FC00003E0000
FC00007E0000
FC00007E0000
FC00007E0000
FC00007E0000
FC00007E0000
FE00007E0000
7E0000FE0000
7F0000FE0000
7F0001FE0000
3F8001FE0000
1FC007FE0000
1FF83FBE0000
0FFFFF3E0000
07FFFE3E0000
03FFFC3E0000
00FFF01E0000
000F00000000
ENDCHAR
STARTCHAR 0110
ENCODING 272
SWIDTH 720 0
DWIDTH 48 0
BBX 43 48 2 0
BITMAP
07FFFC000000
07FFFFF00000
07FFFFFC0000
07FFFFFF0000
07FFFFFFC000
07FFFFFFE000
07E0007FF000
07E0000FF800
07E00003FC00
07E00001FE00
07E00000FE00
07E000007F00
07E000003F00
07E000003F80
07E000001F80
07E000001FC0
07E000001FC0
07E000000FC0
07E000000FC0
07E000000FC0
07E000000FC0
07E000000FE0
FFFFFE000FE0
FFFFFE000FE0
FFFFFE000FE0
FFFFFE000FE0
FFFFFE000FE0
07E000000FC0
07E000000FC0
07E000000FC0
07E000000FC0
07E000001FC0
07E000001FC0
07E000001F80
07E000003F80
07E000003F00
07E000007F00
07E00000FE00
07E00001FE00
07E00003FC00
07E0000FF800
07E0003FF000
07E003FFE000
07FFFFFFC000
07FFFFFF8000
07FFFFFE0000
07FFFFF00000
07FFFF000000
ENDCHAR
STARTCHAR 0111
ENCODING 273
SWIDTH 615 0
DWIDTH 41 0
BBX 36 52 4 -1
BITMAP
0000007E00
0000007E00
0000007E00
0000007E00
0000007E00
0000007E00
001FFFFFF0
001FFFFFF0
001FFFFFF0
001FFFFFF0
001FFFFFF0
0000007E00
0000007E00
0000007E00
0000007E00
003FE07E00
01FFF83E00
03FFFE3E00
07FFFF3E00
0FFFFFBE00
1FE00FFE00
3FC003FE00
3F8001FE00
7F0000FE00
7E0000FE00
7E0000FE00
FE00007E00
FC00007E00
FC00007E00
FC00007E00
FC00007E00
FC00007E00
FC00003E00
FC00003E00
FC00003E00
FC00007E00
FC00007E00
FC00007E00
FC00007E00
FC00007E00
FE00007E00
7E0000FE00
7F0000FE00
7F0001FE00
3F8001FE00
1FC007FE00
1FF83FBE00
0FFFFF3E00
07FFFE3E00
03FFFC3E00
00FFF03E00
000F000000
ENDCHAR
STARTCHAR 0112
ENCODING 274
SWIDTH 555 0
DWIDTH 37 0
BBX 27 57 6 0
BITMAP
0FFFFF00
0FFFFF00
0FFFFF00
0FFFFF00
0FFFFF00
00000000
00000000
00000000
00000000
FFFFFFE0
FFFFFFE0
FFFFFFE0
FFFFFFE0
FFFFFFE0
FFFFFFE0
FC000000
FC000000
FC000000
FC000000
FC000000
FC000000
FC000000
FC000000
FC000000
FC000000
FC000000
FC000000
FC000000
FC000000
FC000000
FFFFFFC0
FFFFFFC0
FFFFFFC0
FFFFFFC0
FFFFFFC0
FC000000
FC000000
FC000000
FC000000
FC000000
FC000000
FC000000
FC000000
FC000000
FC000000
FC000000
FC000000
FC000000
FC000000
FC000000
FC000000
FC000000
FFFFFFE0
FFFFFFE0
FFFFFFE0
FFFFFFE0
FFFFFFE0
ENDCHAR
STARTCHAR 0113
ENCODING 275
SWIDTH 555 0
DWIDTH 37 0
BBX 30 46 4 -1
BITMAP
07FFFF80
07FFFF80
07FFFF80
07FFFF80
07FFFF80
00000000
00000000
00000000
00000000
003FF800
00FFFE00
03FFFF80
07FFFFC0
0FFC7FE0
1FE00FE0
1F8007F0
3F0003F8
3F0001F8
7E0001F8
7E0001FC
FC0000FC
FC0000FC
FC0000FC
FC0000FC
FFFFFFFC
FFFFFFFC
FFFFFFFC
FFFFFFFC
FC000000
FC000000
FC000000
FC000000
FC000000
FE000000
7E000000
7E000000
7F000000
3F800000
3FC00008
1FF00078
0FFE0FF8
07FFFFF8
03FFFFF8
00FFFFF0
003FFF80
0003F800
ENDCHAR
STARTCHAR 0114
ENCODING 276
SWIDTH 555 0
DWIDTH 37 0
BBX 27 61 6 0
BITMAP
0F000780
0F000700
0F800F00
07C03F00
07FFFE00
03FFFC00
01FFF800
00FFF000
001F8000
00000000
00000000
00000000
00000000
FFFFFFE0
FFFFFFE0
FFFFFFE0
FFFFFFE0
FFFFFFE0
FFFFFFE0
FC000000
FC000000
FC000000
FC000000
FC000000
FC000000
FC000000
FC000000
FC000000
FC000000
FC000000
FC000000
FC000000
FC000000
FC000000
FFFFFFC0
FFFFFFC0
FFFFFFC0
FFFFFFC0
FFFFFFC0
FC000000
FC000000
FC000000
FC000000
FC000000
FC000000
FC000000
FC000000
FC000000
FC000000
FC000000
FC000000
FC000000
FC000000
FC000000
FC000000
FC000000
FFFFFFE0
FFFFFFE0
FFFFFFE0
FFFFFFE0
FFFFFFE0
ENDCHAR
STARTCHAR 0115
ENCODING 277
SWIDTH 555 0
DWIDTH 37 0
BBX 30 50 4 -1
BITMAP
07000780
07800780
07800F80
07E03F00
03FFFF00
01FFFE00
00FFFC00
007FF000
00070000
00000000
00000000
00000000
00000000
003FF800
00FFFE00
03FFFF80
07FFFFC0
0FFC7FE0
1FE00FE0
1F8007F0
3F0003F8
3F0001F8
7E0001F8
7E0001FC
FC0000FC
FC0000FC
FC0000FC
FC0000FC
FFFFFFFC
FFFFFFFC
FFFFFFFC
FFFFFFFC
FC000000
FC000000
FC000000
FC000000
FC000000
FE000000
7E000000
7E000000
7F000000
3F800000
3FC00008
1FF00078
0FFE0FF8
07FFFFF8
03FFFFF8
00FFFFF0
003FFF80
0003F800
ENDCHAR
STARTCHAR 0116
ENCODING 278
SWIDTH 555 0
DWIDTH 37 0
BBX 27 61 6 0
BITMAP
000F0000
001F8000
001FC000
001FC000
001FC000
001F8000
000F8000
00000000
00000000
00000000
00000000
00000000
00000000
FFFFFFE0
FFFFFFE0
FFFFFFE0
FFFFFFE0
FFFFFFE0
FFFFFFE0
FC000000
FC000000
FC000000
FC000000
FC000000
FC000000
FC000000
FC000000
FC000000
FC000000
FC000000
FC000000
FC000000
FC000000
FC000000
FFFFFFC0
FFFFFFC0
FFFFFFC0
FFFFFFC0
FFFFFFC0
FC000000
FC000000
FC000000
FC000000
FC000000
FC000000
FC000000
FC000000
FC000000
FC000000
FC000000
FC000000
FC000000
FC000000
FC000000
FC000000
FC000000
FFFFFFE0
FFFFFFE0
FFFFFFE0
FFFFFFE0
FFFFFFE0
ENDCHAR
STARTCHAR 0117
ENCODING 279
SWIDTH 555 0
DWIDTH 37 0
BBX 30 50 4 -1
BITMAP
00078000
000FC000
000FC000
000FC000
000FC000
000FC000
00078000
00000000
00000000
00000000
00000000
00000000
00000000
003FF800
00FFFE00
03FFFF80
07FFFFC0
0FFC7FE0
1FE00FE0
1F8007F0
3F0003F8
3F0001F8
7E0001F8
7E0001FC
FC0000FC
FC0000FC
FC0000FC
FC0000FC
FFFFFFFC
FFFFFFFC
FFFFFFFC
FFFFFFFC
FC000000
FC000000
FC000000
FC000000
FC000000
FE000000
7E000000
7E000000
7F000000
3F800000
3FC00008
1FF00078
0FFE0FF8
07FFFFF8
03FFFFF8
00FFFFF0
003FFF80
0003F800
ENDCHAR
STARTCHAR 0118
ENCODING 280
SWIDTH 555 0
DWIDTH 37 0
BBX 27 63 6 -15
BITMAP
FFFFFFE0
FFFFFFE0
FFFFFFE0
FFFFFFE0
FFFFFFE0
FFFFFFE0
FC000000
FC000000
FC000000
FC000000
FC000000
FC000000
FC000000
FC000000
FC000000
FC000000
FC000000
FC000000
FC000000
FC000000
FC000000
FFFFFFC0
FFFFFFC0
FFFFFFC0
FFFFFFC0
FFFFFFC0
FC000000
FC000000
FC000000
FC000000
FC000000
FC000000
FC000000
FC000000
FC000000
FC000000
FC000000
FC000000
FC000000
FC000000
FC000000
FC000000
FC000000
FFFFFFE0
FFFFFFE0
FFFFFFE0
FFFFFFE0
FFFFFFE0
00000F80
00001F00
00003E00
00007C00
00007800
0000F800
0000F800
0000F800
0000F800
0000F800
0000FC20
0000FFE0
00007FE0
00003FE0
00000780
ENDCHAR
STARTCHAR 0119
ENCODING 281
SWIDTH 555 0
DWIDTH 37 0
BBX 30 51 4 -15
BITMAP
003FF800
00FFFE00
03FFFF80
07FFFFC0
0FFC7FE0
1FE00FE0
1F8007F0
3F0003F8
3F0001F8
7E0001F8
7E0001FC
FC0000FC
FC0000FC
FC0000FC
FC0000FC
FFFFFFFC
FFFFFFFC
FFFFFFFC
FFFFFFFC
FC000000
FC000000
FC000000
FC000000
FC000000
FE000000
7E000000
7E000000
7F000000
3F800000
3FC00008
1FF00078
0FFE0FF8
07FFFFF8
03FFFFF8
00FFFFF0
003FFFE0
0003F7C0
00000F80
00000F00
00001E00
00003E00
00003C00
00007C00
00007C00
00007C00
00007C00
00007F10
00003FF0
00003FF0
00001FF0
000001C0
ENDCHAR
STARTCHAR 011A
ENCODING 282
SWIDTH 555 0
DWIDTH 37 0
BBX 27 63 6 0
BITMAP
1F0007C0
0F801F80
07C03F00
07E07E00
03F8FC00
01FDF800
00FFF000
007FF000
003FE000
003FC000
001F8000
00000000
00000000
00000000
00000000
FFFFFFE0
FFFFFFE0
FFFFFFE0
FFFFFFE0
FFFFFFE0
FFFFFFE0
FC000000
FC000000
FC000000
FC000000
FC000000
FC000000
FC000000
FC000000
FC000000
FC000000
FC000000
FC000000
FC000000
FC000000
FC000000
FFFFFFC0
FFFFFFC0
FFFFFFC0
FFFFFFC0
FFFFFFC0
FC000000
FC000000
FC000000
FC000000
FC000000
FC000000
FC000000
FC000000
FC000000
FC000000
FC000000
FC000000
FC000000
FC000000
FC000000
FC000000
FC000000
FFFFFFE0
FFFFFFE0
FFFFFFE0
FFFFFFE0
FFFFFFE0
ENDCHAR
STARTCHAR 011B
ENCODING 283
SWIDTH 555 0
DWIDTH 37 0
BBX 30 52 4 -1
BITMAP
0F8007C0
0FC00FC0
07E01F80
03F03F00
01F8FE00
00FDFC00
007FF800
003FF000
001FE000
001FE000
000FC000
00000000
00000000
00000000
00000000
003FF800
00FFFE00
03FFFF80
07FFFFC0
0FFC7FE0
1FE00FE0
1F8007F0
3F0003F8
3F0001F8
7E0001F8
7E0001FC
FC0000FC
FC0000FC
FC0000FC
FC0000FC
FFFFFFFC
FFFFFFFC
FFFFFFFC
FFFFFFFC
FC000000
FC000000
FC000000
FC000000
FC000000
FE000000
7E000000
7E000000
7F000000
3F800000
3FC00008
1FF00078
0FFE0FF8
07FFFFF8
03FFFFF8
00FFFFF0
003FFF80
0003F800
ENDCHAR
STARTCHAR 011C
ENCODING 284
SWIDTH 720 0
DWIDTH 48 0
BBX 40 64 4 -1
BITMAP
00000FC000
00001FE000
00003FF000
00007FF000
00007FF800
0000FCFC00
0001F87E00
0003F03F00
0007E01F80
000F800FC0
000F0003C0
0000000000
0000000000
0000000000
0000000000
00007FFF00
0003FFFFF0
000FFFFFFE
003FFFFFFE
007FFFFFFC
00FFF003FC
03FF000078
03FC000008
07F8000000
0FF0000000
1FE0000000
1FC0000000
3F80000000
3F80000000
3F00000000
7F00000000
7E00000000
7E00000000
7E00000000
FE00000000
FE00000000
FC00000000
FC00000000
FC0001FFFF
FC0001FFFF
FC0001FFFF
FC0001FFFF
FC0001FFFF
FE0000003F
FE0000003F
7E0000003F
7E0000003F
7F0000003F
7F0000003F
3F0000003F
3F8000003F
3F8000003F
1FC000003F
1FE000003F
0FF000003F
07F800003F
07FE00003F
03FF80007F
01FFFFFFFF
007FFFFFFF
003FFFFFFF
000FFFFFFE
0003FFFFE0
00001FF000
ENDCHAR
STARTCHAR 011D
ENCODING 285
SWIDTH 615 0
DWIDTH 41 0
BBX 31 67 4 -16
BITMAP
000FE000
000FF000
001FF000
003FF800
007FFC00
00FE7E00
00FC3F00
01F81F80
03E00FC0
07C007E0
078001E0
00000000
00000000
00000000
00000000
007FF01E
01FFFC3E
03FFFE3E
07FFFF3E
0FFFFFBE
1FE00FFE
3FC003FE
3F8001FE
7F0000FE
7E0000FE
7E00007E
FE00007E
FC00007E
FC00007E
FC00007E
FC00007E
FC00003E
FC00003E
FC00003E
FC00003E
FC00003E
FC00003E
FC00007E
FC00007E
FC00007E
FE00007E
7E00007E
7F0000FE
3F0001FE
3F8001FE
1FC007FE
1FF81FBE
0FFFFFBE
07FFFF3E
03FFFC3E
00FFF03E
0007003E
0000003E
0000007E
0000007E
0000007E
0000007E
000000FE
000000FC
200001FC
380003F8
3F800FF8
3FFFFFF0
3FFFFFE0
3FFFFFC0
0FFFFF00
00FFF800
ENDCHAR
STARTCHAR 011E
ENCODING 286
SWIDTH 720 0
DWIDTH 48 0
BBX 40 62 4 -1
BITMAP
0007000380
0007800780
0007800F80
0007E01F00
0003FFFF00
0001FFFE00
0000FFFC00
00007FF000
00000F8000
0000000000
0000000000
0000000000
0000000000
00007FFF00
0003FFFFF0
000FFFFFFE
003FFFFFFE
007FFFFFFC
00FFF003FC
03FF000078
03FC000008
07F8000000
0FF0000000
1FE0000000
1FC0000000
3F80000000
3F80000000
3F00000000
7F00000000
7E00000000
7E00000000
7E00000000
FE00000000
FE00000000
FC00000000
FC00000000
FC0001FFFF
FC0001FFFF
FC0001FFFF
FC0001FFFF
FC0001FFFF
FE0000003F
FE0000003F
7E0000003F
7E0000003F
7F0000003F
7F0000003F
3F0000003F
3F8000003F
3F8000003F
1FC000003F
1FE000003F
0FF000003F
07F800003F
07FE00003F
03FF80007F
01FFFFFFFF
007FFFFFFF
003FFFFFFF
000FFFFFFE
0003FFFFE0
00001FF000
ENDCHAR
STARTCHAR 011F
ENCODING 287
SWIDTH 615 0
DWIDTH 41 0
BBX 31 65 4 -16
BITMAP
078003C0
038003C0
03C007C0
03F01F80
01FFFF00
00FFFF00
007FFE00
003FF800
0007C000
00000000
00000000
00000000
00000000
007FF01E
01FFFC3E
03FFFE3E
07FFFF3E
0FFFFFBE
1FE00FFE
3FC003FE
3F8001FE
7F0000FE
7E0000FE
7E00007E
FE00007E
FC00007E
FC00007E
FC00007E
FC00007E
FC00003E
FC00003E
FC00003E
FC00003E
FC00003E
FC00003E
FC00007E
FC00007E
FC00007E
FE00007E
7E00007E
7F0000FE
3F0001FE
3F8001FE
1FC007FE
1FF81FBE
0FFFFFBE
07FFFF3E
03FFFC3E
00FFF03E
0007003E
0000003E
0000007E
0000007E
0000007E
0000007E
000000FE
000000FC
200001FC
380003F8
3F800FF8
3FFFFFF0
3FFFFFE0
3FFFFFC0
0FFFFF00
00FFF800
ENDCHAR
STARTCHAR 0120
ENCODING 288
SWIDTH 720 0
DWIDTH 48 0
BBX 40 62 4 -1
BITMAP
0000078000
00000FC000
00000FC000
00000FC000
00000FC000
00000FC000
0000078000
0000000000
0000000000
0000000000
0000000000
0000000000
0000000000
00007FFF00
0003FFFFF0
000FFFFFFE
003FFFFFFE
007FFFFFFC
00FFF003FC
03FF000078
03FC000008
07F8000000
0FF0000000
1FE0000000
1FC0000000
3F80000000
3F80000000
3F00000000
7F00000000
7E00000000
7E00000000
7E00000000
FE00000000
FE00000000
FC00000000
FC00000000
FC0001FFFF
FC0001FFFF
FC0001FFFF
FC0001FFFF
FC0001FFFF
FE0000003F
FE0000003F
7E0000003F
7E0000003F
7F0000003F
7F0000003F
3F0000003F
3F8000003F
3F8000003F
1FC000003F
1FE000003F
0FF000003F
07F800003F
07FE00003F
03FF80007F
01FFFFFFFF
007FFFFFFF
003FFFFFFF
000FFFFFFE
0003FFFFE0
00001FF000
ENDCHAR
STARTCHAR 0121
ENCODING 289
SWIDTH 615 0
DWIDTH 41 0
BBX 31 65 4 -16
BITMAP
0003C000
0007E000
000FE000
000FE000
000FE000
0007E000
0007C000
00000000
00000000
00000000
00000000
00000000
00000000
007FF01E
01FFFC3E
03FFFE3E
07FFFF3E
0FFFFFBE
1FE00FFE
3FC003FE
3F8001FE
7F0000FE
7E0000FE
7E00007E
FE00007E
FC00007E
FC00007E
FC00007E
FC00007E
FC00003E
FC00003E
FC00003E
FC00003E
FC00003E
FC00003E
FC00007E
FC00007E
FC00007E
FE00007E
7E00007E
7F0000FE
3F0001FE
3F8001FE
1FC007FE
1FF81FBE
0FFFFFBE
07FFFF3E
03FFFC3E
00FFF03E
0007003E
0000003E
0000007E
0000007E
0000007E
0000007E
000000FE
000000FC
200001FC
380003F8
3F800FF8
3FFFFFF0
3FFFFFE0
3FFFFFC0
0FFFFF00
00FFF800
ENDCHAR
STARTCHAR 0122
ENCODING 290
SWIDTH 720 0
DWIDTH 48 0
BBX 40 63 4 -15
BITMAP
00007FFF00
0003FFFFF0
000FFFFFFE
003FFFFFFE
007FFFFFFC
00FFF003FC
03FF000078
03FC000008
07F8000000
0FF0000000
1FE0000000
1FC0000000
3F80000000
3F80000000
3F00000000
7F00000000
7E00000000
7E00000000
7E00000000
FE00000000
FE00000000
FC00000000
FC00000000
FC0001FFFF
FC0001FFFF
FC0001FFFF
FC0001FFFF
FC0001FFFF
FE0000003F
FE0000003F
7E0000003F
7E0000003F
7F0000003F
7F0000003F
3F0000003F
3F8000003F
3F8000003F
1FC000003F
1FE000003F
0FF000003F
07F800003F
07FE00003F
03FF80007F
01FFFFFFFF
007FFFFFFF
003FFFFFFF
000FFFFFFE
0003FFFFE0
00001FF000
0000000000
0000000000
0000000000
000007E000
000007E000
000007C000
000007C000
00000FC000
00000F8000
00000F8000
00001F0000
00001E0000
00001E0000
00001C0000
ENDCHAR
STARTCHAR 0123
ENCODING 291
SWIDTH 615 0
DWIDTH 41 0
BBX 31 67 4 -16
BITMAP
0000F000
0000F000
0001E000
0003E000
0003E000
0007E000
0007C000
000FC000
000FC000
000FC000
000F8000
00000000
00000000
00000000
00000000
007FF01E
01FFFC3E
03FFFE3E
07FFFF3E
0FFFFFBE
1FE00FFE
3FC003FE
3F8001FE
7F0000FE
7E0000FE
7E00007E
FE00007E
FC00007E
FC00007E
FC00007E
FC00007E
FC00003E
FC00003E
FC00003E
FC00003E
FC00003E
FC00003E
FC00007E
FC00007E
FC00007E
FE00007E
7E00007E
7F0000FE
3F0001FE
3F8001FE
1FC007FE
1FF81FBE
0FFFFFBE
07FFFF3E
03FFFC3E
00FFF03E
0007003E
0000003E
0000007E
0000007E
0000007E
0000007E
000000FE
000000FC
200001FC
380003F8
3F800FF8
3FFFFFF0
3FFFFFE0
3FFFFFC0
0FFFFF00
00FFF800
ENDCHAR
STARTCHAR 0124
ENCODING 292
SWIDTH 735 0
DWIDTH 49 0
BBX 37 63 6 0
BITMAP
0001FC0000
0001FE0000
0003FE0000
0007FF0000
000FFF8000
000FDFC000
001F8FE000
003F03F000
007E01F800
00F800FC00
01F0007C00
0000000000
0000000000
0000000000
0000000000
FC000001F8
FC000001F8
FC000001F8
FC000001F8
FC000001F8
FC000001F8
FC000001F8
FC000001F8
FC000001F8
FC000001F8
FC000001F8
FC000001F8
FC000001F8
FC000001F8
FC000001F8
FC000001F8
FC000001F8
FC000001F8
FC000001F8
FC000001F8
FC000001F8
FFFFFFFFF8
FFFFFFFFF8
FFFFFFFFF8
FFFFFFFFF8
FFFFFFFFF8
FC000001F8
FC000001F8
FC000001F8
FC000001F8
FC000001F8
FC000001F8
FC000001F8
FC000001F8
FC000001F8
FC000001F8
FC000001F8
FC000001F8
FC000001F8
FC000001F8
FC000001F8
FC000001F8
FC000001F8
FC000001F8
FC000001F8
FC000001F8
FC000001F8
FC000001F8
ENDCHAR
STARTCHAR 0125
ENCODING 293
SWIDTH 615 0
DWIDTH 41 0
BBX 39 66 -3 0
BITMAP
00FE000000
00FF000000
01FF000000
03FF800000
07FFC00000
0FEFE00000
0FC7F00000
1F01F80000
3E00FC0000
7C007E0000
F8001E0000
0000000000
0000000000
0000000000
0000000000
007E000000
007E000000
007E000000
007E000000
007E000000
007E000000
007E000000
007E000000
007E000000
007E000000
007E000000
007E000000
007E000000
007E000000
007E000000
007E07FF00
007E3FFFC0
007C7FFFE0
007CFFFFF0
007DFFFFF8
007FF007F8
007FC001FC
007F8000FC
007F0000FC
007F00007E
007E00007E
007E00007E
007E00007E
007E00007E
007E00007E
007E00007E
007E00007E
007E00007E
007E00007E
007E00007E
007E00007E
007E00007E
007E00007E
007E00007E
007E00007E
007E00007E
007E00007E
007E00007E
007E00007E
007E00007E
007E00007E
007E00007E
007E00007E
007E00007E
007E00007E
007E00007E
ENDCHAR
STARTCHAR 0126
ENCODING 294
SWIDTH 735 0
DWIDTH 49 0
BBX 49 48 0 0
BITMAP
03F0000007E000
03F0000007E000
03F0000007E000
03F0000007E000
03F0000007E000
03F0000007E000
03F0000007E000
03F0000007E000
FFFFFFFFFFFF80
FFFFFFFFFFFF80
FFFFFFFFFFFF80
FFFFFFFFFFFF80
FFFFFFFFFFFF80
03F0000007E000
03F0000007E000
03F0000007E000
03F0000007E000
03F0000007E000
03F0000007E000
03F0000007E000
03F0000007E000
03FFFFFFFFE000
03FFFFFFFFE000
03FFFFFFFFE000
03FFFFFFFFE000
03FFFFFFFFE000
03F0000007E000
03F0000007E000
03F0000007E000
03F0000007E000
03F0000007E000
03F0000007E000
03F0000007E000
03F0000007E000
03F0000007E000
03F0000007E000
03F0000007E000
03F0000007E000
03F0000007E000
03F0000007E000
03F0000007E000
03F0000007E000
03F0000007E000
03F0000007E000
03F0000007E000
03F0000007E000
03F0000007E000
03F0000007E000
ENDCHAR
STARTCHAR 0127
ENCODING 295
SWIDTH 615 0
DWIDTH 41 0
BBX 35 51 1 0
BITMAP
07E0000000
07E0000000
07E0000000
07E0000000
07E0000000
07E0000000
FFFFFF8000
FFFFFF8000
FFFFFF8000
FFFFFF8000
FFFFFF8000
07E0000000
07E0000000
07E0000000
07E0000000
07E0000000
07E03FE000
07E1FFF800
07C7FFFE00
07CFFFFF00
07DFFFFF80
07FF807F80
07FC003FC0
07F8001FC0
07F8000FC0
07F0000FE0
07F00007E0
07E00007E0
07E00007E0
07E00007E0
07E00007E0
07E00007E0
07E00007E0
07E00007E0
07E00007E0
07E00007E0
07E00007E0
07E00007E0
07E00007E0
07E00007E0
07E00007E0
07E00007E0
07E00007E0
07E00007E0
07E00007E0
07E00007E0
07E00007E0
07E00007E0
07E00007E0
07E00007E0
07E00007E0
ENDCHAR
STARTCHAR 0128
ENCODING 296
SWIDTH 330 0
DWIDTH 22 0
BBX 25 61 -1 0
BITMAP
07C00780
1FF00700
3FFC0F00
3FFE1F00
7FFFFE00
783FFE00
F01FFC00
F007F800
F000E000
00000000
00000000
00000000
00000000
0FFFF800
0FFFF800
0FFFF800
0FFFF800
03FFC000
007E0000
007E0000
007E0000
007E0000
007E0000
007E0000
007E0000
007E0000
007E0000
007E0000
007E0000
007E0000
007E0000
007E0000
007E0000
007E0000
007E0000
007E0000
007E0000
007E0000
007E0000
007E0000
007E0000
007E0000
007E0000
007E0000
007E0000
007E0000
007E0000
007E0000
007E0000
007E0000
007E0000
007E0000
007E0000
007E0000
007E0000
007E0000
00FF0000
0FFFF800
0FFFF800
0FFFF800
0FFFF800
ENDCHAR
STARTCHAR 0129
ENCODING 297
SWIDTH 255 0
DWIDTH 17 0
BBX 25 49 -4 0
BITMAP
07C00780
0FF00780
1FFC0700
3FFF1F00
7FFFFF00
783FFE00
780FFC00
7003F800
F0004000
00000000
00000000
00000000
00000000
003F0000
003F0000
003F0000
003F0000
003F0000
003F0000
003F0000
003F0000
003F0000
003F0000
003F0000
003F0000
003F0000
003F0000
003F0000
003F0000
003F0000
003F0000
003F0000
003F0000
003F0000
003F0000
003F0000
003F0000
003F0000
003F0000
003F0000
003F0000
003F0000
003F0000
003F0000
003F0000
003F0000
003F0000
003F0000
003F0000
ENDCHAR
STARTCHAR 012A
ENCODING 298
SWIDTH 330 0
DWIDTH 22 0
BBX 20 57 1 0
BITMAP
FFFFF0
FFFFF0
FFFFF0
FFFFF0
FFFFF0
000000
000000
000000
000000
3FFFE0
3FFFE0
3FFFE0
3FFFE0
0FFF00
01F800
01F800
01F800
01F800
01F800
01F800
01F800
01F800
01F800
01F800
01F800
01F800
01F800
01F800
01F800
01F800
01F800
01F800
01F800
01F800
01F800
01F800
01F800
01F800
01F800
01F800
01F800
01F800
01F800
01F800
01F800
01F800
01F800
01F800
01F800
01F800
01F800
01F800
03FC00
3FFFE0
3FFFE0
3FFFE0
3FFFE0
ENDCHAR
STARTCHAR 012B
ENCODING 299
SWIDTH 255 0
DWIDTH 17 0
BBX 19 45 -1 0
BITMAP
FFFFE0
FFFFE0
FFFFE0
FFFFE0
FFFFE0
000000
000000
000000
000000
01F800
01F800
01F800
01F800
01F800
01F800
01F800
01F800
01F800
01F800
01F800
01F800
01F800
01F800
01F800
01F800
01F800
01F800
01F800
01F800
01F800
01F800
01F800
01F800
01F800
01F800
01F800
01F800
01F800
01F800
01F800
01F800
01F800
01F800
01F800
01F800
ENDCHAR
STARTCHAR 012C
ENCODING 300
SWIDTH 330 0
DWIDTH 22 0
BBX 21 61 1 0
BITMAP
F00078
F00070
F800F0
7C03F0
7FFFE0
3FFFC0
1FFF80
0FFF00
01F800
000000
000000
000000
000000
3FFFE0
3FFFE0
3FFFE0
3FFFE0
0FFF00
01F800
01F800
01F800
01F800
01F800
01F800
01F800
01F800
01F800
01F800
01F800
01F800
01F800
01F800
01F800
01F800
01F800
01F800
01F800
01F800
01F800
01F800
01F800
01F800
01F800
01F800
01F800
01F800
01F800
01F800
01F800
01F800
01F800
01F800
01F800
01F800
01F800
01F800
03FC00
3FFFE0
3FFFE0
3FFFE0
3FFFE0
ENDCHAR
STARTCHAR 012D
ENCODING 301
SWIDTH 255 0
DWIDTH 17 0
BBX 21 49 -2 0
BITMAP
F00078
F00078
7800F0
7E03F0
3FFFE0
3FFFE0
1FFF80
07FF00
007000
000000
000000
000000
000000
00FC00
00FC00
00FC00
00FC00
00FC00
00FC00
00FC00
00FC00
00FC00
00FC00
00FC00
00FC00
00FC00
00FC00
00FC00
00FC00
00FC00
00FC00
00FC00
00FC00
00FC00
00FC00
00FC00
00FC00
00FC00
00FC00
00FC00
00FC00
00FC00
00FC00
00FC00
00FC00
00FC00
00FC00
00FC00
00FC00
ENDCHAR
STARTCHAR 012E
ENCODING 302
SWIDTH 330 0
DWIDTH 22 0
BBX 17 63 3 -15
BITMAP
FFFF80
FFFF80
FFFF80
FFFF80
3FFC00
07E000
07E000
07E000
07E000
07E000
07E000
07E000
07E000
07E000
07E000
07E000
07E000
07E000
07E000
07E000
07E000
07E000
07E000
07E000
07E000
07E000
07E000
07E000
07E000
07E000
07E000
07E000
07E000
07E000
07E000
07E000
07E000
07E000
07E000
07E000
07E000
07E000
07E000
0FF000
FFFF80
FFFF80
FFFF80
FFFF80
003E00
007C00
00F800
01F000
01E000
03E000
03E000
03E000
03E000
03E000
03F080
03FF80
01FF80
00FF80
003E00
ENDCHAR
STARTCHAR 012F
ENCODING 303
SWIDTH 255 0
DWIDTH 17 0
BBX 11 64 2 -15
BITMAP
0780
0FC0
1FC0
1FC0
1FC0
0FC0
0F80
0000
0000
0000
0000
0000
0000
0FC0
0FC0
0FC0
0FC0
0FC0
0FC0
0FC0
0FC0
0FC0
0FC0
0FC0
0FC0
0FC0
0FC0
0FC0
0FC0
0FC0
0FC0
0FC0
0FC0
0FC0
0FC0
0FC0
0FC0
0FC0
0FC0
0FC0
0FC0
0FC0
0FC0
0FC0
0FC0
0FC0
0FC0
0FC0
0FC0
0F80
1F00
3E00
7C00
7800
F800
F800
F800
F800
F800
FC20
FFE0
7FE0
3FE0
0F80
ENDCHAR
STARTCHAR 0130
ENCODING 304
SWIDTH 330 0
DWIDTH 22 0
BBX 17 61 3 0
BITMAP
03C000
07E000
07F000
07F000
07F000
07E000
03E000
000000
000000
000000
000000
000000
000000
FFFF80
FFFF80
FFFF80
FFFF80
3FFC00
07E000
07E000
07E000
07E000
07E000
07E000
07E000
07E000
07E000
07E000
07E000
07E000
07E000
07E000
07E000
07E000
07E000
07E000
07E000
07E000
07E000
07E000
07E000
07E000
07E000
07E000
07E000
07E000
07E000
07E000
07E000
07E000
07E000
07E000
07E000
07E000
07E000
07E000
0FF000
FFFF80
FFFF80
FFFF80
FFFF80
ENDCHAR
STARTCHAR 0131
ENCODING 305
SWIDTH 255 0
DWIDTH 17 0
BBX 6 36 6 0
BITMAP
FC
FC
FC
FC
FC
FC
FC
FC
FC
FC
FC
FC
FC
FC
FC
FC
FC
FC
FC
FC
FC
FC
FC
FC
FC
FC
FC
FC
FC
FC
FC
FC
FC
FC
FC
FC
ENDCHAR
STARTCHAR 0132
ENCODING 306
SWIDTH 600 0
DWIDTH 40 0
BBX 32 61 3 -13
BITMAP
FFFF803F
FFFF803F
FFFF803F
FFFF803F
3FFC003F
07E0003F
07E0003F
07E0003F
07E0003F
07E0003F
07E0003F
07E0003F
07E0003F
07E0003F
07E0003F
07E0003F
07E0003F
07E0003F
07E0003F
07E0003F
07E0003F
07E0003F
07E0003F
07E0003F
07E0003F
07E0003F
07E0003F
07E0003F
07E0003F
07E0003F
07E0003F
07E0003F
07E0003F
07E0003F
07E0003F
07E0003F
07E0003F
07E0003F
07E0003F
07E0003F
07E0003F
07E0003F
07E0003F
0FF0003F
FFFF803F
FFFF803F
FFFF803F
FFFF803F
0000003F
0000003F
0000007F
0000007E
0000007E
000000FE
000001FC
0003FFFC
0003FFF8
0003FFF0
0003FFE0
0003FF80
00007800
ENDCHAR
STARTCHAR 0133
ENCODING 307
SWIDTH 510 0
DWIDTH 34 0
BBX 24 65 5 -16
BITMAP
3C001E
7E003F
FE007F
FE007F
FE007F
7E003F
7C003E
000000
000000
000000
000000
000000
000000
7E003F
7E003F
7E003F
7E003F
7E003F
7E003F
7E003F
7E003F
7E003F
7E003F
7E003F
7E003F
7E003F
7E003F
7E003F
7E003F
7E003F
7E003F
7E003F
7E003F
7E003F
7E003F
7E003F
7E003F
7E003F
7E003F
7E003F
7E003F
7E003F
7E003F
7E003F
7E003F
7E003F
7E003F
7E003F
7E003F
00003F
00003F
00003F
00003F
00003F
00003F
00003F
00003F
00007E
00007E
0000FE
007FFC
007FFC
007FF8
007FF0
007FC0
ENDCHAR
STARTCHAR 0134
ENCODING 308
SWIDTH 270 0
DWIDTH 18 0
BBX 25 76 -5 -13
BITMAP
001F8000
003FC000
007FE000
007FE000
00FFF000
01F9F800
03F0FC00
07E07E00
0FC03F00
1F801F80
1E000780
00000000
00000000
00000000
00000000
001F8000
001F8000
001F8000
001F8000
001F8000
001F8000
001F8000
001F8000
001F8000
001F8000
001F8000
001F8000
001F8000
001F8000
001F8000
001F8000
001F8000
001F8000
001F8000
001F8000
001F8000
001F8000
001F8000
001F8000
001F8000
001F8000
001F8000
001F8000
001F8000
001F8000
001F8000
001F8000
001F8000
001F8000
001F8000
001F8000
001F8000
001F8000
001F8000
001F8000
001F8000
001F8000
001F8000
001F8000
001F8000
001F8000
001F8000
001F8000
001F8000
001F8000
001F8000
001F8000
003F8000
007F0000
00FF0000
FFFE0000
FFFE0000
FFFC0000
FFF00000
FFE00000
1E000000
ENDCHAR
STARTCHAR 0135
ENCODING 309
SWIDTH 255 0
DWIDTH 17 0
BBX 24 67 -4 -16
BITMAP
007F00
00FF80
00FF80
01FFC0
03FFE0
07F7F0
0FC3F8
0F80FC
1F007E
3E003F
78000F
000000
000000
000000
000000
003F00
003F00
003F00
003F00
003F00
003F00
003F00
003F00
003F00
003F00
003F00
003F00
003F00
003F00
003F00
003F00
003F00
003F00
003F00
003F00
003F00
003F00
003F00
003F00
003F00
003F00
003F00
003F00
003F00
003F00
003F00
003F00
003F00
003F00
003F00
003F00
003F00
003F00
003F00
003F00
003F00
003F00
003F00
007E00
007E00
007E00
00FE00
FFFC00
FFFC00
FFF800
FFF000
7F8000
ENDCHAR
STARTCHAR 0136
ENCODING 310
SWIDTH 615 0
DWIDTH 41 0
BBX 35 63 6 -15
BITMAP
FC00001FC0
FC00001FC0
FC00003F80
FC00007F00
FC0000FE00
FC0001FC00
FC0003F800
FC0007F000
FC000FE000
FC001FC000
FC003F8000
FC003F0000
FC007F0000
FC00FE0000
FC01FC0000
FC03F80000
FC07F00000
FC0FE00000
FC1FC00000
FC3F800000
FC7F000000
FC7F000000
FCFF800000
FDFF800000
FFFFC00000
FFFFE00000
FFCFF00000
FF87F00000
FF03F80000
FE03FC0000
FC01FC0000
FC00FE0000
FC007F0000
FC007F8000
FC003F8000
FC001FC000
FC000FE000
FC000FF000
FC0007F000
FC0003F800
FC0001FC00
FC0001FE00
FC0000FE00
FC00007F00
FC00003F80
FC00003F80
FC00001FC0
FC00000FE0
0000000000
0000000000
0000000000
0000000000
0003F00000
0003F00000
0003F00000
0003E00000
0003E00000
0007C00000
0007C00000
0007800000
000F800000
000F000000
000E000000
ENDCHAR
STARTCHAR 0137
ENCODING 311
SWIDTH 525 0
DWIDTH 35 0
BBX 29 66 6 -15
BITMAP
F8000000
F8000000
F8000000
F8000000
F8000000
F8000000
F8000000
F8000000
F8000000
F8000000
F8000000
F8000000
F8000000
F8000000
F8000000
F80007F0
F8000FE0
F8001FC0
F8003F80
F8007F00
F800FE00
F801FC00
F803F800
F807F000
F80FE000
F81FC000
F81F8000
F83F0000
F87E0000
F8FE0000
F9FC0000
FBFC0000
FBFE0000
FFFF0000
FFBF8000
FF3F8000
FE1FC000
FC0FE000
F807F000
F807F000
F803F800
F801FC00
F800FE00
F800FE00
F8007F00
F8003F80
F8001FC0
F8001FC0
F8000FE0
F80007F0
F80003F8
00000000
00000000
00000000
00000000
003F0000
003F0000
003E0000
003E0000
007E0000
007C0000
007C0000
00F80000
00F00000
00F00000
00E00000
ENDCHAR
STARTCHAR 0138
ENCODING 312
SWIDTH 525 0
DWIDTH 35 0
BBX 29 36 6 0
BITMAP
FC0007F0
FC000FE0
FC001FC0
FC003F80
FC007F00
FC00FE00
FC00FE00
FC01FC00
FC03F800
FC07F000
FC0FE000
FC1FC000
FC3F8000
FC3F8000
FC7F0000
FCFE0000
FDFE0000
FFFE0000
FBFF0000
FFFF8000
FF9FC000
FF1FC000
FE0FE000
FC07F000
FC03F800
FC03F800
FC01FC00
FC00FE00
FC007F00
FC007F00
FC003F80
FC001FC0
FC001FC0
FC000FE0
FC0007F0
FC0003F8
ENDCHAR
STARTCHAR 0139
ENCODING 313
SWIDTH 510 0
DWIDTH 34 0
BBX 27 63 6 0
BITMAP
03F80000
07F80000
07F00000
0FE00000
0FC00000
1F800000
3F000000
3E000000
7C000000
F8000000
F0000000
00000000
00000000
00000000
00000000
FC000000
FC000000
FC000000
FC000000
FC000000
FC000000
FC000000
FC000000
FC000000
FC000000
FC000000
FC000000
FC000000
FC000000
FC000000
FC000000
FC000000
FC000000
FC000000
FC000000
FC000000
FC000000
FC000000
FC000000
FC000000
FC000000
FC000000
FC000000
FC000000
FC000000
FC000000
FC000000
FC000000
FC000000
FC000000
FC000000
FC000000
FC000000
FC000000
FC000000
FC000000
FC000000
FC000000
FFFFFFE0
FFFFFFE0
FFFFFFE0
FFFFFFE0
FFFFFFE0
ENDCHAR
STARTCHAR 013A
ENCODING 314
SWIDTH 255 0
DWIDTH 17 0
BBX 13 66 5 0
BITMAP
03F8
03F8
07F0
0FE0
0FC0
1F80
3F80
3F00
7C00
F800
F000
0000
0000
0000
0000
7E00
7E00
7E00
7E00
7E00
7E00
7E00
7E00
7E00
7E00
7E00
7E00
7E00
7E00
7E00
7E00
7E00
7E00
7E00
7E00
7E00
7E00
7E00
7E00
7E00
7E00
7E00
7E00
7E00
7E00
7E00
7E00
7E00
7E00
7E00
7E00
7E00
7E00
7E00
7E00
7E00
7E00
7E00
7E00
7E00
7E00
7E00
7E00
7E00
7E00
7E00
ENDCHAR
STARTCHAR 013B
ENCODING 315
SWIDTH 510 0
DWIDTH 34 0
BBX 27 63 6 -15
BITMAP
FC000000
FC000000
FC000000
FC000000
FC000000
FC000000
FC000000
FC000000
FC000000
FC000000
FC000000
FC000000
FC000000
FC000000
FC000000
FC000000
FC000000
FC000000
FC000000
FC000000
FC000000
FC000000
FC000000
FC000000
FC000000
FC000000
FC000000
FC000000
FC000000
FC000000
FC000000
FC000000
FC000000
FC000000
FC000000
FC000000
FC000000
FC000000
FC000000
FC000000
FC000000
FC000000
FC000000
FFFFFFE0
FFFFFFE0
FFFFFFE0
FFFFFFE0
FFFFFFE0
00000000
00000000
00000000
00000000
000FC000
000FC000
000FC000
000F8000
000F8000
001F0000
001F0000
001E0000
003E0000
003C0000
00380000
ENDCHAR
STARTCHAR 013C
ENCODING 316
SWIDTH 255 0
DWIDTH 17 0
BBX 9 66 4 -15
BITMAP
3F00
3F00
3F00
3F00
3F00
3F00
3F00
3F00
3F00
3F00
3F00
3F00
3F00
3F00
3F00
3F00
3F00
3F00
3F00
3F00
3F00
3F00
3F00
3F00
3F00
3F00
3F00
3F00
3F00
3F00
3F00
3F00
3F00
3F00
3F00
3F00
3F00
3F00
3F00
3F00
3F00
3F00
3F00
3F00
3F00
3F00
3F00
3F00
3F00
3F00
3F00
0000
0000
0000
0000
1F80
1F80
1F00
3F00
3E00
3E00
3C00
7C00
7800
7800
F000
ENDCHAR
STARTCHAR 013D
ENCODING 317
SWIDTH 510 0
DWIDTH 34 0
BBX 27 48 6 0
BITMAP
FC0007E0
FC0007E0
FC0007E0
FC0007C0
FC0007C0
FC0007C0
FC000F80
FC000F80
FC000F00
FC000E00
FC001E00
FC000000
FC000000
FC000000
FC000000
FC000000
FC000000
FC000000
FC000000
FC000000
FC000000
FC000000
FC000000
FC000000
FC000000
FC000000
FC000000
FC000000
FC000000
FC000000
FC000000
FC000000
FC000000
FC000000
FC000000
FC000000
FC000000
FC000000
FC000000
FC000000
FC000000
FC000000
FC000000
FFFFFFE0
FFFFFFE0
FFFFFFE0
FFFFFFE0
FFFFFFE0
ENDCHAR
STARTCHAR 013E
ENCODING 318
SWIDTH 255 0
DWIDTH 17 0
BBX 16 51 6 0
BITMAP
FC1F
FC3F
FC3F
FC3F
FC3E
FC3E
FC7C
FC7C
FC78
FC78
FCF0
FC00
FC00
FC00
FC00
FC00
FC00
FC00
FC00
FC00
FC00
FC00
FC00
FC00
FC00
FC00
FC00
FC00
FC00
FC00
FC00
FC00
FC00
FC00
FC00
FC00
FC00
FC00
FC00
FC00
FC00
FC00
FC00
FC00
FC00
FC00
FC00
FC00
FC00
FC00
FC00
ENDCHAR
STARTCHAR 013F
ENCODING 319
SWIDTH 510 0
DWIDTH 34 0
BBX 27 48 6 0
BITMAP
FC000000
FC000000
FC000000
FC000000
FC000000
FC000000
FC000000
FC000000
FC000000
FC000000
FC000000
FC000000
FC000000
FC000000
FC000000
FC000000
FC000000
FC000000
FC000000
FC000000
FC001000
FC007C00
FC00FE00
FC00FE00
FC00FE00
FC00FE00
FC007C00
FC003800
FC000000
FC000000
FC000000
FC000000
FC000000
FC000000
FC000000
FC000000
FC000000
FC000000
FC000000
FC000000
FC000000
FC000000
FC000000
FFFFFFE0
FFFFFFE0
FFFFFFE0
FFFFFFE0
FFFFFFE0
ENDCHAR
STARTCHAR 0140
ENCODING 320
SWIDTH 255 0
DWIDTH 17 0
BBX 15 51 6 0
BITMAP
FC00
FC00
FC00
FC00
FC00
FC00
FC00
FC00
FC00
FC00
FC00
FC00
FC00
FC00
FC00
FC00
FC00
FC00
FC00
FC00
FC00
FC00
FC38
FC7C
FCFE
FCFE
FCFE
FCFE
FC7C
FC00
FC00
FC00
FC00
FC00
FC00
FC00
FC00
FC00
FC00
FC00
FC00
FC00
FC00
FC00
FC00
FC00
FC00
FC00
FC00
FC00
FC00
ENDCHAR
STARTCHAR 0141
ENCODING 321
SWIDTH 510 0
DWIDTH 34 0
BBX 32 48 1 0
BITMAP
07E00000
07E00000
07E00000
07E00000
07E00000
07E00000
07E00000
07E00000
07E00000
07E00000
07E00000
07E00000
07E00000
07E00000
07E00000
07E00000
07E00000
07E00800
07E03800
07E07C00
07E1FE00
07E7FE00
07EFF800
07FFE000
07FFC000
07FF0000
07FC0000
1FF00000
7FE00000
FFE00000
FFE00000
7FE00000
37E00000
07E00000
07E00000
07E00000
07E00000
07E00000
07E00000
07E00000
07E00000
07E00000
07E00000
07FFFFFF
07FFFFFF
07FFFFFF
07FFFFFF
07FFFFFF
ENDCHAR
STARTCHAR 0142
ENCODING 322
SWIDTH 255 0
DWIDTH 17 0
BBX 18 51 0 0
BITMAP
07E000
07E000
07E000
07E000
07E000
07E000
07E000
07E000
07E000
07E000
07E000
07E000
07E000
07E000
07E000
07E000
07E000
07E000
07E000
07E000
07E300
07E700
07FF80
07FFC0
07FF80
07FE00
07FC00
0FF000
3FE000
FFE000
FFE000
FFE000
77E000
67E000
07E000
07E000
07E000
07E000
07E000
07E000
07E000
07E000
07E000
07E000
07E000
07E000
07E000
07E000
07E000
07E000
07E000
ENDCHAR
STARTCHAR 0143
ENCODING 323
SWIDTH 750 0
DWIDTH 50 0
BBX 38 63 6 0
BITMAP
000003F800
000007F800
000007F000
00000FE000
00000FC000
00001F8000
00003F0000
00003E0000
00007C0000
0000F80000
0000F00000
0000000000
0000000000
0000000000
0000000000
FE0000007C
FF0000007C
FF8000007C
FF8000007C
FFC000007C
FFE000007C
FFE000007C
FFF000007C
FBF800007C
FFF800007C
FDFC00007C
FCFE00007C
FCFE00007C
FC7F00007C
FC3F80007C
FC3F80007C
FC1FC0007C
FC0FC0007C
FC0FE0007C
FC07F0007C
FC07F0007C
FC03F8007C
FC01FC007C
FC01FC007C
FC00FE007C
FC007F007C
FC007F007C
FC003F807C
FC001FC07C
FC001FC07C
FC000FE07C
FC0007E07C
FC0007F07C
FC0003F87C
FC0003F87C
FC0001FC7C
FC0000FE7C
FC0000FE7C
FC00007F7C
FC00003FFC
FC00003FFC
FC00001FFC
FC00000FFC
FC00000FFC
FC000007FC
FC000003FC
FC000003FC
FC000001FC
ENDCHAR
STARTCHAR 0144
ENCODING 324
SWIDTH 615 0
DWIDTH 41 0
BBX 30 51 6 0
BITMAP
00007F00
00007F00
0000FE00
0001FC00
0001F800
0003F000
0007E000
0007C000
000F8000
001F0000
001E0000
00000000
00000000
00000000
00000000
F00FFE00
F87FFF80
F8FFFFC0
F9FFFFE0
FBFFFFF0
FFE00FF0
FF8003F8
FF0001F8
FE0001F8
FE0000FC
FC0000FC
FC0000FC
FC0000FC
FC0000FC
FC0000FC
FC0000FC
FC0000FC
FC0000FC
FC0000FC
FC0000FC
FC0000FC
FC0000FC
FC0000FC
FC0000FC
FC0000FC
FC0000FC
FC0000FC
FC0000FC
FC0000FC
FC0000FC
FC0000FC
FC0000FC
FC0000FC
FC0000FC
FC0000FC
FC0000FC
ENDCHAR
STARTCHAR 0145
ENCODING 325
SWIDTH 750 0
DWIDTH 50 0
BBX 38 63 6 -15
BITMAP
FE0000007C
FF0000007C
FF8000007C
FF8000007C
FFC000007C
FFE000007C
FFE000007C
FFF000007C
FBF800007C
FFF800007C
FDFC00007C
FCFE00007C
FCFE00007C
FC7F00007C
FC3F80007C
FC3F80007C
FC1FC0007C
FC0FC0007C
FC0FE0007C
FC07F0007C
FC07F0007C
FC03F8007C
FC01FC007C
FC01FC007C
FC00FE007C
FC007F007C
FC007F007C
FC003F807C
FC001FC07C
FC001FC07C
FC000FE07C
FC0007E07C
FC0007F07C
FC0003F87C
FC0003F87C
FC0001FC7C
FC0000FE7C
FC0000FE7C
FC00007F7C
FC00003FFC
FC00003FFC
FC00001FFC
FC00000FFC
FC00000FFC
FC000007FC
FC000003FC
FC000003FC
FC000001FC
0000000000
0000000000
0000000000
0000000000
00003F0000
00003E0000
00007E0000
00007E0000
00007C0000
00007C0000
0000F80000
0000F80000
0000F00000
0001E00000
0001C00000
ENDCHAR
STARTCHAR 0146
ENCODING 326
SWIDTH 615 0
DWIDTH 41 0
BBX 30 51 6 -15
BITMAP
F00FFE00
F87FFF80
F8FFFFC0
F9FFFFE0
FBFFFFF0
FFE00FF0
FF8003F8
FF0001F8
FE0001F8
FE0000FC
FC0000FC
FC0000FC
FC0000FC
FC0000FC
FC0000FC
FC0000FC
FC0000FC
FC0000FC
FC0000FC
FC0000FC
FC0000FC
FC0000FC
FC0000FC
FC0000FC
FC0000FC
FC0000FC
FC0000FC
FC0000FC
FC0000FC
FC0000FC
FC0000FC
FC0000FC
FC0000FC
FC0000FC
FC0000FC
FC0000FC
00000000
00000000
00000000
00000000
0007E000
0007E000
0007C000
000FC000
000F8000
000F8000
000F0000
001F0000
001E0000
001C0000
003C0000
ENDCHAR
STARTCHAR 0147
ENCODING 327
SWIDTH 750 0
DWIDTH 50 0
BBX 38 63 6 0
BITMAP
00F8003E00
007C00FC00
003E01F800
003F03F000
001FC7E000
000FEFC000
0007FF8000
0003FF8000
0001FF0000
0001FE0000
0000FC0000
0000000000
0000000000
0000000000
0000000000
FE0000007C
FF0000007C
FF8000007C
FF8000007C
FFC000007C
FFE000007C
FFE000007C
FFF000007C
FBF800007C
FFF800007C
FDFC00007C
FCFE00007C
FCFE00007C
FC7F00007C
FC3F80007C
FC3F80007C
FC1FC0007C
FC0FC0007C
FC0FE0007C
FC07F0007C
FC07F0007C
FC03F8007C
FC01FC007C
FC01FC007C
FC00FE007C
FC007F007C
FC007F007C
FC003F807C
FC001FC07C
FC001FC07C
FC000FE07C
FC0007E07C
FC0007F07C
FC0003F87C
FC0003F87C
FC0001FC7C
FC0000FE7C
FC0000FE7C
FC00007F7C
FC00003FFC
FC00003FFC
FC00001FFC
FC00000FFC
FC00000FFC
FC000007FC
FC000003FC
FC000003FC
FC000001FC
ENDCHAR
STARTCHAR 0148
ENCODING 328
SWIDTH 615 0
DWIDTH 41 0
BBX 30 51 6 0
BITMAP
1F0007C0
0FC00F80
07E03F00
03F07E00
01F8FC00
00FDF800
007FF800
007FF000
003FE000
001FC000
001FC000
00000000
00000000
00000000
00000000
F00FFE00
F87FFF80
F8FFFFC0
F9FFFFE0
FBFFFFF0
FFE00FF0
FF8003F8
FF0001F8
FE0001F8
FE0000FC
FC0000FC
FC0000FC
FC0000FC
FC0000FC
FC0000FC
FC0000FC
FC0000FC
FC0000FC
FC0000FC
FC0000FC
FC0000FC
FC0000FC
FC0000FC
FC0000FC
FC0000FC
FC0000FC
FC0000FC
FC0000FC
FC0000FC
FC0000FC
FC0000FC
FC0000FC
FC0000FC
FC0000FC
FC0000FC
FC0000FC
ENDCHAR
STARTCHAR 0149
ENCODING 329
SWIDTH 675 0
DWIDTH 45 0
BBX 40 48 0 0
BITMAP
1FC0000000
1FC0000000
1FC0000000
1F80000000
1F80000000
1F80000000
3F00000000
3F00000000
3F00000000
3E00000000
3E00000000
7E00000000
7C3E03FFC0
7C3E0FFFF0
783E1FFFF8
F83F7FFFFC
F83F7FFFFE
003FF801FE
003FF000FF
003FE0007F
003FC0003F
003FC0003F
003F80003F
003F80001F
003F80001F
003F00001F
003F00001F
003F00001F
003F00001F
003F00001F
003F00001F
003F00001F
003F00001F
003F00001F
003F00001F
003F00001F
003F00001F
003F00001F
003F00001F
003F00001F
003F00001F
003F00001F
003F00001F
003F00001F
003F00001F
003F00001F
003F00001F
003F00001F
ENDCHAR
STARTCHAR 014A
ENCODING 330
SWIDTH 750 0
DWIDTH 50 0
BBX 38 61 6 -13
BITMAP
FE0000007C
FF0000007C
FF8000007C
FF8000007C
FFC000007C
FFE000007C
FFE000007C
FFF000007C
FBF800007C
FFF800007C
FDFC00007C
FCFE00007C
FCFE00007C
FC7F00007C
FC3F80007C
FC1F80007C
FC1FC0007C
FC0FE0007C
FC07E0007C
FC07F0007C
FC03F8007C
FC01F8007C
FC01FC007C
FC00FE007C
FC007E007C
FC007F007C
FC003F807C
FC001F807C
FC001FC07C
FC000FE07C
FC0007E07C
FC0007F07C
FC0003F87C
FC0001F87C
FC0001FC7C
FC0000FE7C
FC00007E7C
FC00007F7C
FC00003FFC
FC00001FFC
FC00001FFC
FC00000FFC
FC000007FC
FC000003FC
FC000003FC
FC000001FC
FC000000FC
FC000000FC
000000007C
00000000FC
00000000FC
00000000FC
00000000FC
00000001F8
00000003F8
000007FFF0
000007FFF0
000007FFE0
000007FFC0
000007FF00
000000F000
ENDCHAR
STARTCHAR 014B
ENCODING 331
SWIDTH 615 0
DWIDTH 41 0
BBX 30 52 6 -16
BITMAP
F00FFE00
F87FFF80
F8FFFFC0
F9FFFFE0
FBFFFFF0
FFE00FF8
FF8003F8
FF0001F8
FE0001F8
FE0000FC
FC0000FC
FC0000FC
FC0000FC
FC0000FC
FC0000FC
FC0000FC
FC0000FC
FC0000FC
FC0000FC
FC0000FC
FC0000FC
FC0000FC
FC0000FC
FC0000FC
FC0000FC
FC0000FC
FC0000FC
FC0000FC
FC0000FC
FC0000FC
FC0000FC
FC0000FC
FC0000FC
FC0000FC
FC0000FC
FC0000FC
000000FC
000000FC
000000FC
000000FC
000000FC
000000FC
000000FC
000000FC
000000FC
000001F8
000003F8
0000FFF8
0000FFF0
0000FFE0
0000FFC0
0000FF00
ENDCHAR
STARTCHAR 014C
ENCODING 332
SWIDTH 780 0
DWIDTH 52 0
BBX 44 58 4 -1
BITMAP
000FFFFF0000
000FFFFF0000
000FFFFF0000
000FFFFF0000
000FFFFF0000
000000000000
000000000000
000000000000
000000000000
0001FFF80000
000FFFFF0000
003FFFFFC000
007FFFFFE000
01FFFFFFF800
03FF801FFC00
07FC0003FE00
07F80001FE00
0FF000007F00
1FE000007F80
1FC000003F80
3F8000001FC0
3F8000001FC0
3F0000000FC0
7F0000000FE0
7F00000007E0
7E00000007E0
7E00000007E0
FE00000007F0
FE00000007F0
FE00000007F0
FC00000003F0
FC00000003F0
FC00000003F0
FC00000003F0
FC00000003F0
FC00000003F0
FE00000003F0
FE00000007F0
FE00000007F0
7E00000007E0
7E00000007E0
7E00000007E0
7F0000000FE0
3F0000000FC0
3F8000000FC0
3F8000001FC0
1FC000003F80
1FC000003F80
0FE000007F00
0FF00000FE00
07FC0003FE00
03FF000FFC00
01FFFFFFF800
00FFFFFFF000
003FFFFFC000
001FFFFF0000
0003FFFC0000
00001F800000
ENDCHAR
STARTCHAR 014D
ENCODING 333
SWIDTH 600 0
DWIDTH 40 0
BBX 33 46 4 -1
BITMAP
03FFFFC000
03FFFFC000
03FFFFC000
03FFFFC000
03FFFFC000
0000000000
0000000000
0000000000
0000000000
003FFC0000
00FFFF0000
03FFFFC000
07FFFFE000
0FFFFFF000
1FE007F800
3FC001FC00
3F8000FC00
7F0000FE00
7E00007E00
7E00007F00
FE00003F00
FC00003F00
FC00003F00
FC00003F80
FC00001F80
FC00001F80
FC00001F80
FC00001F80
FC00001F80
FC00001F80
FC00003F80
FC00003F00
FC00003F00
FE00003F00
7E00007F00
7E00007E00
7F00007E00
3F8000FE00
1F8001FC00
1FE003F800
0FF81FF800
07FFFFF000
03FFFFC000
00FFFF8000
003FFE0000
0007C00000
ENDCHAR
STARTCHAR 014E
ENCODING 334
SWIDTH 780 0
DWIDTH 52 0
BBX 44 62 4 -1
BITMAP
000E00070000
000F000F0000
000F000F0000
0007C03E0000
0007FFFE0000
0003FFFC0000
0001FFF80000
0000FFF00000
00001F000000
000000000000
000000000000
000000000000
000000000000
0001FFF80000
000FFFFF0000
003FFFFFC000
007FFFFFE000
01FFFFFFF800
03FF801FFC00
07FC0003FE00
07F80001FE00
0FF000007F00
1FE000007F80
1FC000003F80
3F8000001FC0
3F8000001FC0
3F0000000FC0
7F0000000FE0
7F00000007E0
7E00000007E0
7E00000007E0
FE00000007F0
FE00000007F0
FE00000007F0
FC00000003F0
FC00000003F0
FC00000003F0
FC00000003F0
FC00000003F0
FC00000003F0
FE00000003F0
FE00000007F0
FE00000007F0
7E00000007E0
7E00000007E0
7E00000007E0
7F0000000FE0
3F0000000FC0
3F8000000FC0
3F8000001FC0
1FC000003F80
1FC000003F80
0FE000007F00
0FF00000FE00
07FC0003FE00
03FF000FFC00
01FFFFFFF800
00FFFFFFF000
003FFFFFC000
001FFFFF0000
0003FFFC0000
00001F800000
ENDCHAR
STARTCHAR 014F
ENCODING 335
SWIDTH 600 0
DWIDTH 40 0
BBX 33 50 4 -1
BITMAP
03C001C000
03C003C000
03E003C000
01F81F8000
01FFFF8000
00FFFF0000
007FFE0000
003FFC0000
0003800000
0000000000
0000000000
0000000000
0000000000
003FFC0000
00FFFF0000
03FFFFC000
07FFFFE000
0FFFFFF000
1FE007F800
3FC001FC00
3F8000FC00
7F0000FE00
7E00007E00
7E00007F00
FE00003F00
FC00003F00
FC00003F00
FC00003F80
FC00001F80
FC00001F80
FC00001F80
FC00001F80
FC00001F80
FC00001F80
FC00003F80
FC00003F00
FC00003F00
FE00003F00
7E00007F00
7E00007E00
7F00007E00
3F8000FE00
1F8001FC00
1FE003F800
0FF81FF800
07FFFFF000
03FFFFC000
00FFFF8000
003FFE0000
0007C00000
ENDCHAR
STARTCHAR 0150
ENCODING 336
SWIDTH 780 0
DWIDTH 52 0
BBX 44 64 4 -1
BITMAP
0000FC1FC000
0001FC1FC000
0001F83F8000
0003F03F0000
0007E07E0000
0007E07C0000
000FC0F80000
000F81F80000
001F01F00000
003E03E00000
003C03800000
000000000000
000000000000
000000000000
000000000000
0001FFF80000
000FFFFF0000
003FFFFFC000
007FFFFFE000
01FFFFFFF800
03FF801FFC00
07FC0003FE00
07F80001FE00
0FF000007F00
1FE000007F80
1FC000003F80
3F8000001FC0
3F8000001FC0
3F0000000FC0
7F0000000FE0
7F00000007E0
7E00000007E0
7E00000007E0
FE00000007F0
FE00000007F0
FE00000007F0
FC00000003F0
FC00000003F0
FC00000003F0
FC00000003F0
FC00000003F0
FC00000003F0
FE00000003F0
FE00000007F0
FE00000007F0
7E00000007E0
7E00000007E0
7E00000007E0
7F0000000FE0
3F0000000FC0
3F8000000FC0
3F8000001FC0
1FC000003F80
1FC000003F80
0FE000007F00
0FF00000FE00
07FC0003FE00
03FF000FFC00
01FFFFFFF800
00FFFFFFF000
003FFFFFC000
001FFFFF0000
0003FFFC0000
00001F800000
ENDCHAR
STARTCHAR 0151
ENCODING 337
SWIDTH 600 0
DWIDTH 40 0
BBX 33 52 4 -1
BITMAP
003F07F000
007F07F000
007E0FE000
00FC0FC000
00FC1F8000
01F81F0000
03F03F0000
03E07E0000
07C07C0000
0F80F80000
0F00E00000
0000000000
0000000000
0000000000
0000000000
003FFC0000
00FFFF0000
03FFFFC000
07FFFFE000
0FFFFFF000
1FE007F800
3FC001FC00
3F8000FC00
7F0000FE00
7E00007E00
7E00007F00
FE00003F00
FC00003F00
FC00003F00
FC00003F80
FC00001F80
FC00001F80
FC00001F80
FC00001F80
FC00001F80
FC00001F80
FC00003F80
FC00003F00
FC00003F00
FE00003F00
7E00007F00
7E00007E00
7F00007E00
3F8000FE00
1F8001FC00
1FE003F800
0FF81FF800
07FFFFF000
03FFFFC000
00FFFF8000
003FFE0000
0007C00000
ENDCHAR
STARTCHAR 0152
ENCODING 338
SWIDTH 915 0
DWIDTH 61 0
BBX 54 49 4 -1
BITMAP
0001FFFFFFFFFC
000FFFFFFFFFFC
003FFFFFFFFFFC
00FFFFFFFFFFFC
01FFFFFFFFFFFC
03FF801FFFFFFC
07FC0007E00000
0FF80007E00000
0FF00007E00000
1FE00007E00000
1FC00007E00000
3F800007E00000
3F800007E00000
3F000007E00000
7F000007E00000
7E000007E00000
7E000007E00000
7E000007E00000
FE000007E00000
FE000007E00000
FC000007E00000
FC000007FFFFF8
FC000007FFFFF8
FC000007FFFFF8
FC000007FFFFF8
FC000007FFFFF8
FC000007E00000
FC000007E00000
FE000007E00000
FE000007E00000
7E000007E00000
7E000007E00000
7E000007E00000
7F000007E00000
3F000007E00000
3F800007E00000
3F800007E00000
1FC00007E00000
1FC00007E00000
0FE00007E00000
0FF00007E00000
07FC0007E00000
03FF000FE00000
01FFFFFFFFFFFC
00FFFFFFFFFFFC
003FFFFFFFFFFC
001FFFFFFFFFFC
0003FFFFFFFFFC
00001F80000000
ENDCHAR
STARTCHAR 0153
ENCODING 339
SWIDTH 945 0
DWIDTH 63 0
BBX 56 37 4 -1
BITMAP
003FF8000FFE00
00FFFE003FFF80
03FFFF807FFFC0
07FFFFC1FFFFE0
0FFFFFE3FFFFF0
1FE00FF3F807F8
3F8003FFE001F8
3F0001FFC000FC
7F0000FFC000FC
7E0000FF80007E
7E00007F80007E
FC00007F00007E
FC00007F00007E
FC00007F00007F
FC00003F00007F
FC00003FFFFFFF
FC00003FFFFFFF
FC00003FFFFFFF
FC00003FFFFFFF
FC00003F000000
FC00003F000000
FC00003F000000
FC00007F000000
FC00007F000000
FC00007F800000
7E00007F800000
7E0000FF800000
7F0000FFC00000
3F0001FFE00000
3F8003FFF00004
1FC007F3F8001C
0FF81FE1FF03FC
07FFFFE1FFFFFC
03FFFF807FFFFC
01FFFF003FFFFC
007FFC000FFFE0
00078000007C00
ENDCHAR
STARTCHAR 0154
ENCODING 340
SWIDTH 615 0
DWIDTH 41 0
BBX 34 63 6 0
BITMAP
00007F8000
00007F0000
0000FE0000
0000FC0000
0001FC0000
0003F80000
0003F00000
0007E00000
000FC00000
000F800000
001E000000
0000000000
0000000000
0000000000
0000000000
FFFF800000
FFFFFC0000
FFFFFF8000
FFFFFFC000
FFFFFFF000
FFFFFFF000
FC000FF800
FC0003FC00
FC0001FC00
FC0000FC00
FC0000FE00
FC0000FE00
FC00007E00
FC00007E00
FC00007E00
FC00007E00
FC00007E00
FC0000FE00
FC0000FC00
FC0001FC00
FC0001F800
FC0007F800
FC001FF000
FFFFFFE000
FFFFFFC000
FFFFFF0000
FFFFFC0000
FFFFFC0000
FC00FE0000
FC007E0000
FC007F0000
FC003F0000
FC003F8000
FC001FC000
FC000FC000
FC000FE000
FC0007E000
FC0007F000
FC0003F800
FC0003F800
FC0001FC00
FC0000FC00
FC0000FE00
FC00007F00
FC00007F00
FC00003F80
FC00001FC0
FC00001FC0
ENDCHAR
STARTCHAR 0155
ENCODING 341
SWIDTH 405 0
DWIDTH 27 0
BBX 20 51 6 0
BITMAP
000FF0
000FE0
001FC0
001FC0
003F80
007F00
007E00
00FC00
01F800
01F000
03C000
000000
000000
000000
000000
F80FF0
F83FF0
F87FF0
F8FFF0
F9FFF0
FBF800
FBE000
FF8000
FF0000
FF0000
FE0000
FE0000
FC0000
FC0000
FC0000
FC0000
FC0000
FC0000
FC0000
FC0000
FC0000
FC0000
FC0000
FC0000
FC0000
FC0000
FC0000
FC0000
FC0000
FC0000
FC0000
FC0000
FC0000
FC0000
FC0000
FC0000
ENDCHAR
STARTCHAR 0156
ENCODING 342
SWIDTH 615 0
DWIDTH 41 0
BBX 34 63 6 -15
BITMAP
FFFF800000
FFFFFC0000
FFFFFF8000
FFFFFFC000
FFFFFFF000
FFFFFFF000
FC000FF800
FC0003FC00
FC0001FC00
FC0000FC00
FC0000FE00
FC0000FE00
FC00007E00
FC00007E00
FC00007E00
FC00007E00
FC00007E00
FC0000FE00
FC0000FC00
FC0001FC00
FC0001F800
FC0007F800
FC001FF000
FFFFFFE000
FFFFFFC000
FFFFFF0000
FFFFFC0000
FFFFFC0000
FC00FE0000
FC007E0000
FC007F0000
FC003F0000
FC003F8000
FC001FC000
FC000FC000
FC000FE000
FC0007E000
FC0007F000
FC0003F800
FC0003F800
FC0001FC00
FC0000FC00
FC0000FE00
FC00007F00
FC00007F00
FC00003F80
FC00001FC0
FC00001FC0
0000000000
0000000000
0000000000
0000000000
0003F00000
0003F00000
0003F00000
0003E00000
0007E00000
0007C00000
0007C00000
0007800000
000F000000
000F000000
000E000000
ENDCHAR
STARTCHAR 0157
ENCODING 343
SWIDTH 405 0
DWIDTH 27 0
BBX 22 51 4 -15
BITMAP
3E03FC
3E0FFC
3E1FFC
3E3FFC
3E7FFC
3EFE00
3EF800
3FE000
3FC000
3FC000
3F8000
3F8000
3F0000
3F0000
3F0000
3F0000
3F0000
3F0000
3F0000
3F0000
3F0000
3F0000
3F0000
3F0000
3F0000
3F0000
3F0000
3F0000
3F0000
3F0000
3F0000
3F0000
3F0000
3F0000
3F0000
3F0000
000000
000000
000000
000000
1F8000
1F0000
3F0000
3F0000
3E0000
3E0000
7C0000
7C0000
780000
F00000
F00000
ENDCHAR
STARTCHAR 0158
ENCODING 344
SWIDTH 615 0
DWIDTH 41 0
BBX 34 63 6 0
BITMAP
1F0007C000
0F800F8000
07E01F0000
03F07E0000
01F8FE0000
00FDFC0000
007FF80000
007FF00000
003FE00000
001FC00000
000FC00000
0000000000
0000000000
0000000000
0000000000
FFFF800000
FFFFFC0000
FFFFFF8000
FFFFFFC000
FFFFFFF000
FFFFFFF000
FC000FF800
FC0003FC00
FC0001FC00
FC0000FC00
FC0000FE00
FC0000FE00
FC00007E00
FC00007E00
FC00007E00
FC00007E00
FC00007E00
FC0000FE00
FC0000FC00
FC0001FC00
FC0001F800
FC0007F800
FC001FF000
FFFFFFE000
FFFFFFC000
FFFFFF0000
FFFFFC0000
FFFFFC0000
FC00FE0000
FC007E0000
FC007F0000
FC003F0000
FC003F8000
FC001FC000
FC000FC000
FC000FE000
FC0007E000
FC0007F000
FC0003F800
FC0003F800
FC0001FC00
FC0000FC00
FC0000FE00
FC00007F00
FC00007F00
FC00003F80
FC00001FC0
FC00001FC0
ENDCHAR
STARTCHAR 0159
ENCODING 345
SWIDTH 405 0
DWIDTH 27 0
BBX 22 51 5 0
BITMAP
F8007C
FC00FC
7E01F8
3F03F0
1F8FE0
0FDFC0
07FF80
03FF00
01FE00
01FE00
00FC00
000000
000000
000000
000000
7C07F8
7C1FF8
7C3FF8
7C7FF8
7CFFF8
7DFC00
7DF000
7FC000
7F8000
7F8000
7F0000
7F0000
7E0000
7E0000
7E0000
7E0000
7E0000
7E0000
7E0000
7E0000
7E0000
7E0000
7E0000
7E0000
7E0000
7E0000
7E0000
7E0000
7E0000
7E0000
7E0000
7E0000
7E0000
7E0000
7E0000
7E0000
ENDCHAR
STARTCHAR 015A
ENCODING 346
SWIDTH 540 0
DWIDTH 36 0
BBX 30 64 3 -1
BITMAP
00001FC0
00003F80
00007F80
00007F00
0000FE00
0000FC00
0001F800
0003F000
0003E000
0007C000
000F8000
00000000
00000000
00000000
00000000
003FFF00
00FFFFE0
03FFFFF8
07FFFFF8
0FFFFFF8
1FF007F0
3FC00070
3F800000
7F000000
7E000000
7E000000
7E000000
7E000000
7E000000
7E000000
7F000000
3F000000
3F800000
1FE00000
1FF80000
0FFE0000
07FF8000
03FFF000
00FFFC00
003FFF00
000FFFC0
0001FFE0
00007FF0
00001FF8
000007F8
000003FC
000001FC
000000FC
000000FC
000000FC
000000FC
000000FC
000000FC
000000FC
000001FC
000001F8
E00003F8
FC000FF0
FFFFFFF0
FFFFFFE0
FFFFFF80
7FFFFF00
1FFFF800
007F0000
ENDCHAR
STARTCHAR 015B
ENCODING 347
SWIDTH 465 0
DWIDTH 31 0
BBX 26 52 3 -1
BITMAP
0001FE00
0001FC00
0003F800
0003F800
0007F000
000FE000
000FC000
001F8000
003F0000
003E0000
00780000
00000000
00000000
00000000
00000000
01FFF800
07FFFF00
1FFFFF80
3FFFFF80
3FF1FF00
7F000F00
7E000000
FC000000
FC000000
FC000000
FC000000
7E000000
7F000000
7FC00000
3FF80000
1FFE0000
07FFC000
03FFF000
00FFFC00
001FFE00
0007FF00
0000FF80
00007F80
00001FC0
00000FC0
00000FC0
00000FC0
00000FC0
00000FC0
80001F80
F0003F80
FF00FF80
FFFFFF00
FFFFFE00
7FFFF800
1FFFE000
00FE0000
ENDCHAR
STARTCHAR 015C
ENCODING 348
SWIDTH 540 0
DWIDTH 36 0
BBX 30 64 3 -1
BITMAP
0007E000
000FF000
001FF800
003FF800
003FFC00
007E7E00
00FC3F00
01F81F80
03F00FC0
07C007E0
078001E0
00000000
00000000
00000000
00000000
003FFF00
00FFFFE0
03FFFFF8
07FFFFF8
0FFFFFF8
1FF007F0
3FC00070
3F800000
7F000000
7E000000
7E000000
7E000000
7E000000
7E000000
7E000000
7F000000
3F000000
3F800000
1FE00000
1FF80000
0FFE0000
07FF8000
03FFF000
00FFFC00
003FFF00
000FFFC0
0001FFE0
00007FF0
00001FF8
000007F8
000003FC
000001FC
000000FC
000000FC
000000FC
000000FC
000000FC
000000FC
000000FC
000001FC
000001F8
E00003F8
FC000FF0
FFFFFFF0
FFFFFFE0
FFFFFF80
7FFFFF00
1FFFF800
007F0000
ENDCHAR
STARTCHAR 015D
ENCODING 349
SWIDTH 465 0
DWIDTH 31 0
BBX 26 52 3 -1
BITMAP
003F0000
007F8000
00FFC000
01FFC000
01FFE000
03F3F000
07E1F800
0FC0FC00
1F807E00
3E003F00
3C000F00
00000000
00000000
00000000
00000000
01FFF800
07FFFF00
1FFFFF80
3FFFFF80
3FF1FF00
7F000F00
7E000000
FC000000
FC000000
FC000000
FC000000
7E000000
7F000000
7FC00000
3FF80000
1FFE0000
07FFC000
03FFF000
00FFFC00
001FFE00
0007FF00
0000FF80
00007F80
00001FC0
00000FC0
00000FC0
00000FC0
00000FC0
00000FC0
80001F80
F0003F80
FF00FF80
FFFFFF00
FFFFFE00
7FFFF800
1FFFE000
00FE0000
ENDCHAR
STARTCHAR 015E
ENCODING 350
SWIDTH 540 0
DWIDTH 36 0
BBX 30 64 3 -16
BITMAP
003FFF00
00FFFFE0
03FFFFF8
07FFFFF8
0FFFFFF8
1FF007F0
3FC00070
3F800000
7F000000
7E000000
7E000000
7E000000
7E000000
7E000000
7E000000
7F000000
3F000000
3F800000
1FE00000
1FF80000
0FFE0000
07FF8000
03FFF000
00FFFC00
003FFF00
000FFFC0
0001FFE0
00007FF0
00001FF8
000007F8
000003FC
000001FC
000000FC
000000FC
000000FC
000000FC
000000FC
000000FC
000000FC
000001FC
000001F8
E00003F8
FC000FF0
FFFFFFF0
FFFFFFE0
FFFFFF80
7FFFFF00
1FFFF800
007F0000
000F0000
000E0000
001E0000
001FC000
003FE000
0007F000
0001F000
0000F800
0000F800
0000F800
0001F000
00FFF000
00FFE000
00FFC000
00FE0000
ENDCHAR
STARTCHAR 015F
ENCODING 351
SWIDTH 465 0
DWIDTH 31 0
BBX 26 52 3 -16
BITMAP
01FFF800
07FFFF00
1FFFFF80
3FFFFF80
3FF1FF00
7F000F00
7E000000
FC000000
FC000000
FC000000
FC000000
7E000000
7F000000
7FC00000
3FF80000
1FFE0000
07FFC000
03FFF000
00FFFC00
001FFE00
0007FF00
0000FF80
00007F80
00001FC0
00000FC0
00000FC0
00000FC0
00000FC0
00000FC0
80001F80
F0003F80
FF00FF80
FFFFFF00
FFFFFE00
7FFFF800
1FFFE000
00FE0000
001E0000
003C0000
003C0000
007F8000
007FC000
000FE000
0003E000
0001F000
0001F000
0001F000
0003E000
03FFE000
03FFC000
03FF8000
03FC0000
ENDCHAR
STARTCHAR 0160
ENCODING 352
SWIDTH 540 0
DWIDTH 36 0
BBX 30 64 3 -1
BITMAP
078003E0
07E007E0
03F00FC0
01F81F80
00FC3F00
007E7E00
003FFC00
001FF800
001FF000
000FF000
0007E000
00000000
00000000
00000000
00000000
003FFF00
00FFFFE0
03FFFFF8
07FFFFF8
0FFFFFF8
1FF007F0
3FC00070
3F800000
7F000000
7E000000
7E000000
7E000000
7E000000
7E000000
7E000000
7F000000
3F000000
3F800000
1FE00000
1FF80000
0FFE0000
07FF8000
03FFF000
00FFFC00
003FFF00
000FFFC0
0001FFE0
00007FF0
00001FF8
000007F8
000003FC
000001FC
000000FC
000000FC
000000FC
000000FC
000000FC
000000FC
000000FC
000001FC
000001F8
E00003F8
FC000FF0
FFFFFFF0
FFFFFFE0
FFFFFF80
7FFFFF00
1FFFF800
007F0000
ENDCHAR
STARTCHAR 0161
ENCODING 353
SWIDTH 465 0
DWIDTH 31 0
BBX 26 52 3 -1
BITMAP
3E001F00
3F003F00
1F807E00
0FC0FC00
07E3F800
03F7F000
01FFE000
00FFC000
007F8000
007F8000
003F0000
00000000
00000000
00000000
00000000
01FFF800
07FFFF00
1FFFFF80
3FFFFF80
3FF1FF00
7F000F00
7E000000
FC000000
FC000000
FC000000
FC000000
7E000000
7F000000
7FC00000
3FF80000
1FFE0000
07FFC000
03FFF000
00FFFC00
001FFE00
0007FF00
0000FF80
00007F80
00001FC0
00000FC0
00000FC0
00000FC0
00000FC0
00000FC0
80001F80
F0003F80
FF00FF80
FFFFFF00
FFFFFE00
7FFFF800
1FFFE000
00FE0000
ENDCHAR
STARTCHAR 0162
ENCODING 354
SWIDTH 555 0
DWIDTH 37 0
BBX 35 64 1 -16
BITMAP
FFFFFFFFE0
FFFFFFFFE0
FFFFFFFFE0
FFFFFFFFE0
FFFFFFFFE0
FFFFFFFFE0
0001F80000
0001F80000
0001F80000
0001F80000
0001F80000
0001F80000
0001F80000
0001F80000
0001F80000
0001F80000
0001F80000
0001F80000
0001F80000
0001F80000
0001F80000
0001F80000
0001F80000
0001F80000
0001F80000
0001F80000
0001F80000
0001F80000
0001F80000
0001F80000
0001F80000
0001F80000
0001F80000
0001F80000
0001F80000
0001F80000
0001F80000
0001F80000
0001F80000
0001F80000
0001F80000
0001F80000
0001F80000
0001F80000
0001F80000
0001F80000
0001F80000
0001F80000
0000F00000
0000E00000
0001E00000
0001C00000
0003F80000
0003FE0000
00007F0000
00001F0000
00001F0000
00000F0000
00001F0000
00001F0000
001FFE0000
001FFE0000
001FF80000
001FE00000
ENDCHAR
STARTCHAR 0163
ENCODING 355
SWIDTH 360 0
DWIDTH 24 0
BBX 22 60 1 -16
BITMAP
01E000
01E000
01E000
03E000
03E000
03E000
03E000
07E000
1FFFF8
7FFFF8
FFFFF8
FFFFF8
FFFFF8
07E000
07E000
07E000
07E000
07E000
07E000
07E000
07E000
07E000
07E000
07E000
07E000
07E000
07E000
07E000
07E000
07E000
07E000
07E000
07E000
07E000
07E000
07E000
07E000
03F000
03F800
03FE0C
01FFFC
01FFFC
00FFFC
003FFC
000FC0
001E00
001E00
003C00
003F80
007FC0
0007E0
0003F0
0001F0
0001F0
0001F0
0003F0
01FFE0
01FFC0
01FF80
01FE00
ENDCHAR
STARTCHAR 0164
ENCODING 356
SWIDTH 555 0
DWIDTH 37 0
BBX 35 63 1 0
BITMAP
03E000F800
01F001F000
00FC07E000
007E0FC000
003F1F8000
003FBF0000
001FFF0000
000FFE0000
0007FC0000
0003F80000
0003F80000
0000000000
0000000000
0000000000
0000000000
FFFFFFFFE0
FFFFFFFFE0
FFFFFFFFE0
FFFFFFFFE0
FFFFFFFFE0
FFFFFFFFE0
0001F80000
0001F80000
0001F80000
0001F80000
0001F80000
0001F80000
0001F80000
0001F80000
0001F80000
0001F80000
0001F80000
0001F80000
0001F80000
0001F80000
0001F80000
0001F80000
0001F80000
0001F80000
0001F80000
0001F80000
0001F80000
0001F80000
0001F80000
0001F80000
0001F80000
0001F80000
0001F80000
0001F80000
0001F80000
0001F80000
0001F80000
0001F80000
0001F80000
0001F80000
0001F80000
0001F80000
0001F80000
0001F80000
0001F80000
0001F80000
0001F80000
0001F80000
ENDCHAR
STARTCHAR 0165
ENCODING 357
SWIDTH 360 0
DWIDTH 24 0
BBX 30 52 1 -1
BITMAP
000000FC
000000FC
000000FC
000000F8
000000F8
000000F8
000001F0
01E001F0
01E001E0
01E001C0
03E003C0
03E00000
03E00000
03E00000
07E00000
1FFFF800
7FFFF800
FFFFF800
FFFFF800
FFFFF800
07E00000
07E00000
07E00000
07E00000
07E00000
07E00000
07E00000
07E00000
07E00000
07E00000
07E00000
07E00000
07E00000
07E00000
07E00000
07E00000
07E00000
07E00000
07E00000
07E00000
07E00000
07E00000
07E00000
07E00000
03F00000
03F80000
03FE0C00
01FFFC00
01FFFC00
00FFFC00
003FFC00
0003C000
ENDCHAR
STARTCHAR 0166
ENCODING 358
SWIDTH 555 0
DWIDTH 37 0
BBX 35 48 1 0
BITMAP
FFFFFFFFE0
FFFFFFFFE0
FFFFFFFFE0
FFFFFFFFE0
FFFFFFFFE0
FFFFFFFFE0
0003F00000
0003F00000
0003F00000
0003F00000
0003F00000
0003F00000
0003F00000
0003F00000
0003F00000
0003F00000
0003F00000
0003F00000
0003F00000
0003F00000
0003F00000
07FFFFFC00
07FFFFFC00
07FFFFFC00
07FFFFFC00
07FFFFFC00
0003F00000
0003F00000
0003F00000
0003F00000
0003F00000
0003F00000
0003F00000
0003F00000
0003F00000
0003F00000
0003F00000
0003F00000
0003F00000
0003F00000
0003F00000
0003F00000
0003F00000
0003F00000
0003F00000
0003F00000
0003F00000
0003F00000
ENDCHAR
STARTCHAR 0167
ENCODING 359
SWIDTH 360 0
DWIDTH 24 0
BBX 22 45 1 -1
BITMAP
01E000
01E000
01E000
03E000
03E000
03E000
03E000
07E000
1FFFF8
7FFFF8
FFFFF8
FFFFF8
FFFFF8
07E000
07E000
07E000
07E000
07E000
07E000
07E000
07E000
7FFFF8
7FFFF8
7FFFF8
7FFFF8
07E000
07E000
07E000
07E000
07E000
07E000
07E000
07E000
07E000
07E000
07E000
07E000
03F000
03F800
03FE0C
01FFFC
01FFFC
00FFFC
003FFC
0003C0
ENDCHAR
STARTCHAR 0168
ENCODING 360
SWIDTH 720 0
DWIDTH 48 0
BBX 37 62 6 -1
BITMAP
001F001E00
007FC01C00
00FFF03C00
00FFFC7C00
01FFFFFC00
01E0FFF800
01C03FF000
03C01FE000
03C0038000
0000000000
0000000000
0000000000
0000000000
FC000001F8
FC000001F8
FC000001F8
FC000001F8
FC000001F8
FC000001F8
FC000001F8
FC000001F8
FC000001F8
FC000001F8
FC000001F8
FC000001F8
FC000001F8
FC000001F8
FC000001F8
FC000001F8
FC000001F8
FC000001F8
FC000001F8
FC000001F8
FC000001F8
FC000001F8
FC000001F8
FC000001F8
FC000001F8
FC000001F8
FC000001F8
FC000001F8
FC000001F8
FC000001F8
FC000001F8
FC000001F8
FC000001F8
FC000001F8
FC000003F0
FC000003F0
7E000003F0
7E000007F0
7F000007E0
3F00000FE0
3F80001FC0
1FE0003FC0
1FF800FF80
0FFFFFFF00
07FFFFFE00
03FFFFFC00
00FFFFF000
003FFFC000
0000FC0000
ENDCHAR
STARTCHAR 0169
ENCODING 361
SWIDTH 615 0
DWIDTH 41 0
BBX 31 50 5 -1
BITMAP
00F800F0
01FE00F0
03FF80E0
07FFE3E0
0FFFFFE0
0F07FFC0
0F01FF80
0E007F00
1E000800
00000000
00000000
00000000
00000000
FC00007E
FC00007E
FC00007E
FC00007E
FC00007E
FC00007E
FC00007E
FC00007E
FC00007E
FC00007E
FC00007E
FC00007E
FC00007E
FC00007E
FC00007E
FC00007E
FC00007E
FC00007E
FC00007E
FC00007E
FC00007E
FC00007E
FC0000FE
FC0000FE
FC0000FE
FC0000FE
FE0001FE
7E0001FE
7E0003FE
7F0007FE
7F800FFE
3FF07F7E
1FFFFF7E
1FFFFE7E
07FFFC7E
03FFF03E
003E0000
ENDCHAR
STARTCHAR 016A
ENCODING 362
SWIDTH 720 0
DWIDTH 48 0
BBX 37 58 6 -1
BITMAP
00FFFFF000
00FFFFF000
00FFFFF000
00FFFFF000
00FFFFF000
0000000000
0000000000
0000000000
0000000000
FC000001F8
FC000001F8
FC000001F8
FC000001F8
FC000001F8
FC000001F8
FC000001F8
FC000001F8
FC000001F8
FC000001F8
FC000001F8
FC000001F8
FC000001F8
FC000001F8
FC000001F8
FC000001F8
FC000001F8
FC000001F8
FC000001F8
FC000001F8
FC000001F8
FC000001F8
FC000001F8
FC000001F8
FC000001F8
FC000001F8
FC000001F8
FC000001F8
FC000001F8
FC000001F8
FC000001F8
FC000001F8
FC000001F8
FC000001F8
FC000003F0
FC000003F0
7E000003F0
7E000007F0
7F000007E0
3F00000FE0
3F80001FC0
1FE0003FC0
1FF800FF80
0FFFFFFF00
07FFFFFE00
03FFFFFC00
00FFFFF000
003FFFC000
0000FC0000
ENDCHAR
STARTCHAR 016B
ENCODING 363
SWIDTH 615 0
DWIDTH 41 0
BBX 31 46 5 -1
BITMAP
03FFFF80
03FFFF80
03FFFF80
03FFFF80
03FFFF80
00000000
00000000
00000000
00000000
FC00007E
FC00007E
FC00007E
FC00007E
FC00007E
FC00007E
FC00007E
FC00007E
FC00007E
FC00007E
FC00007E
FC00007E
FC00007E
FC00007E
FC00007E
FC00007E
FC00007E
FC00007E
FC00007E
FC00007E
FC00007E
FC00007E
FC0000FE
FC0000FE
FC0000FE
FC0000FE
FE0001FE
7E0001FE
7E0003FE
7F0007FE
7F800FFE
3FF07F7E
1FFFFF7E
1FFFFE7E
07FFFC7E
03FFF03E
003E0000
ENDCHAR
STARTCHAR 016C
ENCODING 364
SWIDTH 720 0
DWIDTH 48 0
BBX 37 62 6 -1
BITMAP
00F0007800
00F0007000
00F800F000
007C03F000
007FFFE000
003FFFC000
001FFF8000
000FFF0000
0000F80000
0000000000
0000000000
0000000000
0000000000
FC000001F8
FC000001F8
FC000001F8
FC000001F8
FC000001F8
FC000001F8
FC000001F8
FC000001F8
FC000001F8
FC000001F8
FC000001F8
FC000001F8
FC000001F8
FC000001F8
FC000001F8
FC000001F8
FC000001F8
FC000001F8
FC000001F8
FC000001F8
FC000001F8
FC000001F8
FC000001F8
FC000001F8
FC000001F8
FC000001F8
FC000001F8
FC000001F8
FC000001F8
FC000001F8
FC000001F8
FC000001F8
FC000001F8
FC000001F8
FC000003F0
FC000003F0
7E000003F0
7E000007F0
7F000007E0
3F00000FE0
3F80001FC0
1FE0003FC0
1FF800FF80
0FFFFFFF00
07FFFFFE00
03FFFFFC00
00FFFFF000
003FFFC000
0000FC0000
ENDCHAR
STARTCHAR 016D
ENCODING 365
SWIDTH 615 0
DWIDTH 41 0
BBX 31 50 5 -1
BITMAP
078003C0
078003C0
03C00780
03F01F80
01FFFF00
01FFFF00
00FFFC00
003FF800
00038000
00000000
00000000
00000000
00000000
FC00007E
FC00007E
FC00007E
FC00007E
FC00007E
FC00007E
FC00007E
FC00007E
FC00007E
FC00007E
FC00007E
FC00007E
FC00007E
FC00007E
FC00007E
FC00007E
FC00007E
FC00007E
FC00007E
FC00007E
FC00007E
FC00007E
FC0000FE
FC0000FE
FC0000FE
FC0000FE
FE0001FE
7E0001FE
7E0003FE
7F0007FE
7F800FFE
3FF07F7E
1FFFFF7E
1FFFFE7E
07FFFC7E
03FFF03E
003E0000
ENDCHAR
STARTCHAR 016E
ENCODING 366
SWIDTH 720 0
DWIDTH 48 0
BBX 37 67 6 -1
BITMAP
0001FC0000
0007FF0000
000FFF8000
000F0F8000
001E078000
001E03C000
001E03C000
001E03C000
001E03C000
000F078000
000FFF8000
0007FF0000
0003FE0000
0000700000
0000000000
0000000000
0000000000
0000000000
FC000001F8
FC000001F8
FC000001F8
FC000001F8
FC000001F8
FC000001F8
FC000001F8
FC000001F8
FC000001F8
FC000001F8
FC000001F8
FC000001F8
FC000001F8
FC000001F8
FC000001F8
FC000001F8
FC000001F8
FC000001F8
FC000001F8
FC000001F8
FC000001F8
FC000001F8
FC000001F8
FC000001F8
FC000001F8
FC000001F8
FC000001F8
FC000001F8
FC000001F8
FC000001F8
FC000001F8
FC000001F8
FC000001F8
FC000001F8
FC000003F0
FC000003F0
7E000003F0
7E000007F0
7F000007E0
3F00000FE0
3F80001FC0
1FE0003FC0
1FF800FF80
0FFFFFFF00
07FFFFFE00
03FFFFFC00
00FFFFF000
003FFFC000
0000FC0000
ENDCHAR
STARTCHAR 016F
ENCODING 367
SWIDTH 615 0
DWIDTH 41 0
BBX 31 55 5 -1
BITMAP
001FF000
003FF800
007FFC00
00783C00
00F01E00
00F01E00
00F01E00
00F01E00
00F01E00
00783C00
007FFC00
003FF800
001FF000
00010000
00000000
00000000
00000000
00000000
FC00007E
FC00007E
FC00007E
FC00007E
FC00007E
FC00007E
FC00007E
FC00007E
FC00007E
FC00007E
FC00007E
FC00007E
FC00007E
FC00007E
FC00007E
FC00007E
FC00007E
FC00007E
FC00007E
FC00007E
FC00007E
FC00007E
FC0000FE
FC0000FE
FC0000FE
FC0000FE
FE0001FE
7E0001FE
7E0003FE
7F0007FE
7F800FFE
3FF07F7E
1FFFFF7E
1FFFFE7E
07FFFC7E
03FFF03E
003E0000
ENDCHAR
STARTCHAR 0170
ENCODING 368
SWIDTH 720 0
DWIDTH 48 0
BBX 37 64 6 -1
BITMAP
000FE0FC00
001FC1FC00
001F81F800
003F83F000
003F03F000
007E07E000
007C0FC000
00F80F8000
01F01F0000
01E03E0000
03C03C0000
0000000000
0000000000
0000000000
0000000000
FC000001F8
FC000001F8
FC000001F8
FC000001F8
FC000001F8
FC000001F8
FC000001F8
FC000001F8
FC000001F8
FC000001F8
FC000001F8
FC000001F8
FC000001F8
FC000001F8
FC000001F8
FC000001F8
FC000001F8
FC000001F8
FC000001F8
FC000001F8
FC000001F8
FC000001F8
FC000001F8
FC000001F8
FC000001F8
FC000001F8
FC000001F8
FC000001F8
FC000001F8
FC000001F8
FC000001F8
FC000001F8
FC000001F8
FC000001F8
FC000003F0
FC000003F0
7E000003F0
7E000007F0
7F000007E0
3F00000FE0
3F80001FC0
1FE0003FC0
1FF800FF80
0FFFFFFF00
07FFFFFE00
03FFFFFC00
00FFFFF000
003FFFC000
0000FC0000
ENDCHAR
STARTCHAR 0171
ENCODING 369
SWIDTH 615 0
DWIDTH 41 0
BBX 31 52 5 -1
BITMAP
007F07F0
007E0FE0
00FE0FC0
00FC1F80
01F81F80
03F03F00
03E07E00
07C07C00
0F80F800
0F00F000
0E01E000
00000000
00000000
00000000
00000000
FC00007E
FC00007E
FC00007E
FC00007E
FC00007E
FC00007E
FC00007E
FC00007E
FC00007E
FC00007E
FC00007E
FC00007E
FC00007E
FC00007E
FC00007E
FC00007E
FC00007E
FC00007E
FC00007E
FC00007E
FC00007E
FC00007E
FC0000FE
FC0000FE
FC0000FE
FC0000FE
FE0001FE
7E0001FE
7E0003FE
7F0007FE
7F800FFE
3FF07F7E
1FFFFF7E
1FFFFE7E
07FFFC7E
03FFF03E
003E0000
ENDCHAR
STARTCHAR 0172
ENCODING 370
SWIDTH 720 0
DWIDTH 48 0
BBX 37 63 6 -15
BITMAP
FC000001F8
FC000001F8
FC000001F8
FC000001F8
FC000001F8
FC000001F8
FC000001F8
FC000001F8
FC000001F8
FC000001F8
FC000001F8
FC000001F8
FC000001F8
FC000001F8
FC000001F8
FC000001F8
FC000001F8
FC000001F8
FC000001F8
FC000001F8
FC000001F8
FC000001F8
FC000001F8
FC000001F8
FC000001F8
FC000001F8
FC000001F8
FC000001F8
FC000001F8
FC000001F8
FC000001F8
FC000001F8
FC000001F8
FC000001F8
FC000003F0
FC000003F0
7E000003F0
7E000007F0
7F000007E0
3F00000FE0
3F80001FC0
1FE0003FC0
1FF800FF80
0FFFFFFF00
07FFFFFE00
03FFFFFC00
00FFFFF800
003FFFF800
0000F9F000
000001E000
000003C000
000007C000
0000078000
0000078000
00000F8000
00000F8000
00000F8000
00000FC000
000007E200
000007FE00
000003FE00
000001FE00
0000003800
ENDCHAR
STARTCHAR 0173
ENCODING 371
SWIDTH 615 0
DWIDTH 41 0
BBX 31 51 5 -15
BITMAP
FC00007E
FC00007E
FC00007E
FC00007E
FC00007E
FC00007E
FC00007E
FC00007E
FC00007E
FC00007E
FC00007E
FC00007E
FC00007E
FC00007E
FC00007E
FC00007E
FC00007E
FC00007E
FC00007E
FC00007E
FC00007E
FC00007E
FC0000FE
FC0000FE
FC0000FE
FC0000FE
FE0001FE
7E0001FE
7E0003FE
7F0007FE
7F800FFE
3FF07F7E
1FFFFF7E
1FFFFE7E
07FFFC7E
03FFF03E
003E00F8
000001F0
000003E0
000003C0
000007C0
00000780
00000F80
00000F80
00000F80
00000F80
00000FC2
000007FE
000007FE
000003FE
00000038
ENDCHAR
STARTCHAR 0174
ENCODING 372
SWIDTH 930 0
DWIDTH 62 0
BBX 60 63 1 0
BITMAP
0000001F80000000
0000003FC0000000
0000007FE0000000
000000FFE0000000
000000FFF0000000
000001F9F8000000
000003F0FC000000
000007E07E000000
00000FC03F000000
00001F001F800000
00001E0007800000
0000000000000000
0000000000000000
0000000000000000
0000000000000000
FC00001F800003F0
FC00003F800003F0
FE00003FC00007F0
7E00003FC00007E0
7E00007FC00007E0
7E00007FC00007E0
7F00007FE0000FE0
3F00007FE0000FC0
3F0000FFE0000FC0
3F0000FBF0000FC0
3F8000FBF0001F80
1F8001F9F0001F80
1F8001F9F8001F80
1F8001F1F8001F80
0FC001F1F8003F00
0FC003F0F8003F00
0FC003F0FC003F00
0FC003E0FC003F00
07E007E07C007E00
07E007E07E007E00
07E007C07E007E00
07E00FC03E007E00
03F00FC03F00FC00
03F00FC03F00FC00
03F00F803F00FC00
03F01F801F00F800
01F81F801F81F800
01F81F001F81F800
01F83F000F81F800
00F83F000FC3F000
00FC3F000FC3F000
00FC3E000FC3F000
00FC7E0007C3F000
007C7E0007E3E000
007E7C0007E7E000
007E7C0003E7E000
007EFC0003E7E000
003EFC0003F7C000
003EF80001F7C000
003FF80001FFC000
003FF80001FF8000
001FF00001FF8000
001FF00000FF8000
001FF00000FF8000
001FF00000FF0000
000FE000007F0000
000FE000007F0000
000FE000007F0000
ENDCHAR
STARTCHAR 0175
ENCODING 373
SWIDTH 780 0
DWIDTH 52 0
BBX 51 51 1 0
BITMAP
000003F0000000
000007F8000000
00000FFC000000
00000FFE000000
00001FFE000000
00003F3F000000
00007E1F800000
0000FC0FC00000
0001F807E00000
0003E001F00000
0003C000F00000
00000000000000
00000000000000
00000000000000
00000000000000
FC0003F80007E0
FC0003F8000FC0
FC0007F8000FC0
7E0007F8000FC0
7E0007FC000F80
7E000FFC001F80
7E000FFC001F80
3F000FBE001F80
3F001FBE003F00
3F001F3E003F00
1F001F3F003F00
1F803F3F003F00
1F803F1F007E00
1F803E1F807E00
0FC03E1F807E00
0FC07E0F807C00
0FC07C0F80FC00
0FC07C0FC0FC00
07E0FC07C0FC00
07E0F807C0F800
07E0F807E1F800
03E1F807E1F800
03F1F803E1F000
03F1F003F1F000
03F1F003F3F000
01F3F001F3F000
01F3E001F3E000
01FBE001FBE000
01FBE000FFE000
00FFC000FFE000
00FFC000FFC000
00FFC0007FC000
007F80007FC000
007F80007F8000
007F80007F8000
007F00003F8000
ENDCHAR
STARTCHAR 0176
ENCODING 374
SWIDTH 555 0
DWIDTH 37 0
BBX 38 63 0 0
BITMAP
0000FC0000
0001FE0000
0003FE0000
0007FF0000
0007FF8000
000FCFC000
001F87E000
003F03F000
007E01F800
00F800FC00
00F0003C00
0000000000
0000000000
0000000000
0000000000
FE000001FC
7E000001F8
7F000003F8
3F000003F0
3F800007F0
1F800007E0
1FC0000FC0
0FC0001FC0
0FE0001F80
07E0003F80
07F0003F00
03F0007F00
01F8007E00
01F800FE00
00FC00FC00
00FE01FC00
007E01F800
007F03F000
003F03F000
003F87E000
001F87E000
001FCFC000
000FCFC000
000FFF8000
0007FF8000
0003FF0000
0003FF0000
0001FE0000
0001FC0000
0000FC0000
0000FC0000
0000FC0000
0000FC0000
0000FC0000
0000FC0000
0000FC0000
0000FC0000
0000FC0000
0000FC0000
0000FC0000
0000FC0000
0000FC0000
0000FC0000
0000FC0000
0000FC0000
0000FC0000
0000FC0000
0000FC0000
ENDCHAR
STARTCHAR 0177
ENCODING 375
SWIDTH 510 0
DWIDTH 34 0
BBX 34 67 0 -16
BITMAP
0003F00000
0007F80000
000FFC0000
001FFC0000
001FFE0000
003F3F0000
007E1F8000
00FC0FC000
01F807E000
03E003F000
03C000F000
0000000000
0000000000
0000000000
0000000000
FC00000FC0
7E00001FC0
7E00001F80
7F00001F80
3F00003F00
3F00003F00
1F80007F00
1F80007E00
1F80007E00
0FC000FE00
0FC000FC00
07E000FC00
07E001F800
07E001F800
03F001F800
03F003F000
01F803F000
01F807E000
01F807E000
00FC07E000
00FC0FC000
007C0FC000
007E0FC000
007E1F8000
003E1F8000
003F1F0000
001F3F0000
001F3F0000
001FBE0000
000FBE0000
000FFE0000
0007FC0000
0007FC0000
0007F80000
0003F80000
0003F80000
0003F00000
0003F00000
0003F00000
0007E00000
0007E00000
000FC00000
000FC00000
001FC00000
001F800000
003F000000
00FF000000
7FFE000000
7FFC000000
7FF8000000
7FF0000000
7FC0000000
ENDCHAR
STARTCHAR 0178
ENCODING 376
SWIDTH 555 0
DWIDTH 37 0
BBX 38 61 0 0
BITMAP
0008000000
003E01F000
003F03F000
003F03F000
003F03F000
003E03F000
001E01E000
0000000000
0000000000
0000000000
0000000000
0000000000
0000000000
FE000001FC
7E000001F8
7F000003F8
3F000003F0
3F800007F0
1F800007E0
1FC0000FC0
0FC0001FC0
0FE0001F80
07E0003F80
07F0003F00
03F0007F00
01F8007E00
01F800FE00
00FC00FC00
00FE01FC00
007E01F800
007F03F000
003F03F000
003F87E000
001F87E000
001FCFC000
000FCFC000
000FFF8000
0007FF8000
0003FF0000
0003FF0000
0001FE0000
0001FC0000
0000FC0000
0000FC0000
0000FC0000
0000FC0000
0000FC0000
0000FC0000
0000FC0000
0000FC0000
0000FC0000
0000FC0000
0000FC0000
0000FC0000
0000FC0000
0000FC0000
0000FC0000
0000FC0000
0000FC0000
0000FC0000
0000FC0000
ENDCHAR
STARTCHAR 0179
ENCODING 377
SWIDTH 570 0
DWIDTH 38 0
BBX 33 63 3 0
BITMAP
00001FC000
00003FC000
00003F8000
00007F0000
00007E0000
0000FC0000
0001F80000
0001F00000
0003E00000
0007C00000
0007800000
0000000000
0000000000
0000000000
0000000000
FFFFFFFF00
FFFFFFFF00
FFFFFFFF00
FFFFFFFF00
FFFFFFFF00
FFFFFFFF00
000000FE00
000001FC00
000001FC00
000003F800
000007F000
000007F000
00000FE000
00001FC000
00001FC000
00003F8000
00007F0000
00007F0000
0000FE0000
0001FC0000
0001FC0000
0003F80000
0007F00000
0007F00000
000FE00000
001FC00000
001FC00000
003F800000
007F000000
007F000000
00FE000000
01FC000000
01FC000000
03F8000000
07F0000000
07F0000000
0FE0000000
1FC0000000
1FC0000000
3F80000000
7F00000000
7F00000000
FE00000000
FFFFFFFF80
FFFFFFFF80
FFFFFFFF80
FFFFFFFF80
FFFFFFFF80
ENDCHAR
STARTCHAR 017A
ENCODING 378
SWIDTH 465 0
DWIDTH 31 0
BBX 26 51 3 0
BITMAP
0001FE00
0001FC00
0003F800
0007F000
0007E000
000FC000
001FC000
001F8000
003E0000
007C0000
00780000
00000000
00000000
00000000
00000000
7FFFFF80
7FFFFF80
7FFFFF80
7FFFFF80
7FFFFF80
00003F80
00003F00
00007E00
0000FE00
0001FC00
0001F800
0003F000
0007F000
0007E000
000FC000
001FC000
001F8000
003F0000
007F0000
00FE0000
00FC0000
01F80000
03F80000
03F00000
07E00000
0FE00000
0FC00000
1F800000
3F000000
7F000000
7E000000
FFFFFFC0
FFFFFFC0
FFFFFFC0
FFFFFFC0
FFFFFFC0
ENDCHAR
STARTCHAR 017B
ENCODING 379
SWIDTH 570 0
DWIDTH 38 0
BBX 33 61 3 0
BITMAP
0003C00000
0007E00000
0007F00000
0007F00000
0007F00000
0007E00000
0003E00000
0000000000
0000000000
0000000000
0000000000
0000000000
0000000000
FFFFFFFF00
FFFFFFFF00
FFFFFFFF00
FFFFFFFF00
FFFFFFFF00
FFFFFFFF00
000000FE00
000001FC00
000001FC00
000003F800
000007F000
000007F000
00000FE000
00001FC000
00001FC000
00003F8000
00007F0000
00007F0000
0000FE0000
0001FC0000
0001FC0000
0003F80000
0007F00000
0007F00000
000FE00000
001FC00000
001FC00000
003F800000
007F000000
007F000000
00FE000000
01FC000000
01FC000000
03F8000000
07F0000000
07F0000000
0FE0000000
1FC0000000
1FC0000000
3F80000000
7F00000000
7F00000000
FE00000000
FFFFFFFF80
FFFFFFFF80
FFFFFFFF80
FFFFFFFF80
FFFFFFFF80
ENDCHAR
STARTCHAR 017C
ENCODING 380
SWIDTH 465 0
DWIDTH 31 0
BBX 26 49 3 0
BITMAP
001E0000
003F0000
007F0000
007F0000
007F0000
003F0000
003E0000
00000000
00000000
00000000
00000000
00000000
00000000
7FFFFF80
7FFFFF80
7FFFFF80
7FFFFF80
7FFFFF80
00003F80
00003F00
00007E00
0000FE00
0001FC00
0001F800
0003F000
0007F000
0007E000
000FC000
001FC000
001F8000
003F0000
007F0000
00FE0000
00FC0000
01F80000
03F80000
03F00000
07E00000
0FE00000
0FC00000
1F800000
3F000000
7F000000
7E000000
FFFFFFC0
FFFFFFC0
FFFFFFC0
FFFFFFC0
FFFFFFC0
ENDCHAR
STARTCHAR 017D
ENCODING 381
SWIDTH 570 0
DWIDTH 38 0
BBX 33 63 3 0
BITMAP
07C001F000
03E007E000
01F00FC000
01F81F8000
00FE3F0000
007F7E0000
003FFC0000
001FFC0000
000FF80000
000FF00000
0007E00000
0000000000
0000000000
0000000000
0000000000
FFFFFFFF00
FFFFFFFF00
FFFFFFFF00
FFFFFFFF00
FFFFFFFF00
FFFFFFFF00
000000FE00
000001FC00
000001FC00
000003F800
000007F000
000007F000
00000FE000
00001FC000
00001FC000
00003F8000
00007F0000
00007F0000
0000FE0000
0001FC0000
0001FC0000
0003F80000
0007F00000
0007F00000
000FE00000
001FC00000
001FC00000
003F800000
007F000000
007F000000
00FE000000
01FC000000
01FC000000
03F8000000
07F0000000
07F0000000
0FE0000000
1FC0000000
1FC0000000
3F80000000
7F00000000
7F00000000
FE00000000
FFFFFFFF80
FFFFFFFF80
FFFFFFFF80
FFFFFFFF80
FFFFFFFF80
ENDCHAR
STARTCHAR 017E
ENCODING 382
SWIDTH 465 0
DWIDTH 31 0
BBX 26 51 3 0
BITMAP
7C001F00
3F003E00
1F80FC00
0FC1F800
07E3F000
03F7E000
01FFE000
01FFC000
00FF8000
007F0000
003F0000
00000000
00000000
00000000
00000000
7FFFFF80
7FFFFF80
7FFFFF80
7FFFFF80
7FFFFF80
00003F80
00003F00
00007E00
0000FE00
0001FC00
0001F800
0003F000
0007F000
0007E000
000FC000
001FC000
001F8000
003F0000
007F0000
00FE0000
00FC0000
01F80000
03F80000
03F00000
07E00000
0FE00000
0FC00000
1F800000
3F000000
7F000000
7E000000
FFFFFFC0
FFFFFFC0
FFFFFFC0
FFFFFFC0
FFFFFFC0
ENDCHAR
STARTCHAR 017F
ENCODING 383
SWIDTH 315 0
DWIDTH 21 0
BBX 18 51 6 0
BITMAP
01FF00
07FFC0
1FFFC0
3FFF80
7FFF80
7F0180
7E0000
FC0000
FC0000
FC0000
FC0000
FC0000
FC0000
FC0000
FC0000
FC0000
FC0000
FC0000
FC0000
FC0000
FC0000
FC0000
FC0000
FC0000
FC0000
FC0000
FC0000
FC0000
FC0000
FC0000
FC0000
FC0000
FC0000
FC0000
FC0000
FC0000
FC0000
FC0000
FC0000
FC0000
FC0000
FC0000
FC0000
FC0000
FC0000
FC0000
FC0000
FC0000
FC0000
FC0000
FC0000
ENDCHAR
STARTCHAR 0180
ENCODING 384
SWIDTH 615 0
DWIDTH 41 0
BBX 36 52 1 -1
BITMAP
07E0000000
07E0000000
07E0000000
07E0000000
07E0000000
07E0000000
FFFFFF8000
FFFFFF8000
FFFFFF8000
FFFFFF8000
FFFFFF8000
07E0000000
07E0000000
07E0000000
07E0000000
07C0FFE000
07C3FFF800
07C7FFFC00
07CFFFFF00
07DFFFFF00
07FF007F80
07FC001FC0
07F8000FC0
07F0000FE0
07F00007E0
07E00007E0
07E00007F0
07E00003F0
07E00003F0
07E00003F0
07E00003F0
07E00003F0
07E00003F0
07E00003F0
07E00003F0
07E00003F0
07E00003F0
07E00003F0
07E00003F0
07E00003F0
07E00007F0
07F00007E0
07F0000FE0
07F8000FE0
07FC001FC0
07FE003F80
07DFC1FF80
07DFFFFF00
07CFFFFE00
0783FFF800
0781FFF000
00000E0000
ENDCHAR
STARTCHAR 0181
ENCODING 385
SWIDTH 720 0
DWIDTH 48 0
BBX 44 48 1 0
BITMAP
01FFFFE00000
1FFFFFFFC000
3FFFFFFFF800
7FFFFFFFFE00
FFFFFFFFFF00
FFFFFFFFFF80
FC1F8000FF80
F81F80003FC0
F81F80001FC0
F81F80000FC0
F81F80000FC0
F81F80000FC0
001F80000FC0
001F80000FC0
001F80000FC0
001F80000FC0
001F80000FC0
001F80001F80
001F80003F80
001F80007F00
001F801FFE00
001FFFFFF800
001FFFFFE000
001FFFFFE000
001FFFFFFC00
001FFFFFFF00
001F8000FF80
001F80003FC0
001F80000FE0
001F80000FE0
001F800007F0
001F800007F0
001F800003F0
001F800003F0
001F800003F0
001F800003F0
001F800007F0
001F800007F0
001F800007F0
001F80000FE0
001F80001FE0
001F80003FC0
001F8001FFC0
001FFFFFFF80
001FFFFFFF00
001FFFFFFC00
001FFFFFF000
001FFFFF8000
ENDCHAR
STARTCHAR 0182
ENCODING 386
SWIDTH 615 0
DWIDTH 41 0
BBX 32 48 6 0
BITMAP
FFFFFFF8
FFFFFFF8
FFFFFFF8
FFFFFFF8
FFFFFFF8
FFFFFFF8
FC000000
FC000000
FC000000
FC000000
FC000000
FC000000
FC000000
FC000000
FC000000
FC000000
FC000000
FC000000
FC000000
FC000000
FC000000
FFFFFC00
FFFFFF80
FFFFFFE0
FFFFFFF0
FFFFFFF8
FC000FFC
FC0003FC
FC0000FE
FC0000FE
FC00007E
FC00007E
FC00007F
FC00007F
FC00007F
FC00007F
FC00007E
FC00007E
FC0000FE
FC0000FE
FC0001FC
FC0003FC
FC003FF8
FFFFFFF0
FFFFFFE0
FFFFFFC0
FFFFFF00
FFFFF000
ENDCHAR
STARTCHAR 0183
ENCODING 387
SWIDTH 615 0
DWIDTH 41 0
BBX 31 52 6 -1
BITMAP
FFFFFFF0
FFFFFFF0
FFFFFFF0
FFFFFFF0
FFFFFFF0
FC000000
FC000000
FC000000
FC000000
FC000000
FC000000
FC000000
FC000000
FC000000
FC000000
F81FFC00
F87FFF00
F8FFFF80
F9FFFFE0
FBFFFFE0
FFE00FF0
FF8003F8
FF0001F8
FE0001FC
FE0000FC
FC0000FC
FC0000FE
FC00007E
FC00007E
FC00007E
FC00007E
FC00007E
FC00007E
FC00007E
FC00007E
FC00007E
FC00007E
FC00007E
FC00007E
FC00007E
FC0000FE
FE0000FC
FE0001FC
FF0001FC
FF8003F8
FFC007F0
FBF83FF0
FBFFFFE0
F9FFFFC0
F07FFF00
F03FFE00
0001C000
ENDCHAR
STARTCHAR 0184
ENCODING 388
SWIDTH 630 0
DWIDTH 42 0
BBX 33 49 6 -1
BITMAP
FC00000000
FC00000000
FC00000000
FC00000000
FC00000000
FC00000000
FC00000000
FC00000000
FC00000000
FC00000000
FC00000000
FC00000000
FC00000000
FC00000000
FC00000000
FC00000000
FC00000000
FC00000000
FC00000000
FC00000000
FC00000000
FFFFFE0000
FFFFFFC000
FFFFFFF000
FFFFFFF800
FFFFFFFC00
FC0007FE00
FC0001FE00
FC00007F00
FC00007F00
FC00003F00
FC00003F80
FC00001F80
FC00001F80
FC00001F80
FC00001F80
FC00001F80
FC00003F80
FE00003F00
7E00003F00
7F00007F00
3F8000FE00
3FC003FE00
1FFF7FFC00
0FFFFFF800
07FFFFF000
03FFFFC000
00FFFF0000
0001E00000
ENDCHAR
STARTCHAR 0185
ENCODING 389
SWIDTH 600 0
DWIDTH 40 0
BBX 32 52 5 -1
BITMAP
FC000000
FC000000
FC000000
FC000000
FC000000
FC000000
FC000000
FC000000
FC000000
FC000000
FC000000
FC000000
FC000000
FC000000
FC000000
FC0FFE00
FC3FFF80
FC7FFFC0
FCFFFFE0
FDFFFFF0
FFE007F8
FFC003FC
FF8001FC
FF0000FE
FF00007E
FE00007E
FE00007E
FE00003F
FE00003F
FC00003F
FC00003F
FC00003F
FC00003F
FC00003F
FC00003F
7C00003F
7C00003F
7E00003F
7E00003F
7E00007F
7F00007E
3F00007E
3F0000FE
3F8000FC
1FC001FC
0FE007F8
0FFC1FF0
07FFFFE0
03FFFFC0
00FFFF80
003FFE00
0003C000
ENDCHAR
STARTCHAR 0186
ENCODING 390
SWIDTH 630 0
DWIDTH 42 0
BBX 36 49 2 -1
BITMAP
03FFF80000
1FFFFF0000
FFFFFFC000
7FFFFFE000
7FFFFFF800
7F803FFC00
380007FE00
200001FE00
000000FF00
0000007F80
0000003F80
0000001FC0
0000001FC0
0000000FC0
0000000FE0
0000000FE0
00000007E0
00000007E0
00000007F0
00000007F0
00000003F0
00000003F0
00000003F0
00000003F0
00000003F0
00000003F0
00000003F0
00000003F0
00000007F0
00000007F0
00000007F0
00000007E0
00000007E0
0000000FE0
0000000FC0
0000001FC0
0000001FC0
0000003F80
0000007F80
000000FF00
000001FE00
000007FE00
3C001FFC00
3FFFFFF800
3FFFFFF000
3FFFFFC000
3FFFFF0000
0FFFFC0000
000F800000
ENDCHAR
STARTCHAR 0187
ENCODING 391
SWIDTH 630 0
DWIDTH 42 0
BBX 42 58 4 -1
BITMAP
000000001FC0
000000007FC0
00000000FFC0
00000000FFC0
00000001FFC0
00000001F800
00000001F000
00000001F000
00000001F000
0000FFFDF000
0007FFFFF000
001FFFFFF000
007FFFFFE000
00FFFFFFE000
01FFC01FC000
03FF0001C000
07FC00000000
0FF000000000
0FE000000000
1FC000000000
1FC000000000
3F8000000000
3F8000000000
7F0000000000
7F0000000000
7E0000000000
7E0000000000
FE0000000000
FE0000000000
FE0000000000
FE0000000000
FC0000000000
FC0000000000
FC0000000000
FC0000000000
FC0000000000
FE0000000000
FE0000000000
FE0000000000
7E0000000000
7E0000000000
7F0000000000
7F0000000000
7F0000000000
3F8000000000
3F8000000000
1FC000000000
1FE000000000
0FF000000000
0FF800000000
07FC00000000
03FF8003C000
01FFFFFFC000
00FFFFFFC000
003FFFFFC000
001FFFFFC000
0003FFFF0000
00003F000000
ENDCHAR
STARTCHAR 0188
ENCODING 392
SWIDTH 495 0
DWIDTH 33 0
BBX 32 52 4 -1
BITMAP
0000007F
000001FF
000003FF
000003FF
000007FF
000007E0
000007C0
000007C0
000007C0
000007C0
000007C0
000007C0
000007C0
000007C0
000007C0
003FFFC0
00FFFFC0
03FFFF80
07FFFF80
0FFFFF80
1FF00700
3FC00000
3F800000
7F000000
7E000000
7E000000
FE000000
FC000000
FC000000
FC000000
FC000000
FC000000
FC000000
FC000000
FC000000
FC000000
FC000000
FC000000
FC000000
FE000000
7E000000
7E000000
7F000000
3F800000
3FC00000
1FE00180
0FFE3F80
0FFFFF80
03FFFF80
01FFFF80
007FFF00
0003E000
ENDCHAR
STARTCHAR 0189
ENCODING 393
SWIDTH 720 0
DWIDTH 48 0
BBX 43 48 2 0
BITMAP
07FFFC000000
07FFFFF00000
07FFFFFC0000
07FFFFFF0000
07FFFFFFC000
07FFFFFFE000
07E0007FF000
07E0000FF800
07E00003FC00
07E00001FE00
07E00000FE00
07E000007F00
07E000003F00
07E000003F80
07E000001F80
07E000001FC0
07E000001FC0
07E000000FC0
07E000000FC0
07E000000FC0
07E000000FC0
07E000000FE0
FFFFFE000FE0
FFFFFE000FE0
FFFFFE000FE0
FFFFFE000FE0
FFFFFE000FE0
07E000000FC0
07E000000FC0
07E000000FC0
07E000000FC0
07E000001FC0
07E000001FC0
07E000001F80
07E000003F80
07E000003F00
07E000007F00
07E00000FE00
07E00001FE00
07E00003FC00
07E0000FF800
07E0003FF000
07E003FFE000
07FFFFFFC000
07FFFFFF8000
07FFFFFE0000
07FFFFF00000
07FFFF000000
ENDCHAR
STARTCHAR 018A
ENCODING 394
SWIDTH 810 0
DWIDTH 54 0
BBX 49 48 1 0
BITMAP
01FFFFF0000000
1FFFFFFFC00000
3FFFFFFFF80000
7FFFFFFFFE0000
FFFFFFFFFF0000
FFFFFFFFFFC000
FC1F8000FFE000
F81F80003FF000
F81F80000FF000
F81F800007F800
F81F800003FC00
F81F800001FC00
001F800000FE00
001F800000FE00
001F8000007F00
001F8000007F00
001F8000003F00
001F8000003F00
001F8000003F80
001F8000003F80
001F8000003F80
001F8000001F80
001F8000001F80
001F8000001F80
001F8000001F80
001F8000003F80
001F8000003F80
001F8000003F80
001F8000003F80
001F8000003F80
001F8000003F00
001F8000003F00
001F8000007F00
001F8000007F00
001F800000FE00
001F800000FE00
001F800001FC00
001F800003FC00
001F800007F800
001F80000FF800
001F80003FF000
001F8000FFE000
001F800FFFC000
001FFFFFFF0000
001FFFFFFE0000
001FFFFFF80000
001FFFFFC00000
001FFFFE000000
ENDCHAR
STARTCHAR 018B
ENCODING 395
SWIDTH 615 0
DWIDTH 41 0
BBX 32 48 3 0
BITMAP
1FFFFFFF
1FFFFFFF
1FFFFFFF
1FFFFFFF
1FFFFFFF
1FFFFFFF
0000003F
0000003F
0000003F
0000003F
0000003F
0000003F
0000003F
0000003F
0000003F
0000003F
0000003F
0000003F
0000003F
0000003F
0000003F
001FFFFF
00FFFFFF
03FFFFFF
07FFFFFF
0FFFFFFF
1FF8003F
3FC0003F
3F80003F
7F00003F
7E00003F
7E00003F
7E00003F
FE00003F
FE00003F
FE00003F
FE00003F
7E00003F
7E00003F
7F00003F
3F80003F
3FE0003F
1FFC003F
0FFFFFFF
07FFFFFF
03FFFFFF
00FFFFFF
000FFFFF
ENDCHAR
STARTCHAR 018C
ENCODING 396
SWIDTH 615 0
DWIDTH 41 0
BBX 31 52 4 -1
BITMAP
1FFFFFFE
1FFFFFFE
1FFFFFFE
1FFFFFFE
1FFFFFFE
0000007E
0000007E
0000007E
0000007E
0000007E
0000007E
0000007E
0000007E
0000007E
0000007E
007FF07E
01FFFC3E
03FFFE3E
0FFFFF3E
0FFEFFBE
1FE00FFE
3FC003FE
3F8001FE
7F0000FE
7E0000FE
7E0000FE
FE00007E
FC00007E
FC00007E
FC00007E
FC00007E
FC00007E
FC00003E
FC00003E
FC00003E
FC00007E
FC00007E
FC00007E
FC00007E
FC00007E
FE00007E
7E0000FE
7F0000FE
7F0001FE
3F8001FE
1FC007FE
1FF83FBE
0FFFFF3E
07FFFE3E
03FFFC3E
00FFF01E
000F0000
ENDCHAR
STARTCHAR 018D
ENCODING 397
SWIDTH 600 0
DWIDTH 40 0
BBX 32 51 5 -15
BITMAP
003FFC00
00FFFF00
03FFFFC0
07FFFFE0
0FFC7FF0
1FE007F8
3F8003FC
7F0001FC
7E0000FE
7E00007E
FC00007F
FC00003F
FC00003F
FC00003F
FC00003F
F800003F
F800003F
F800003F
FC00003F
FC00003F
FC00003F
7E00007E
7E00007E
7F0000FE
3F8001FC
1FC003F8
1FE007F0
0FF00FE0
07FC3FC0
01FFFF80
00FFFE00
007FF800
001FF800
0007FE00
0001FF00
0000FF80
00003F80
00001FC0
00000FC0
00000FC0
000007E0
000007E0
000007C0
18000FC0
1E000FC0
3F803F80
7FFFFF80
3FFFFF00
1FFFFE00
07FFFC00
00FFE000
ENDCHAR
STARTCHAR 018E
ENCODING 398
SWIDTH 555 0
DWIDTH 37 0
BBX 27 48 4 0
BITMAP
FFFFFFE0
FFFFFFE0
FFFFFFE0
FFFFFFE0
FFFFFFE0
FFFFFFE0
000007E0
000007E0
000007E0
000007E0
000007E0
000007E0
000007E0
000007E0
000007E0
000007E0
000007E0
000007E0
000007E0
000007E0
000007E0
7FFFFFE0
7FFFFFE0
7FFFFFE0
7FFFFFE0
7FFFFFE0
000007E0
000007E0
000007E0
000007E0
000007E0
000007E0
000007E0
000007E0
000007E0
000007E0
000007E0
000007E0
000007E0
000007E0
000007E0
000007E0
000007E0
FFFFFFE0
FFFFFFE0
FFFFFFE0
FFFFFFE0
FFFFFFE0
ENDCHAR
STARTCHAR 018F
ENCODING 399
SWIDTH 735 0
DWIDTH 49 0
BBX 41 49 4 -1
BITMAP
007FFF800000
07FFFFF00000
1FFFFFFC0000
1FFFFFFF0000
1FFFFFFF8000
1FE001FFC000
1E00003FE000
0000000FF000
00000007F800
00000003FC00
00000001FC00
00000000FE00
00000000FE00
000000007E00
000000007F00
000000003F00
000000003F00
000000003F80
000000003F80
000000001F80
000000001F80
000000001F80
FFFFFFFFFF80
FFFFFFFFFF80
FFFFFFFFFF80
FFFFFFFFFF80
FFFFFFFFFF80
FC0000001F80
FC0000001F80
FC0000001F80
FC0000003F80
FE0000003F00
7E0000003F00
7E0000003F00
7E0000007F00
7E0000007E00
3F000000FE00
3F000000FE00
3F800001FC00
1FC00003F800
1FE00007F800
0FF0001FF000
07FC007FE000
03FFFFFFC000
01FFFFFF8000
00FFFFFF0000
003FFFFC0000
000FFFE00000
00007E000000
ENDCHAR
STARTCHAR 0190
ENCODING 400
SWIDTH 585 0
DWIDTH 39 0
BBX 33 49 4 -1
BITMAP
001FFF0000
00FFFFE000
03FFFFF800
07FFFFFE00
0FFFFFFF00
1FF001FF00
1FE0003E00
3FC0000C00
3F80000400
3F00000000
3F00000000
3F00000000
3F00000000
3F00000000
3F00000000
3F80000000
1F80000000
1FC0000000
0FE0000000
07F8000000
03FF800000
00FFFFE000
003FFFE000
003FFFE000
01FFFFE000
07FFFFE000
1FFC000000
3FE0000000
7F80000000
7F00000000
FE00000000
FC00000000
FC00000000
FC00000000
FC00000000
FC00000000
FC00000000
FC00000000
FE00000000
FE00000000
7F00000080
7F80000380
3FE0001F80
3FFE03FF80
1FFFFFFF80
07FFFFFF80
03FFFFFE00
007FFFF000
0000FC0000
ENDCHAR
STARTCHAR 0191
ENCODING 401
SWIDTH 585 0
DWIDTH 39 0
BBX 39 64 -1 -16
BITMAP
0007FFFFFE
0007FFFFFE
0007FFFFFE
0007FFFFFE
0007FFFFFE
0007FFFFFE
0007E00000
0007E00000
0007E00000
0007E00000
0007E00000
0007E00000
0007E00000
0007E00000
0007E00000
0007E00000
0007E00000
0007E00000
0007E00000
0007E00000
0007FFFFF8
0007FFFFF8
0007FFFFF8
0007FFFFF8
0007FFFFF8
0007FFFFF8
0007E00000
0007E00000
0007E00000
0007E00000
0007E00000
0007E00000
0007E00000
0007E00000
0007E00000
0007E00000
0007E00000
0007E00000
0007E00000
0007E00000
0007E00000
0007E00000
0007E00000
0007E00000
0007E00000
0007E00000
0007E00000
0007E00000
0007E00000
0007E00000
0007E00000
8007E00000
F807E00000
FC07E00000
FC07E00000
FC07E00000
FC07E00000
FC0FE00000
FE1FC00000
7FFFC00000
7FFF800000
3FFF000000
1FFE000000
07F8000000
ENDCHAR
STARTCHAR 0192
ENCODING 402
SWIDTH 405 0
DWIDTH 27 0
BBX 31 67 -1 -16
BITMAP
000007F8
00003FFE
00007FFE
0000FFFE
0001FFFC
0003FC04
0003F000
0003F000
0007E000
0007E000
0007E000
0007E000
0007E000
0007E000
0007E000
000FFFF0
00FFFFF0
01FFFFF0
01FFFFF0
01FFFFF0
0007E000
0007E000
0007E000
0007E000
0007E000
0007E000
0007E000
0007E000
0007E000
0007E000
0007E000
0007E000
0007E000
0007E000
0007E000
0007E000
0007E000
0007E000
0007E000
0007E000
0007E000
0007E000
0007E000
0007E000
0007E000
0007E000
0007E000
0007E000
0007E000
0007E000
0007E000
0007E000
0007E000
0007E000
0007E000
0007E000
F007E000
F807E000
F807E000
F807E000
FC0FC000
7E1FC000
7FFFC000
3FFF8000
3FFF0000
0FFE0000
03F80000
ENDCHAR
STARTCHAR 0193
ENCODING 403
SWIDTH 720 0
DWIDTH 48 0
BBX 46 58 4 -1
BITMAP
0000000003F8
000000000FFC
000000001FFC
000000001FFC
000000003FFC
000000003F00
000000003E00
000000003E00
000000003E00
00007FFF3E00
0003FFFFFE00
000FFFFFFE00
003FFFFFFE00
007FFFFFFC00
00FFF003FC00
03FF00007800
03FC00000800
07F800000000
0FF000000000
1FE000000000
1FC000000000
3F8000000000
3F8000000000
3F0000000000
7F0000000000
7E0000000000
7E0000000000
7E0000000000
FE0000000000
FE0000000000
FC0000000000
FC0000000000
FC0001FFFF00
FC0001FFFF00
FC0001FFFF00
FC0001FFFF00
FC0001FFFF00
FE0000003F00
FE0000003F00
7E0000003F00
7E0000003F00
7F0000003F00
7F0000003F00
3F0000003F00
3F8000003F00
3F8000003F00
1FC000003F00
1FE000003F00
0FF000003F00
07F800003F00
07FE00003F00
03FF80007F00
01FFFFFFFF00
007FFFFFFF00
003FFFFFFF00
000FFFFFFE00
0003FFFFE000
00001FF00000
ENDCHAR
STARTCHAR 0194
ENCODING 404
SWIDTH 570 0
DWIDTH 38 0
BBX 38 64 0 -16
BITMAP
FC000000FC
FE000001FC
7E000001F8
7E000003F8
3F000003F0
3F000003F0
3F800007F0
1F800007E0
1F800007E0
0FC0000FC0
0FC0000FC0
0FC0001FC0
07E0001F80
07E0001F80
07F0003F80
03F0003F00
03F0003F00
01F8007E00
01F8007E00
01F800FE00
00FC00FC00
00FC00FC00
007E01F800
007E01F800
007E01F800
003F03F000
003F03F000
001F07E000
001F87E000
001F87E000
000FCFC000
000FCFC000
000FCFC000
0007DF8000
0007FF8000
0003FF0000
0003FF0000
0003FF0000
0001FE0000
0001FE0000
0000FC0000
0001FE0000
0001FE0000
0003FF0000
0003FF0000
0003FF0000
0007FF8000
0007CF8000
0007CF8000
000FCFC000
000F87C000
000F87C000
001F87C000
001F87E000
001F87E000
001F87E000
001F87E000
001F87E000
000FCFC000
000FFFC000
0007FF8000
0007FF8000
0003FF0000
0000FC0000
ENDCHAR
STARTCHAR 0195
ENCODING 405
SWIDTH 930 0
DWIDTH 62 0
BBX 51 52 6 -1
BITMAP
FC000000000000
FC000000000000
FC000000000000
FC000000000000
FC000000000000
FC000000000000
FC000000000000
FC000000000000
FC000000000000
FC000000000000
FC000000000000
FC000000000000
FC000000000000
FC000000000000
FC000000000000
FC1FFC000007E0
FC7FFF000007E0
F8FFFF800007E0
F9FFFFC00007E0
FBFFFFC00007E0
FFC01FE00007E0
FF800FE00007E0
FF0007F00007E0
FE0003F00007E0
FE0003F00007E0
FC0003F00007E0
FC0003F00007E0
FC0003F00007E0
FC0003F00007E0
FC0003F00007E0
FC0003F00007E0
FC0003F00007E0
FC0003F00007E0
FC0003F00007E0
FC0003F00007E0
FC0003F00007E0
FC0003F00007E0
FC0003F00007E0
FC0003F00007E0
FC0003F00007E0
FC0003F00007E0
FC0003F8000FE0
FC0001F8000FC0
FC0001F8000FC0
FC0001FC001FC0
FC0000FE003F80
FC0000FFC1FF80
FC00007FFFFF00
FC00003FFFFE00
FC00001FFFFC00
FC000007FFF000
000000003E0000
ENDCHAR
STARTCHAR 0196
ENCODING 406
SWIDTH 345 0
DWIDTH 23 0
BBX 17 49 6 -1
BITMAP
FC0000
FC0000
FC0000
FC0000
FC0000
FC0000
FC0000
FC0000
FC0000
FC0000
FC0000
FC0000
FC0000
FC0000
FC0000
FC0000
FC0000
FC0000
FC0000
FC0000
FC0000
FC0000
FC0000
FC0000
FC0000
FC0000
FC0000
FC0000
FC0000
FC0000
FC0000
FC0000
FC0000
FC0000
FC0000
FC0000
FC0000
FC0000
FC0000
FC0000
FC0000
FE0000
7F0000
7FFF80
7FFF80
3FFF80
1FFF80
0FFF80
00F000
ENDCHAR
STARTCHAR 0197
ENCODING 407
SWIDTH 330 0
DWIDTH 22 0
BBX 18 48 2 0
BITMAP
7FFFC0
7FFFC0
7FFFC0
7FFFC0
1FFE00
03F000
03F000
03F000
03F000
03F000
03F000
03F000
03F000
03F000
03F000
03F000
03F000
03F000
03F000
03F000
03F000
FFFFC0
FFFFC0
FFFFC0
FFFFC0
FFFFC0
03F000
03F000
03F000
03F000
03F000
03F000
03F000
03F000
03F000
03F000
03F000
03F000
03F000
03F000
03F000
03F000
03F000
07F800
7FFFC0
7FFFC0
7FFFC0
7FFFC0
ENDCHAR
STARTCHAR 0198
ENCODING 408
SWIDTH 615 0
DWIDTH 41 0
BBX 35 48 6 0
BITMAP
FC00000FC0
FC00003FC0
FC00007FC0
FC0000FFC0
FC0001FFC0
FC0003F800
FC0007F000
FC000FE000
FC000FC000
FC001FC000
FC003F8000
FC007F0000
FC00FE0000
FC00FC0000
FC01F80000
FC03F00000
FC07F00000
FC0FE00000
FC1FC00000
FC1F800000
FC3F000000
FC7F000000
FCFF800000
FDFFC00000
FFFFC00000
FFEFE00000
FFC7F00000
FF87F00000
FF03F80000
FE01FC0000
FC00FE0000
FC00FE0000
FC007F0000
FC003F8000
FC003FC000
FC001FC000
FC000FE000
FC0007F000
FC0007F000
FC0003F800
FC0001FC00
FC0001FE00
FC0000FE00
FC00007F00
FC00003F80
FC00003F80
FC00001FC0
FC00000FE0
ENDCHAR
STARTCHAR 0199
ENCODING 409
SWIDTH 525 0
DWIDTH 35 0
BBX 29 51 6 0
BITMAP
0FE00000
1FF00000
3FF00000
7FF00000
FFF00000
FE100000
FC000000
FC000000
F8000000
F8000000
F8000000
F8000000
F8000000
F8000000
F8000000
F80007F0
F8000FE0
F8001FC0
F8003F80
F8007F00
F800FE00
F801FC00
F803F800
F807F000
F80FE000
F81FC000
F81F8000
F83F0000
F87E0000
F8FE0000
F9FC0000
FBFC0000
FBFE0000
FFFF0000
FFBF8000
FF3F8000
FE1FC000
FC0FE000
F807F000
F807F000
F803F800
F801FC00
F800FE00
F800FE00
F8007F00
F8003F80
F8001FC0
F8001FC0
F8000FE0
F80007F0
F80003F8
ENDCHAR
STARTCHAR 019A
ENCODING 410
SWIDTH 255 0
DWIDTH 17 0
BBX 15 51 1 0
BITMAP
07E0
07E0
07E0
07E0
07E0
07E0
07E0
07E0
07E0
07E0
07E0
07E0
07E0
07E0
07E0
07E0
07E0
07E0
07E0
07E0
07E0
07E0
07E0
FFFE
FFFE
FFFE
FFFE
07E0
07E0
07E0
07E0
07E0
07E0
07E0
07E0
07E0
07E0
07E0
07E0
07E0
07E0
07E0
07E0
07E0
07E0
07E0
07E0
07E0
07E0
07E0
07E0
ENDCHAR
STARTCHAR 019B
ENCODING 411
SWIDTH 540 0
DWIDTH 36 0
BBX 36 52 0 -1
BITMAP
1FE0000000
1FFC000000
1FFE000000
1FFF000000
1FFF038000
003F9F8000
001FFF8000
000FFFC000
007FFF0000
07FFF80000
07FFE00000
03FFE00000
03E3F00000
0203F00000
0003F00000
0001F80000
0001F80000
0003FC0000
0003FC0000
0007FC0000
0007FE0000
0007FE0000
000FBE0000
000FBF0000
001FBF0000
001F1F0000
003F1F8000
003F1F8000
007E0FC000
007E0FC000
007E0FC000
00FC07E000
00FC07E000
01F807E000
01F803F000
03F003F000
03F003F000
03F001F800
07E001F800
07E000F800
0FC000FC00
0FC000FC00
1F80007E00
1F80007E00
3F00007E00
3F00003F00
3F00003F80
7E00003FF0
7E00001FF0
FC00000FF0
FC00000FF0
00000001C0
ENDCHAR
STARTCHAR 019C
ENCODING 412
SWIDTH 1020 0
DWIDTH 68 0
BBX 56 49 6 -1
BITMAP
FC00007E00003F
FC00007E00003F
FC00007E00003F
FC00007E00003F
FC00007E00003F
FC00007E00003F
FC00007E00003F
FC00007E00003F
FC00007E00003F
FC00007E00003F
FC00007E00003F
FC00007E00003F
FC00007E00003F
FC00007E00003F
FC00007E00003F
FC00007E00003F
FC00007E00003F
FC00007E00003F
FC00007E00003F
FC00007E00003F
FC00007E00003F
FC00007E00003F
FC00007E00003F
FC00007E00003F
FC00007E00003F
FC00007E00003F
FC00007E00003F
FC00007E00003F
FC00007E00003F
FC00007E00003F
FC00007E00003F
FC00007E00003F
FC00007E00003F
FC00007E00003F
FC00007E00003F
FC00007E00007F
FC0000FE00007F
FC0000FE00007F
FE0000FF0000FF
FE0001FF0000FF
7E0003FF8001FF
7F0007FF8003FF
7FC01FDFE007FF
3FFFFF9FFFFF9F
1FFFFF0FFFFF9F
1FFFFE07FFFE1F
07FFFC03FFFC1F
01FFE000FFF01F
003E00000F0000
ENDCHAR
ENDFONT
